/* XPM */
static char *_21691850274[] = {
/* columns rows colors chars-per-pixel */
"32 32 162 2 ",
"   c None",
".  c #74AEFF",
"X  c #7BA9FF",
"o  c #6EB4FF",
"O  c #68BAFF",
"+  c #7DB3FF",
"@  c #26DDF2",
"#  c #2EDAF5",
"$  c #36D7F7",
"%  c #3BDCF5",
"&  c #3DD4F9",
"*  c #0EE6EC",
"=  c #00EBE8",
"-  c #06E9EA",
";  c #16E3EE",
":  c #1DE7ED",
">  c #16EAEB",
",  c #10ECE9",
"<  c #1EE0F0",
"1  c #20EEEB",
"2  c #2CE9EE",
"3  c #30EFEC",
"4  c #34EDED",
"5  c #3BEBEF",
"6  c #33E6F0",
"7  c #4DCEFD",
"8  c #5CC5FF",
"9  c #55CBFF",
"0  c #45D1FB",
"q  c #49D7F9",
"w  c #4FDCF8",
"e  c #50D4FB",
"r  c #62C0FF",
"t  c #6BC4FF",
"y  c #7BC2FF",
"u  c #68DAFC",
"i  c #7ADAFE",
"p  c #7FD8FF",
"a  c #40F0EE",
"s  c #50F1EF",
"d  c #4EE3F4",
"f  c #42E8F1",
"g  c #69E8F6",
"h  c #6DEEF4",
"j  c #68E1F9",
"k  c #73EBF6",
"l  c #72ECF5",
"z  c #70E5F8",
"x  c #7DE8F9",
"c  c #988DFF",
"v  c #8D97FF",
"b  c #879DFF",
"n  c #9392FF",
"m  c #9E94FF",
"M  c #9A98FF",
"N  c #A59BFF",
"B  c #81A3FF",
"V  c #88A8FF",
"C  c #91AEFF",
"Z  c #9EAFFF",
"A  c #8EBDFF",
"S  c #99B4FF",
"D  c #A7A6FF",
"F  c #ABA3FF",
"G  c #A3AAFF",
"H  c #A2ABFF",
"J  c #B2AAFF",
"K  c #B8B1FF",
"L  c #B0B8FF",
"P  c #BFB8FF",
"I  c #C5BFFF",
"U  c #89CFFF",
"Y  c #97C2FF",
"T  c #9CCBFF",
"R  c #84D4FF",
"E  c #8ED7FF",
"W  c #84DDFE",
"Q  c #A4C4FF",
"!  c #A8CCFF",
"~  c #B4C1FF",
"^  c #B4CFFF",
"/  c #A1D3FF",
"(  c #A5D0FF",
")  c #AED5FF",
"_  c #A6DBFF",
"`  c #B3DCFF",
"'  c #B0DFFF",
"]  c #81E6FA",
"[  c #8EE9FA",
"{  c #8FEFF8",
"}  c #90E0FE",
"|  c #94EEF9",
" . c #97ECFA",
".. c #9AEBFB",
"X. c #9DEAFC",
"o. c #80F5F4",
"O. c #91F6F5",
"+. c #9FF8F6",
"@. c #A6E7FE",
"#. c #ADE2FF",
"$. c #AAE5FF",
"%. c #A2E8FD",
"&. c #A3E8FD",
"*. c #A9ECFC",
"=. c #BBE3FF",
"-. c #BDE0FF",
";. c #B9EEFD",
":. c #BAEEFE",
">. c #BDECFE",
",. c #BFFAF9",
"<. c #CCC6FF",
"1. c #C3CEFF",
"2. c #CAC8FF",
"3. c #D2CDFF",
"4. c #C5D9FF",
"5. c #D2DAFF",
"6. c #D2E7FF",
"7. c #D0E9FF",
"8. c #DEE9FF",
"9. c #DFE9FF",
"0. c #DBECFF",
"q. c #DAEDFF",
"w. c #D9EEFF",
"e. c #C2F2FD",
"r. c #C8F0FF",
"t. c #CFF4FD",
"y. c #C2F9FA",
"u. c #C0FAFA",
"i. c #CFFBFB",
"p. c #D2F3FE",
"a. c #DAF7FE",
"s. c #DBF7FE",
"d. c #DDF6FE",
"f. c #D0FBFB",
"g. c #D1FBFB",
"h. c #D2FAFC",
"j. c #E5E3FF",
"k. c #E7EEFF",
"l. c #EAEBFF",
"z. c #E1F3FF",
"x. c #E4F1FF",
"c. c #EFF4FF",
"v. c #EDF6FF",
"b. c #E4FBFD",
"n. c #E5FAFE",
"m. c #E7FAFE",
"M. c #E1FCFD",
"N. c #E8F9FF",
"B. c #EFFEFE",
"V. c #F2F1FF",
"C. c #F7F9FF",
"Z. c #F5FBFF",
"A. c #F6FAFF",
"S. c #F6FBFF",
"D. c #F0FDFE",
"F. c #F1FDFE",
"G. c #F2FDFE",
"H. c #F3FCFF",
"J. c GhostWhite",
"K. c #F9F8FF",
"L. c #F8F9FF",
"P. c white",
/* pixels */
"                            P.P.P.P.P.                          ",
"                      P.P.P.P.P.P.P.P.P.P.P.                    ",
"                  P.P.V.3.K N c c c N J 3.V.P.P.P.              ",
"              P.P.V.P c c c c c c c c c c c J j.P.P.            ",
"            P.P.2.c c c c m c c c c c c c c c c I K.P.          ",
"          P.K.F c c c c c K 2.j.j.j.3.P m c c c c F K.P.        ",
"        P.K.D n n n M 2.J.P.P.P.P.P.P.P.K.2.M n n n D C.P.      ",
"      P.P.L v v v G l.P.P.P.P.P.P.P.P.P.P.P.C.G v v v G P.P.    ",
"      P.5.b b b Z K.P.P.P.P.P.P.P.P.P.P.P.P.P.P.~ b b b 1.P.    ",
"    P.C.V B B C C.P.8.8.8.8.8.j.8.8.8.j.8.8.C.P.C.S B B V v.P.  ",
"    P.4.X X X 8.P.P.X X X X X X X X X X X X Q P.P.k.X X X ^ P.  ",
"  P.P.A . . Y P.P.P.! . . . . . . . . . . . + P.P.P.! . . + P.P.",
"  P.v.o o o 6.P.P.P.C.T o o T 6.P.w.( o o o ) P.P.P.x.o o o w.P.",
"  P.7.O O O P.P.P.P.P.P.C.w.P.P.w.C.P.-.O / P.P.P.P.P.y O O ` P.",
"  P.' r r U P.P.P.P.P.P.P.P.z.t r t z.P.=.P.P.P.P.P.P.U 8 O _ P.",
"  P.#.8 8 R P.P.P.P.P.P.P.P.E 8 8 8 R P.P.P.P.P.P.P.P.#.8 8 R P.",
"  P.$.9 9 p P.P.P.P.P.P.P.P.p 9 9 9 p P.P.P.P.P.P.P.P.$.9 9 p P.",
"  P.@.7 7 i P.P.P.P.P.P.p.P.r.7 7 7 >.P.P.P.P.P.P.P.P.W 7 7 } P.",
"  P.;.0 0 e P.P.P.P.P.;.0 ;.P.N.%.d.P.P.P.P.P.P.P.P.P.u 0 0 %.P.",
"  P.a.& & & a.P.P.P.e.& & & X.H.P.P.*.q q X.P.P.P.P.b.& & & t.P.",
"  P.P.w $ $ ] P.P.P.j $ $ $ $ $ w $ $ $ $ $ [ P.P.P...$ $ $ P.P.",
"    P.| # # # b.P.P.z # # # # # # # # # # # # G.P.G.% # # x P.  ",
"    P.b.@ @ @ w P.P.G.| | | | | | | | | | | | b.P.g @ @ @ b.P.  ",
"      P.[ < : : k P.P.P.P.P.P.P.P.P.P.P.P.P.P.P.l < < < k P.P.  ",
"      P.P.f ; ; ; h G.P.P.P.P.P.P.P.P.P.P.P.P.h ; ; ; 6 G.P.    ",
"        P.M.: * * * 2 y.P.P.P.P.P.P.P.P.P.y.5 * * * : h.P.      ",
"          P.g.> - - - - 3 O.y.P.P.P.g.O.4 - - - - > g.P.        ",
"            P.B.a = = = = = = = = = = = = = = = 3 i.P.          ",
"              P.P.+.1 = = = = = = = = = = = , o.P.P.            ",
"                P.P.P.+.s , = = = = = , s +.P.P.P.              ",
"                    P.P.P.P.B.,.,.,.B.P.P.P.P.                  ",
"                          P.P.P.P.P.P.P.                        "
};
