/* XPM */
static char *_61691850274[] = {
/* columns rows colors chars-per-pixel */
"16 16 80 1 ",
"  c None",
". c #79AAFF",
"X c #6DB6FF",
"o c #75BAFF",
"O c #7FBEFF",
"+ c #24DEF2",
"@ c #33D8F6",
"# c #00EBE8",
"$ c #05E9EA",
"% c #14E4EE",
"& c #30EFEC",
"* c #32EEED",
"= c #3FE9F1",
"- c #53CCFE",
"; c #43D2FB",
": c #60C1FF",
"> c #69C5FF",
", c #65DAFB",
"< c #66DAFB",
"1 c #4CE4F4",
"2 c #6DEDF4",
"3 c #73E4F9",
"4 c #7DE0FC",
"5 c #64F1F2",
"6 c #988DFF",
"7 c #869FFF",
"8 c #9293FF",
"9 c #9E94FF",
"0 c #9999FF",
"q c #A59BFF",
"w c #8DA4FF",
"e c #B2AAFF",
"r c #BFB8FF",
"t c #89C3FF",
"y c #9CCBFF",
"u c #88D0FF",
"i c #88DCFE",
"p c #92D4FF",
"a c #93DFFE",
"s c #ABCAFF",
"d c #B7D9FF",
"f c #94EEF9",
"g c #80F5F4",
"h c #9FF8F6",
"j c #ABECFD",
"k c #AFF2FA",
"l c #BBF4FB",
"z c #BFFAF9",
"x c #CCC6FF",
"c c #C8C9FF",
"v c #D2CDFF",
"b c #CDDFFF",
"n c #D7D5FF",
"m c #D2E7FF",
"M c #D9E1FF",
"N c #D7EFFF",
"B c #DDEAFF",
"V c #CBF5FC",
"C c #C9F7FC",
"Z c #CCF5FD",
"A c #CFF4FE",
"S c #D1F3FE",
"D c #DFF5FF",
"F c #D2FAFC",
"G c #D8F8FD",
"H c #E0E8FF",
"J c #E7EEFF",
"K c #E6EFFF",
"L c #E9ECFF",
"P c #E8EEFF",
"I c #EAF8FF",
"U c #EBF8FF",
"Y c #ECFDFD",
"T c #EEFEFD",
"R c #F1F0FF",
"E c #F5FBFF",
"W c #F6FAFF",
"Q c #F1FDFE",
"! c #F4FCFF",
"~ c white",
/* pixels */
"      ~~~~      ",
"   ~Rrq66qrR~   ",
"  ~x669ee966v~  ",
" ~c80n~~~~n08c~ ",
" P7wMHHHHHPPw7P ",
"~s.bB......Jb.s~",
"~XO~~dymmttE~Oo~",
"~:u~~~U>>NE~~p:~",
"~-a~~QK--I~~~i-~",
"~;<~~,4SSjA~~<;~",
"~3@CC@@@@@@GC@3~",
" l+1QkfffffC1+l ",
" ~2%=F~~~~F=%2~ ",
"  T5$$&gg&$$5~  ",
"   ~h&####&h~   ",
"     ~TzzT~     "
};
