/* XPM */
static char *_41691850274[] = {
/* columns rows colors chars-per-pixel */
"64 64 163 2 ",
"   c None",
".  c #7FA5FF",
"X  c #75ADFF",
"o  c #7AA9FF",
"O  c #6EB4FF",
"+  c #64BEFF",
"@  c #69B9FF",
"#  c #72B0FF",
"$  c #7BB5FF",
"%  c #74BCFF",
"&  c #78B8FF",
"*  c #26DDF3",
"=  c #2DDBF5",
"-  c #37D7F7",
";  c #33D8F6",
":  c #3DD5F8",
">  c #0DE7EB",
",  c #01EBE8",
"<  c #08E8EA",
"1  c #15E4ED",
"2  c #1BE2EF",
"3  c #12ECEA",
"4  c #1FE0F0",
"5  c #23E5EF",
"6  c #20EEEB",
"7  c #30EFEC",
"8  c #2DE1F1",
"9  c #3EE2F3",
"0  c #3DEAF0",
"q  c #4DCEFD",
"w  c #5CC5FF",
"e  c #55CBFF",
"r  c #44DDF6",
"t  c #48DEF6",
"y  c #45D2FA",
"u  c #4CD6FA",
"i  c #47D8F8",
"p  c #4FDCF8",
"a  c #5CD4FD",
"s  c #56D9FA",
"d  c #5CDCF9",
"f  c #69C5FF",
"g  c #7AC3FF",
"h  c #63D5FE",
"j  c #64DCFB",
"k  c #6CDDFB",
"l  c #72DDFB",
"z  c #78DBFD",
"x  c #45EEEF",
"c  c #40F0EE",
"v  c #50F1EF",
"b  c #4EE4F5",
"n  c #48EDF0",
"m  c #51EAF3",
"M  c #52F1F0",
"N  c #6BE7F7",
"B  c #62EAF4",
"V  c #6CEEF4",
"C  c #68E1F9",
"Z  c #73EBF6",
"A  c #75E3F9",
"S  c #7DE3FB",
"D  c #7CE8F9",
"F  c #63F1F2",
"G  c #73F2F3",
"H  c #978EFF",
"J  c #988DFF",
"K  c #8E96FF",
"L  c #859FFF",
"P  c #8A9BFF",
"I  c #9392FF",
"U  c #9E95FF",
"Y  c #959DFF",
"T  c #9999FF",
"R  c #A49CFF",
"E  c #82A2FF",
"W  c #85ABFF",
"Q  c #89A8FF",
"!  c #94ABFF",
"~  c #9EAFFF",
"^  c #81B0FF",
"/  c #83BAFF",
"(  c #9BB2FF",
")  c #9EBCFF",
"_  c #ABA2FF",
"`  c #A2ABFF",
"'  c #B2AAFF",
"]  c #A1B9FF",
"[  c #B8B1FF",
"{  c #B7BFFF",
"}  c #BFB8FF",
"|  c #88C4FF",
" . c #8CCDFF",
".. c #94C5FF",
"X. c #98C2FF",
"o. c #97CFFF",
"O. c #9DCAFF",
"+. c #87D1FF",
"@. c #82DEFD",
"#. c #95D2FF",
"$. c #9ED6FF",
"%. c #A2C5FF",
"&. c #A7CEFF",
"*. c #B5C1FF",
"=. c #B6CEFF",
"-. c #A5D0FF",
";. c #A6DCFF",
":. c #B2D1FF",
">. c #BCD5FF",
",. c #B2DDFF",
"<. c #BFDFFF",
"1. c #85E5FA",
"2. c #99E4FD",
"3. c #9CEAFB",
"4. c #80F5F4",
"5. c #8EF3F6",
"6. c #91F6F5",
"7. c #9FF8F6",
"8. c #A5E7FE",
"9. c #ABE4FF",
"0. c #A3EBFC",
"q. c #AEEBFD",
"w. c #BCEDFF",
"e. c #A2F7F7",
"r. c #A5F6F8",
"t. c #ABF3F9",
"y. c #B3F2FB",
"u. c #B9F5FA",
"i. c #B1F8F8",
"p. c #BFFAF9",
"a. c #C1C2FF",
"s. c #CCC6FF",
"d. c #C3CEFF",
"f. c #D2CDFF",
"g. c #C0D1FF",
"h. c #CFD0FF",
"j. c #D7D6FF",
"k. c #D8D5FF",
"l. c #DFDBFF",
"z. c #C6E6FF",
"x. c #C9E2FF",
"c. c #CDEDFF",
"v. c #D4E5FF",
"b. c #DAE0FF",
"n. c #DBECFF",
"m. c #C4F1FE",
"M. c #CCF4FD",
"N. c #C2F9FA",
"B. c #CFFBFB",
"V. c #D5F2FF",
"C. c #DCF7FE",
"Z. c #D1FBFB",
"A. c #DFFDFC",
"S. c #E5E3FF",
"D. c #E6EFFF",
"F. c #EBEBFF",
"G. c #E3F1FF",
"H. c #ECF7FF",
"J. c #E4FBFE",
"K. c #EDFCFE",
"L. c #F2F2FF",
"P. c #F4FBFF",
"I. c #FFFFFF",
/* pixels */
"                                                                                                                                ",
"                                                  I.I.I.I.I.I.I.I.I.I.I.I.I.I.                                                  ",
"                                            I.I.I.I.I.I.I.I.I.I.I.I.I.I.I.I.I.I.I.I.                                            ",
"                                      I.I.I.I.I.I.I.I.I.I.I.I.I.I.I.I.I.I.I.I.I.I.I.I.I.I.                                      ",
"                                  I.I.I.I.I.I.I.I.S.s.} ' U J J J J R ' [ s.S.P.I.I.I.I.I.I.I.                                  ",
"                              I.I.I.I.I.I.I.k.[ U J J J J J J J J J J J J J J J ' f.P.I.I.I.I.I.I.                              ",
"                            I.I.I.I.I.P.s.U J J J J J J J J J J J J J J J J J J J J J } L.I.I.I.I.I.                            ",
"                          I.I.I.I.P.s.U J J J J J J J J J J J J J J J J J J J J J J J J J } L.I.I.I.I.I.                        ",
"                      I.I.I.I.I.l.R J J J J J J J J J J J J J J J J J J J J J J J J J J J J U f.I.I.I.I.I.                      ",
"                    I.I.I.I.P.} J J J J J J J J J J J J J J J J J J J J J J J J J J J J J J J J ' P.I.I.I.I.                    ",
"                  I.I.I.I.P._ J J J J J J J J J J J U [ s.l.S.S.S.S.l.s.[ R J J J J J J J J J J J U F.I.I.I.I.                  ",
"                I.I.I.I.F.U J J H H H J J H H U } F.I.I.I.I.I.I.I.I.I.I.I.I.F.s.R J J J J J J I H J U k.I.I.I.I.                ",
"                I.I.I.F.U I I I I I I I H U s.P.I.I.I.I.I.I.I.I.I.I.I.I.I.I.I.I.I.k.R H I H I I I I I H j.I.I.I.I.              ",
"              I.I.I.P.T I I I I I I I I a.P.I.I.I.I.I.I.I.I.I.I.I.I.I.I.I.I.I.I.I.I.I.h.T K I I I I I I I F.I.I.I.              ",
"            I.I.I.P.` K K K K K K K Y S.I.I.I.I.I.I.I.I.I.I.I.I.I.I.I.I.I.I.I.I.I.I.I.I.H.` I K K K K K K Y L.I.I.I.            ",
"          I.I.I.I.{ K P P K P P P ` P.I.I.I.I.I.I.I.I.I.I.I.I.I.I.I.I.I.I.I.I.I.I.I.I.I.I.L.*.K P P P P P P ` I.I.I.I.          ",
"          I.I.I.l.L P L P P K L ` I.I.I.I.I.I.I.I.I.I.I.I.I.I.I.I.I.I.I.I.I.I.I.I.I.I.I.I.I.I.*.P L P P P P L d.I.I.I.          ",
"        I.I.I.P.! L L L L L L ( P.I.I.I.I.I.I.I.I.I.I.I.I.I.I.I.I.I.I.I.I.I.I.I.I.I.I.I.I.I.I.I.*.L L L L L L L F.I.I.I.        ",
"        I.I.I.g.E E E . . E Q L.I.I.I.I.I.I.I.I.I.I.I.I.I.I.I.I.I.I.I.I.I.I.I.I.I.I.I.I.I.I.I.I.I.( E E E E E E ] I.I.I.        ",
"      I.I.I.P.W . . . . . . n.I.I.I.I.) ) ) ) ) ) ) ) ) ) ) ) ) ) ) ) ) ) ) ) ) ) ) =.P.I.I.I.I.I.P.W . . . . . . n.I.I.I.      ",
"      I.I.I.>.. o o o o . =.I.I.I.I.I.o o o o o o o o o o o o o o o o . o o . o o o o W P.I.I.I.I.I.v.o . o o o o ) I.I.I.      ",
"      I.I.I.o o o o o o W P.I.I.I.I.I.%.o o o o X o o o o o o o o o o o X o o X o o o o :.I.I.I.I.I.I.) o o X o X o D.I.I.I.    ",
"    I.I.I.x.# X X X X X >.I.I.I.I.I.I.n.X X X X X X X X X X X X X X X X X X X X X X X X X.I.I.I.I.I.I.n.X X X X X X :.I.I.I.    ",
"    I.I.I.%.# # X O X & P.I.I.I.I.I.I.I.O.# # X # # # # # # # # # # X O # # # # # # # # &.I.I.I.I.I.I.I...X O X # # / I.I.I.    ",
"    I.I.I.& O O O # O &.I.I.I.I.I.I.I.I.P.O.O O # O # O ..g.I.I.I.P.v...O O O # O # O O n.I.I.I.I.I.I.I.x.O O O O # % G.I.I.I.  ",
"  I.I.I.n.O O O O @ @ D.I.I.I.I.I.I.I.I.I.I.x.| O @ % <.I.I.I.I.I.I.I.I.n.% O @ @ O O x.I.I.I.I.I.I.I.I.P.O O O O @ @ g.I.I.I.  ",
"  I.I.I.,.@ @ @ @ @ @ I.I.I.I.I.I.I.I.I.I.I.I.I.I.I.I.I.I.I.I.I.I.I.I.I.I.P.g @ @ @ x.I.I.I.I.I.I.I.I.I.I. .@ @ @ @ @ #.I.I.I.  ",
"  I.I.I.$.@ + + @ + #.I.I.I.I.I.I.I.I.I.I.I.I.I.I.I.I.I.I.I.P.n.V.H.I.I.I.I.D.+ + z.I.I.I.I.I.I.I.I.I.I.I.,.+ + + + @ g I.I.I.  ",
"  I.I.I. .f + + + f ,.I.I.I.I.I.I.I.I.I.I.I.I.I.I.I.I.I.I.;.+ + w + #.P.I.I.I.$.z.I.I.I.I.I.I.I.I.I.I.I.I.V.+ + + + f + I.I.I.  ",
"  I.I.I.f w w w w w c.I.I.I.I.I.I.I.I.I.I.I.I.I.I.I.I.I.;.f w w w w f +.I.I.I.I.I.I.I.I.I.I.I.I.I.I.I.I.I.J.w + w w w w P.I.I.  ",
"  I.I.I.w w w w w w V.I.I.I.I.I.I.I.I.I.I.I.I.I.I.I.I.P.w w w w w w w w c.I.I.I.I.I.I.I.I.I.I.I.I.I.I.I.I.I.w w w w w w V.I.I.  ",
"  I.I.I.w w w e w w V.I.I.I.I.I.I.I.I.I.I.I.I.I.I.I.I.V.w e w e w w e w 9.I.I.I.I.I.I.I.I.I.I.I.I.I.I.I.I.I.w w w w w w V.I.I.I.",
"  I.I.I.e e e e e e V.I.I.I.I.I.I.I.I.I.I.I.I.I.I.I.I.V.e e e e w e w e 8.I.I.I.I.I.I.I.I.I.I.I.I.I.I.I.I.I.e e e e e e V.I.I.I.",
"  I.I.I.e e e e e e V.I.I.I.I.I.I.I.I.I.I.I.I.I.I.I.I.H.e e e e q e e e w.I.I.I.I.I.I.I.I.I.I.I.I.I.I.I.I.I.e e e e e e V.I.I.  ",
"  I.I.I.a q e q q q M.I.I.I.I.I.I.I.I.I.I.I.I.I.I.I.I.I.@.e q q q q q h I.I.I.I.I.I.I.I.I.I.I.I.I.I.I.I.I.P.e q q q q q H.I.I.  ",
"  I.I.I.z q q u q q 8.I.I.I.I.I.I.I.I.I.I.I.I.P.2.I.I.I.P.z q q q q h C.I.I.I.I.I.I.I.I.I.I.I.I.I.I.I.I.I.M.q q q q q q I.I.I.  ",
"  I.I.I.z y y y y y z I.I.I.I.I.I.I.I.I.I.I.K.j y V.I.I.I.I.m.8.3.w.I.I.I.I.I.I.I.I.I.I.I.I.I.I.I.I.I.I.I.q.y y y y y a I.I.I.  ",
"  I.I.I.3.y y y y y d I.I.I.I.I.I.I.I.I.I.P.j y y u P.I.I.I.I.I.I.I.I.I.I.I.I.I.I.I.I.I.I.I.I.I.I.I.I.I.I.S y y y y y l I.I.I.  ",
"  I.I.I.M.y y : : : : C.I.I.I.I.I.I.I.I.P.j : y : y s C.I.I.I.I.I.I.I.I.P.S k k 1.V.I.I.I.I.I.I.I.I.I.I.I.u : : y : : 0.I.I.I.  ",
"    I.I.P.: - : : : : 3.I.I.I.I.I.I.I.I.j : - - : - - - 1.J.I.I.I.I.P.3.i : : : - - 1.P.I.I.I.I.I.I.I.I.m.- : : : - : M.I.I.I.  ",
"    I.I.I.C - - - - - p I.I.I.I.I.I.I.y.- - - - - - - - - - p C C d - - - - - - - - - C I.I.I.I.I.I.I.I.A - - - - - i I.I.I.    ",
"    I.I.I.0.; - ; ; ; ; q.I.I.I.I.I.I.3.; ; ; ; ; - ; ; ; ; ; ; ; ; ; ; ; ; ; ; ; ; ; ; y.I.I.I.I.I.I.J.; ; ; ; ; ; D I.I.I.    ",
"      I.I.P.= ; = = = = t I.I.I.I.I.I.y.= = = = = = ; = = = = = = = = = = ; ; = = = = = t I.I.I.I.I.I.D = = = = = = M.I.I.I.    ",
"      I.I.I.D * = = = = * 0.I.I.I.I.I.P.r = = = = = * = = = = = = = = = * = = = = = = = = J.I.I.I.I.M.= = = = = = t I.I.I.      ",
"      I.I.I.J.* * * * * * 8 J.I.I.I.I.I.J.N * * * * * * * * * * * * * * * * * * * * * * * M.I.I.I.P.b * * * * * * t.I.I.I.      ",
"        I.I.I.Z * * * 4 * * b I.I.I.I.I.I.I.I.I.I.I.I.I.I.I.I.I.I.I.I.I.I.I.I.I.I.I.I.I.I.I.I.I.I.Z * * * * * 4 b I.I.I.        ",
"        I.I.I.J.= 4 4 4 2 4 4 Z I.I.I.I.I.I.I.I.I.I.I.I.I.I.I.I.I.I.I.I.I.I.I.I.I.I.I.I.I.I.I.I.t.4 2 4 4 4 4 2 y.I.I.I.        ",
"          I.I.I.5.2 2 2 2 2 2 2 Z I.I.I.I.I.I.I.I.I.I.I.I.I.I.I.I.I.I.I.I.I.I.I.I.I.I.I.I.I.I.t.2 2 2 2 2 2 2 B I.I.I.          ",
"          I.I.I.I.m 1 1 1 1 1 1 1 V I.I.I.I.I.I.I.I.I.I.I.I.I.I.I.I.I.I.I.I.I.I.I.I.I.I.I.I.t.1 1 1 1 1 1 1 5 P.I.I.I.          ",
"            I.I.I.P.5 1 1 1 1 1 1 1 0 P.I.I.I.I.I.I.I.I.I.I.I.I.I.I.I.I.I.I.I.I.I.I.I.I.K.V 1 1 1 1 1 1 1 1 N.I.I.I.            ",
"              I.I.I.Z.2 1 > > 3 3 > 3 2 i.I.I.I.I.I.I.I.I.I.I.I.I.I.I.I.I.I.I.I.I.I.I.N.0 > > 3 > > > > 1 r.I.I.I.I.            ",
"              I.I.I.I.r.< > < > < > > 3 > n N.I.I.I.I.I.I.I.I.I.I.I.I.I.I.I.I.I.I.J.F > > < > < > > > > G I.I.I.I.              ",
"                I.I.I.I.e.< < < 3 < < < < < < c e.K.I.I.I.I.I.I.I.I.I.I.I.I.I.i.F < < < < < < < < < < G I.I.I.I.                ",
"                  I.I.I.I.Z.3 < , < , , < , < < , < v 4.N.A.I.I.I.I.K.N.6.v 3 < , < < , < , , < < , e.I.I.I.I.                  ",
"                    I.I.I.I.A.7 , , , , , , , , , , , , , , , , , , , , , , , , , , , , , , , , > p.I.I.I.I.                    ",
"                      I.I.I.I.I.G , , , , , , , , , , , , , , , , , , , , , , , , , , , , , , v K.I.I.I.I.                      ",
"                        I.I.I.I.I.B.c , , , , , , , , , , , , , , , , , , , , , , , , , , 6 p.I.I.I.I.I.                        ",
"                            I.I.I.I.I.p.0 , , < , , , , , , , , , , , , , , , , , < , 6 7.I.I.I.I.I.I.                          ",
"                              I.I.I.I.I.I.B.G 3 , , , , , , , , , , , , , , , , 3 M p.I.I.I.I.I.I.                              ",
"                                  I.I.I.I.I.I.I.B.6.v 6 , , , , , , , , 6 c G p.I.I.I.I.I.I.I.                                  ",
"                                      I.I.I.I.I.I.I.I.I.I.K.N.p.p.p.A.I.I.I.I.I.I.I.I.I.I.                                      ",
"                                          I.I.I.I.I.I.I.I.I.I.I.I.I.I.I.I.I.I.I.I.I.I.                                          ",
"                                                I.I.I.I.I.I.I.I.I.I.I.I.I.I.I.I.                                                ",
"                                                              I.I.                                                              "
};
