<?xml version="1.0" encoding="utf-8"?>
<!-- Generator: Adobe Illustrator 27.3.1, SVG Export Plug-In . SVG Version: 6.00 Build 0)  -->
<!DOCTYPE svg PUBLIC "-//W3C//DTD SVG 1.1//EN" "http://www.w3.org/Graphics/SVG/1.1/DTD/svg11.dtd" [
	<!ENTITY ns_extend "http://ns.adobe.com/Extensibility/1.0/">
	<!ENTITY ns_ai "http://ns.adobe.com/AdobeIllustrator/10.0/">
	<!ENTITY ns_graphs "http://ns.adobe.com/Graphs/1.0/">
	<!ENTITY ns_vars "http://ns.adobe.com/Variables/1.0/">
	<!ENTITY ns_imrep "http://ns.adobe.com/ImageReplacement/1.0/">
	<!ENTITY ns_sfw "http://ns.adobe.com/SaveForWeb/1.0/">
	<!ENTITY ns_custom "http://ns.adobe.com/GenericCustomNamespace/1.0/">
	<!ENTITY ns_adobe_xpath "http://ns.adobe.com/XPath/1.0/">
]>
<svg version="1.1" id="ic_piv" xmlns:x="&ns_extend;" xmlns:i="&ns_ai;" xmlns:graph="&ns_graphs;"
	 xmlns="http://www.w3.org/2000/svg" xmlns:xlink="http://www.w3.org/1999/xlink" x="0px" y="0px" width="24px" height="24px"
	 viewBox="0 0 24 24" style="enable-background:new 0 0 24 24;" xml:space="preserve">
<style type="text/css">
	.st0{fill:none;}
	.st1{fill:#8778DC;}
</style>
<metadata>
	<sfw  xmlns="&ns_sfw;">
		<slices></slices>
		<sliceSourceBounds  bottomLeftOrigin="true" height="24" width="24" x="0" y="0"></sliceSourceBounds>
		<optimizationSettings>
			<targetSettings  fileFormat="PNG24Format" targetSettingsID="0">
				<PNG24Format  filtered="false" interlaced="true" matteColor="#FFFFFF" noMatteColor="true" transparency="true"></PNG24Format>
			</targetSettings>
		</optimizationSettings>
	</sfw>
</metadata>
<path id="Rectangle_4543" class="st0" d="M0,0h24v24H0V0z"/>
<g id="ZENZO_Icon__x28_2023_x29__00000111898753658281945370000009593638927034432911_">
	<g>
		<path class="st1" d="M12,1.9C6.5,1.9,2,6.5,2,12c0,5.5,4.5,10,10,10c5.5,0,10-4.5,10-10C22,6.5,17.5,1.9,12,1.9z M12,19.9
			c-4.4,0-7.9-3.6-7.9-7.9c0-4.4,3.6-7.9,7.9-7.9c4.4,0,7.9,3.6,7.9,7.9C19.9,16.4,16.4,19.9,12,19.9z"/>
	</g>
	<path class="st1" d="M12,10.4L12,10.4c-0.9,0-1.6,0.7-1.6,1.6c0,0.9,0.7,1.6,1.6,1.6l0,0c0.9,0,1.6-0.7,1.6-1.6
		C13.6,11.1,12.9,10.4,12,10.4z"/>
	<path class="st1" d="M15.3,7.4l-8,0c0,1.3,1.1,2.4,2.3,2.4l0.3,0C10.5,9.3,11.2,9,12,9h0c1.2,0,2.3,0.8,2.8,1.8L16,9.6
		c0.1-0.1,0.2-0.2,0.3-0.4c0.1-0.2,0.2-0.4,0.2-0.6C16.5,8,16,7.4,15.3,7.4z"/>
	<path class="st1" d="M8.7,16.6l8,0c0-1.3-1.1-2.4-2.3-2.4l-0.3,0c-0.5,0.5-1.2,0.8-2,0.8h0c-1.2,0-2.3-0.8-2.8-1.8L8,14.4
		c-0.1,0.1-0.2,0.2-0.3,0.4c-0.1,0.2-0.2,0.4-0.2,0.6C7.5,16,8,16.6,8.7,16.6z"/>
</g>
</svg>
