<?xml version="1.0" encoding="utf-8"?>
<!-- Generator: Adobe Illustrator 27.3.1, SVG Export Plug-In . SVG Version: 6.00 Build 0)  -->
<!DOCTYPE svg PUBLIC "-//W3C//DTD SVG 1.1//EN" "http://www.w3.org/Graphics/SVG/1.1/DTD/svg11.dtd" [
	<!ENTITY ns_extend "http://ns.adobe.com/Extensibility/1.0/">
	<!ENTITY ns_ai "http://ns.adobe.com/AdobeIllustrator/10.0/">
	<!ENTITY ns_graphs "http://ns.adobe.com/Graphs/1.0/">
	<!ENTITY ns_vars "http://ns.adobe.com/Variables/1.0/">
	<!ENTITY ns_imrep "http://ns.adobe.com/ImageReplacement/1.0/">
	<!ENTITY ns_sfw "http://ns.adobe.com/SaveForWeb/1.0/">
	<!ENTITY ns_custom "http://ns.adobe.com/GenericCustomNamespace/1.0/">
	<!ENTITY ns_adobe_xpath "http://ns.adobe.com/XPath/1.0/">
]>
<svg version="1.1" id="ic_piv" xmlns:x="&ns_extend;" xmlns:i="&ns_ai;" xmlns:graph="&ns_graphs;"
	 xmlns="http://www.w3.org/2000/svg" xmlns:xlink="http://www.w3.org/1999/xlink" x="0px" y="0px" width="150px" height="150px"
	 viewBox="0 0 150 150" style="enable-background:new 0 0 150 150;" xml:space="preserve">
<style type="text/css">
	.st0{fill:none;}
	.st1{fill:#8778DC;}
</style>
<metadata>
	<sfw  xmlns="&ns_sfw;">
		<slices></slices>
		<sliceSourceBounds  bottomLeftOrigin="true" height="118.4" width="117.8" x="-46.9" y="-47.2"></sliceSourceBounds>
		<optimizationSettings>
			<targetSettings  fileFormat="PNG24Format" targetSettingsID="0">
				<PNG24Format  filtered="false" interlaced="true" matteColor="#FFFFFF" noMatteColor="true" transparency="true"></PNG24Format>
			</targetSettings>
		</optimizationSettings>
	</sfw>
</metadata>
<path id="Rectangle_4543" class="st0" d="M63,63h24v24H63V63z"/>
<g id="ZENZO_Icon__x28_2023_x29__00000111898753658281945370000009593638927034432911_">
	<g>
		<path class="st1" d="M75,15.8c-32.4,0-58.9,27.1-58.9,59.5s26.5,58.9,58.9,58.9s58.9-26.5,58.9-58.9S107.4,15.8,75,15.8z
			 M75,121.8c-25.9,0-46.5-21.2-46.5-46.5c0-25.9,21.2-46.5,46.5-46.5c25.9,0,46.5,21.2,46.5,46.5C121.5,101.2,100.9,121.8,75,121.8
			z"/>
	</g>
	<path class="st1" d="M75,65.9L75,65.9c-5.3,0-9.4,4.1-9.4,9.4s4.1,9.4,9.4,9.4l0,0c5.3,0,9.4-4.1,9.4-9.4
		C84.4,70,80.3,65.9,75,65.9z"/>
	<path class="st1" d="M94.4,48.2H47.3c0,7.7,6.5,14.1,13.6,14.1h1.8c3.5-2.9,7.7-4.7,12.4-4.7l0,0c7.1,0,13.6,4.7,16.5,10.6l7.1-7.1
		c0.6-0.6,1.2-1.2,1.8-2.4c0.6-1.2,1.2-2.4,1.2-3.5C101.5,51.7,98.6,48.2,94.4,48.2z"/>
	<path class="st1" d="M55.6,102.4h47.1c0-7.7-6.5-14.1-13.6-14.1h-1.8c-2.9,2.9-7.1,4.7-11.8,4.7l0,0c-7.1,0-13.6-4.7-16.5-10.6
		l-7.7,7.1c-0.6,0.6-1.2,1.2-1.8,2.4c-0.6,1.2-1.2,2.4-1.2,3.5C48.5,98.9,51.4,102.4,55.6,102.4z"/>
</g>
</svg>
