<?xml version="1.0" encoding="utf-8"?>
<!-- Generator: Adobe Illustrator 26.5.3, SVG Export Plug-In . SVG Version: 6.00 Build 0)  -->
<!DOCTYPE svg PUBLIC "-//W3C//DTD SVG 1.1//EN" "http://www.w3.org/Graphics/SVG/1.1/DTD/svg11.dtd" [
	<!ENTITY ns_extend "http://ns.adobe.com/Extensibility/1.0/">
	<!ENTITY ns_ai "http://ns.adobe.com/AdobeIllustrator/10.0/">
	<!ENTITY ns_graphs "http://ns.adobe.com/Graphs/1.0/">
	<!ENTITY ns_vars "http://ns.adobe.com/Variables/1.0/">
	<!ENTITY ns_imrep "http://ns.adobe.com/ImageReplacement/1.0/">
	<!ENTITY ns_sfw "http://ns.adobe.com/SaveForWeb/1.0/">
	<!ENTITY ns_custom "http://ns.adobe.com/GenericCustomNamespace/1.0/">
	<!ENTITY ns_adobe_xpath "http://ns.adobe.com/XPath/1.0/">
]>
<svg version="1.1"
	 id="ic_error_sync" xmlns:x="&ns_extend;" xmlns:i="&ns_ai;" xmlns:graph="&ns_graphs;" shape-rendering="geometricPrecision"
	 xmlns="http://www.w3.org/2000/svg" xmlns:xlink="http://www.w3.org/1999/xlink" x="0px" y="0px" width="24px" height="24px"
	 viewBox="0 0 24 24" style="enable-background:new 0 0 24 24;" xml:space="preserve">
<style type="text/css">
	.st0{opacity:0.33;}
	.st1{fill:#FFFFFF;}
</style>
<metadata>
	<sfw  xmlns="&ns_sfw;">
		<slices></slices>
		<sliceSourceBounds  bottomLeftOrigin="true" height="18.8" width="19" x="2.5" y="2.6"></sliceSourceBounds>
	</sfw>
</metadata>
<g class="st0">
	<path class="st1" d="M4.8,3.2C4.6,3,4.2,2.9,3.8,2.9S3.1,3,2.9,3.2c-0.5,0.5-0.5,1.3,0,1.9l15.7,15.7c0.2,0.2,0.6,0.4,1,0.4
		c0.4,0,0.7-0.1,1-0.4c0.5-0.5,0.5-1.3,0-1.9L4.8,3.2z"/>
	<path class="st1" d="M20,12.3c-0.6,0-1.1,0.4-1.2,1c-0.1,0.5-0.2,0.8-0.3,1.2c-0.1,0.2-0.2,0.5-0.3,0.7L20,17
		c0.3-0.6,0.6-1.2,0.8-1.8c0.2-0.6,0.3-1.1,0.3-1.7C21.2,12.9,20.7,12.3,20,12.3z"/>
	<path class="st1" d="M14.2,18.6c-2.4,0.7-4.9,0-6.9-1.7c0,0-0.1-0.1-0.1-0.1L8,17.1c0.5,0.2,1.1-0.1,1.3-0.6c0-0.1,0.1-0.2,0.1-0.3
		c0-0.4-0.2-0.8-0.7-0.9c0,0-3.4-1.3-3.4-1.3c-0.5-0.2-1.1,0.1-1.3,0.6l-1.2,3.4c-0.2,0.5,0.1,1.1,0.6,1.3c0.1,0,0.2,0.1,0.3,0.1
		c0.4,0,0.8-0.2,0.9-0.7L4.8,18c0.3,0.3,0.6,0.5,0.6,0.5c2,1.9,4.4,2.9,6.9,2.9c0.9,0,1.8-0.1,2.6-0.4c0.6-0.2,1.1-0.4,1.7-0.7
		l-1.9-1.9C14.5,18.5,14.3,18.6,14.2,18.6z"/>
	<path class="st1" d="M5.4,10.7c0.1-0.5,0.2-0.8,0.3-1.2c0,0,0,0,0,0L3.8,7.6C3.6,8,3.5,8.3,3.3,8.7C3.1,9.3,3,9.9,3,10.5
		c0,0.6,0.5,1.2,1.2,1.2C4.8,11.7,5.3,11.3,5.4,10.7z"/>
	<path class="st1" d="M20.8,4.8c-0.1,0-0.2-0.1-0.3-0.1c-0.4,0-0.8,0.2-0.9,0.7L19.4,6c-0.3-0.3-0.6-0.5-0.6-0.5
		c-2-1.9-4.4-2.9-6.9-2.9c-0.9,0-1.8,0.1-2.6,0.4c-0.7,0.2-1.4,0.5-2,0.9C7.2,3.9,7.1,4,7,4l1.8,1.8C9,5.8,9.1,5.7,9.2,5.6
		C9.5,5.5,9.8,5.4,10,5.3c2.4-0.7,4.9-0.1,6.9,1.7C17,7.1,17,7.1,17,7.2l-0.8-0.3c-0.5-0.2-1.1,0.1-1.3,0.6c0,0.1-0.1,0.2-0.1,0.3
		c0,0.4,0.2,0.8,0.7,0.9c0,0,3.4,1.3,3.4,1.3c0.5,0.2,1.1-0.1,1.3-0.6l1.2-3.4C21.6,5.6,21.4,5,20.8,4.8z"/>
</g>
</svg>
