<?xml version="1.0" encoding="utf-8"?>
<!-- Generator: Adobe Illustrator 26.5.3, SVG Export Plug-In . SVG Version: 6.00 Build 0)  -->
<!DOCTYPE svg PUBLIC "-//W3C//DTD SVG 1.1//EN" "http://www.w3.org/Graphics/SVG/1.1/DTD/svg11.dtd" [
	<!ENTITY ns_extend "http://ns.adobe.com/Extensibility/1.0/">
	<!ENTITY ns_ai "http://ns.adobe.com/AdobeIllustrator/10.0/">
	<!ENTITY ns_graphs "http://ns.adobe.com/Graphs/1.0/">
	<!ENTITY ns_vars "http://ns.adobe.com/Variables/1.0/">
	<!ENTITY ns_imrep "http://ns.adobe.com/ImageReplacement/1.0/">
	<!ENTITY ns_sfw "http://ns.adobe.com/SaveForWeb/1.0/">
	<!ENTITY ns_custom "http://ns.adobe.com/GenericCustomNamespace/1.0/">
	<!ENTITY ns_adobe_xpath "http://ns.adobe.com/XPath/1.0/">
]>
<svg version="1.1"
	 id="ic_error_connection" xmlns:x="&ns_extend;" xmlns:i="&ns_ai;" xmlns:graph="&ns_graphs;" shape-rendering="geometricPrecision"
	 xmlns="http://www.w3.org/2000/svg" xmlns:xlink="http://www.w3.org/1999/xlink" x="0px" y="0px" width="24px" height="24px"
	 viewBox="0 0 24 24" style="enable-background:new 0 0 24 24;" xml:space="preserve">
<style type="text/css">
	.st0{fill:none;}
	.st1{opacity:0.33;}
	.st2{fill:#FFFFFF;}
</style>
<metadata>
	<sfw  xmlns="&ns_sfw;">
		<slices></slices>
		<sliceSourceBounds  bottomLeftOrigin="true" height="24" width="24" x="0" y="0"></sliceSourceBounds>
	</sfw>
</metadata>
<path id="Rectangle_4409" class="st0" d="M0,0h24v24H0V0z"/>
<g class="st1">
	<path class="st2" d="M12,16.9c-1.2,0-2.1,1-2.1,2.1c0,1.2,1,2.1,2.1,2.1c1.2,0,2.1-1,2.1-2.1S13.2,16.9,12,16.9z"/>
	<path class="st2" d="M14.8,13.7v2.2c0.2,0.2,0.4,0.4,0.5,0.6c0.3,0.4,0.9,0.4,1.3,0.1l0,0c0.3-0.3,0.3-0.8,0.1-1.2
		C16.2,14.7,15.5,14.1,14.8,13.7z"/>
	<path class="st2" d="M7.3,15.3C7,15.7,7,16.2,7.4,16.5c0.4,0.4,1,0.4,1.3-0.1C8.9,16.2,9,16,9.2,15.8v-2.1
		C8.5,14.1,7.8,14.6,7.3,15.3z"/>
	<path class="st2" d="M4.6,12.5c-0.3,0.4-0.3,0.9,0,1.2c0.4,0.4,1,0.3,1.3-0.1c0.9-1,2-1.9,3.3-2.3V9.5C7.4,10,5.8,11.1,4.6,12.5z"
		/>
	<path class="st2" d="M14.8,9.5v1.9c1.3,0.5,2.4,1.3,3.3,2.4c0.3,0.4,0.9,0.4,1.3,0.1l0,0c0.3-0.3,0.3-0.9,0-1.2
		C18.2,11.1,16.6,10,14.8,9.5z"/>
	<path class="st2" d="M22.2,9.8c-1.9-2.2-4.5-3.8-7.5-4.5v1.8c2.4,0.6,4.5,1.9,6.1,3.8c0.3,0.4,0.9,0.4,1.3,0
		C22.5,10.7,22.5,10.2,22.2,9.8z"/>
	<path class="st2" d="M1.8,9.8c-0.3,0.3-0.3,0.9,0.1,1.2l0,0c0.4,0.4,1,0.3,1.3,0c1.6-1.8,3.7-3.2,6.1-3.8V5.3
		C6.3,6,3.7,7.5,1.8,9.8z"/>
	<path class="st2" d="M13.2,15v-1.8V11V9.1V6.9V5.1V4c0-0.7-0.5-1.2-1.2-1.2S10.8,3.3,10.8,4v1.2V7v2.2V11v2.2V15
		c0.4-0.1,0.8-0.2,1.2-0.2S12.8,14.8,13.2,15z"/>
</g>
</svg>
