<?xml version="1.0" encoding="utf-8"?>
<!-- Generator: Adobe Illustrator 26.5.3, SVG Export Plug-In . SVG Version: 6.00 Build 0)  -->
<!DOCTYPE svg PUBLIC "-//W3C//DTD SVG 1.1//EN" "http://www.w3.org/Graphics/SVG/1.1/DTD/svg11.dtd" [
	<!ENTITY ns_extend "http://ns.adobe.com/Extensibility/1.0/">
	<!ENTITY ns_ai "http://ns.adobe.com/AdobeIllustrator/10.0/">
	<!ENTITY ns_graphs "http://ns.adobe.com/Graphs/1.0/">
	<!ENTITY ns_vars "http://ns.adobe.com/Variables/1.0/">
	<!ENTITY ns_imrep "http://ns.adobe.com/ImageReplacement/1.0/">
	<!ENTITY ns_sfw "http://ns.adobe.com/SaveForWeb/1.0/">
	<!ENTITY ns_custom "http://ns.adobe.com/GenericCustomNamespace/1.0/">
	<!ENTITY ns_adobe_xpath "http://ns.adobe.com/XPath/1.0/">
]>
<svg version="1.1" id="ic-transaction-received" xmlns:x="&ns_extend;" xmlns:i="&ns_ai;" xmlns:graph="&ns_graphs;"
	 xmlns="http://www.w3.org/2000/svg" xmlns:xlink="http://www.w3.org/1999/xlink" x="0px" y="0px" width="24px" height="24px"
	 viewBox="0 0 24 24" style="enable-background:new 0 0 24 24;" xml:space="preserve">
<style type="text/css">
	.st0{opacity:0.33;}
	.st1{opacity:0.57;}
	.st2{fill:url(#SVGID_1_);}
	.st3{fill:url(#SVGID_00000053516823407446416700000018011869606059345335_);}
	.st4{fill:#707070;}
</style>
<metadata>
	<sfw  xmlns="&ns_sfw;">
		<slices></slices>
		<sliceSourceBounds  bottomLeftOrigin="true" height="20.1" width="23" x="0.5" y="1.9"></sliceSourceBounds>
	</sfw>
</metadata>
<g class="st0">
	<g class="st1">
		
			<linearGradient id="SVGID_1_" gradientUnits="userSpaceOnUse" x1="12.02" y1="40.3054" x2="12.02" y2="57.7789" gradientTransform="matrix(1 0 0 1 0 -34)">
			<stop  offset="1.040000e-02" style="stop-color:#B6B6B6;stop-opacity:0"/>
			<stop  offset="0.513" style="stop-color:#707070"/>
		</linearGradient>
		<path class="st2" d="M18.5,2.4l-2.4,4.1c0.9,1,1.5,2.3,1.5,3.7c0,3.1-2.5,5.6-5.6,5.6s-5.6-2.5-5.6-5.6c0-1.4,0.6-2.8,1.4-3.7
			L5.5,2.4L1,5l8.7,15.1c0.5,1,1.5,1.6,2.6,1.5c1.3-0.1,1.9-1.1,2.5-2.1c0.3-0.5,0.6-1.1,0.9-1.6c1-1.7,2-3.4,2.9-5.1
			c1-1.7,2-3.5,3-5.2c0.5-0.8,1-1.7,1.5-2.6L18.5,2.4z"/>
		
			<linearGradient id="SVGID_00000070086774574483370950000011149211826015462022_" gradientUnits="userSpaceOnUse" x1="-31.7022" y1="40.3054" x2="-31.7022" y2="57.7789" gradientTransform="matrix(1 0 0 1 43.7172 -1372.8939)">
			<stop  offset="1.040000e-02" style="stop-color:#B6B6B6;stop-opacity:0"/>
			<stop  offset="0.513" style="stop-color:#707070"/>
		</linearGradient>
		<path style="fill:url(#SVGID_00000070086774574483370950000011149211826015462022_);" d="M12,6.5c-2.1,0-3.8,1.7-3.8,3.8
			s1.7,3.8,3.8,3.8c2.1,0,3.8-1.7,3.8-3.8S14.1,6.5,12,6.5z"/>
	</g>
	<g>
		<g>
			<g>
				<path class="st4" d="M12,22.1c-0.1,0-0.3,0-0.4,0c-0.9-0.1-1.8-0.7-2.2-1.5c0,0-0.1-0.1-0.1-0.2L0.6,5.2C0.4,5,0.5,4.7,0.7,4.6
					L5.2,2c0.1-0.1,0.2-0.1,0.4,0c0.1,0,0.2,0.1,0.3,0.2l2.4,4.1c0.1,0.2,0.1,0.4-0.1,0.6C7.4,7.8,6.9,9,6.9,10.3
					c0,2.8,2.3,5.1,5.1,5.1c2.8,0,5.1-2.3,5.1-5.1c0-1.3-0.5-2.5-1.3-3.4c-0.1-0.2-0.2-0.4-0.1-0.6l2.4-4.1c0.1-0.1,0.2-0.2,0.3-0.2
					c0.1,0,0.3,0,0.4,0l4.5,2.6c0.2,0.1,0.3,0.4,0.2,0.7l-8.7,15.1c-0.1,0.1-0.1,0.2-0.1,0.2C14.1,21.5,13.1,22.1,12,22.1z
					 M12.9,20.9c0.6-0.3,1-1,1.4-1.7c0.3-0.5,0.6-1.1,1-1.7c1-1.7,2-3.4,2.9-5.1c1-1.7,2-3.4,2.9-5.1c0.4-0.7,0.9-1.5,1.3-2.2
					l-3.6-2.1l-2,3.4c0.9,1.1,1.3,2.4,1.3,3.8c0,3.4-2.7,6.1-6.1,6.1S6,13.7,6,10.3c0-1.4,0.5-2.7,1.3-3.8l-2-3.4L1.6,5.2
					C2.1,6,2.6,6.8,3,7.6c1,1.7,2,3.5,3,5.2c1,1.7,1.9,3.4,2.9,5c0.3,0.5,0.6,1,0.8,1.4c0.5,0.9,1,1.8,2.2,1.8
					C12.3,21.1,12.6,21,12.9,20.9z"/>
			</g>
		</g>
		<g>
			<path class="st4" d="M12,14.6c-2.3,0-4.2-1.9-4.2-4.2S9.7,6.1,12,6.1s4.2,1.9,4.2,4.2S14.4,14.6,12,14.6z M12,7
				c-1.8,0-3.3,1.5-3.3,3.3s1.5,3.3,3.3,3.3s3.3-1.5,3.3-3.3S13.8,7,12,7z"/>
		</g>
	</g>
</g>
</svg>
