<?xml version="1.0" encoding="utf-8"?>
<!-- Generator: Adobe Illustrator 26.5.3, SVG Export Plug-In . SVG Version: 6.00 Build 0)  -->
<!DOCTYPE svg PUBLIC "-//W3C//DTD SVG 1.1//EN" "http://www.w3.org/Graphics/SVG/1.1/DTD/svg11.dtd" [
	<!ENTITY ns_extend "http://ns.adobe.com/Extensibility/1.0/">
	<!ENTITY ns_ai "http://ns.adobe.com/AdobeIllustrator/10.0/">
	<!ENTITY ns_graphs "http://ns.adobe.com/Graphs/1.0/">
	<!ENTITY ns_vars "http://ns.adobe.com/Variables/1.0/">
	<!ENTITY ns_imrep "http://ns.adobe.com/ImageReplacement/1.0/">
	<!ENTITY ns_sfw "http://ns.adobe.com/SaveForWeb/1.0/">
	<!ENTITY ns_custom "http://ns.adobe.com/GenericCustomNamespace/1.0/">
	<!ENTITY ns_adobe_xpath "http://ns.adobe.com/XPath/1.0/">
]>
<svg version="1.1" id="ic-transaction-sent" xmlns:x="&ns_extend;" xmlns:i="&ns_ai;" xmlns:graph="&ns_graphs;"
	 xmlns="http://www.w3.org/2000/svg" xmlns:xlink="http://www.w3.org/1999/xlink" x="0px" y="0px" width="24px" height="24px"
	 viewBox="0 0 24 24" style="enable-background:new 0 0 24 24;" xml:space="preserve">
<style type="text/css">
	.st0{opacity:0.33;}
	.st1{opacity:0.57;}
	.st2{fill:url(#SVGID_1_);}
	.st3{fill:url(#SVGID_00000180355061224341439470000009840026263894807996_);}
	.st4{fill:#707070;}
</style>
<metadata>
	<sfw  xmlns="&ns_sfw;">
		<slices></slices>
		<sliceSourceBounds  bottomLeftOrigin="true" height="21.2" width="21.3" x="1.4" y="1.4"></sliceSourceBounds>
	</sfw>
</metadata>
<g class="st0">
	<g class="st1">
		
			<linearGradient id="SVGID_1_" gradientUnits="userSpaceOnUse" x1="-38.2961" y1="27.4398" x2="-38.2961" y2="9.9663" gradientTransform="matrix(-0.7071 -0.7071 -0.7071 0.7071 2.8232 -33.1316)">
			<stop  offset="1.040000e-02" style="stop-color:#B6B6B6;stop-opacity:0"/>
			<stop  offset="0.513" style="stop-color:#707070"/>
		</linearGradient>
		<path class="st2" d="M3.2,11.6l4.6-1.2C7.9,9,8.4,7.7,9.4,6.6c2.2-2.2,5.7-2.2,7.9,0s2.2,5.7,0,7.9c-1,1-2.3,1.6-3.7,1.6l-1.2,4.6
			l5,1.3L22,5.4c0.3-1,0.1-2.2-0.8-2.9c-1-0.8-2.1-0.6-3.2-0.3c-0.6,0.2-1.2,0.3-1.8,0.5c-1.9,0.5-3.8,1-5.7,1.5
			c-2,0.5-3.9,1-5.8,1.6C3.7,6,2.8,6.3,1.8,6.5L3.2,11.6z"/>
		
			<linearGradient id="SVGID_00000077325639214769140440000005894393246106748350_" gradientUnits="userSpaceOnUse" x1="-82.1198" y1="27.4398" x2="-82.1198" y2="9.9663" gradientTransform="matrix(-0.7071 -0.7071 -0.7071 0.7071 -974.8305 882.6966)">
			<stop  offset="1.040000e-02" style="stop-color:#B6B6B6;stop-opacity:0"/>
			<stop  offset="0.513" style="stop-color:#B6B6B6"/>
		</linearGradient>
		<path style="fill:url(#SVGID_00000077325639214769140440000005894393246106748350_);" d="M10.7,13.3c1.5,1.5,3.9,1.5,5.3,0
			s1.5-3.9,0-5.3c-1.5-1.5-3.9-1.5-5.3,0S9.3,11.8,10.7,13.3z"/>
	</g>
	<g>
		<g>
			<g>
				<path class="st4" d="M21.7,2.3c0.1,0.1,0.2,0.2,0.3,0.3c0.6,0.8,0.8,1.7,0.5,2.7c0,0.1,0,0.1-0.1,0.2l-4.5,16.8
					c-0.1,0.2-0.3,0.4-0.6,0.3l-5-1.3c-0.1,0-0.2-0.1-0.3-0.2s-0.1-0.2,0-0.4l1.2-4.6c0.1-0.2,0.2-0.4,0.4-0.4
					c1.3-0.1,2.4-0.6,3.3-1.5c2-2,2-5.2,0-7.2s-5.2-2-7.2,0c-0.9,0.9-1.4,2.1-1.5,3.3c0,0.2-0.1,0.4-0.4,0.4L3.3,12
					c-0.1,0-0.2,0-0.4,0c-0.1-0.1-0.2-0.2-0.2-0.3l-1.3-5C1.3,6.4,1.5,6.2,1.7,6.1l16.8-4.5c0.1,0,0.2-0.1,0.2-0.1
					C19.8,1.2,20.9,1.5,21.7,2.3z M20.3,2.5c-0.7-0.2-1.4,0-2.2,0.2c-0.6,0.2-1.2,0.3-1.9,0.5c-1.9,0.5-3.8,1-5.7,1.5
					s-3.8,1-5.7,1.5C4.1,6.4,3.3,6.6,2.5,6.9L3.6,11l3.8-1c0.1-1.4,0.8-2.6,1.7-3.6c2.4-2.4,6.2-2.4,8.6,0s2.4,6.2,0,8.6
					c-1,1-2.3,1.6-3.6,1.7l-1,3.8l4.1,1.1c0.2-0.9,0.5-1.8,0.7-2.7c0.5-1.9,1-3.9,1.6-5.8c0.5-1.9,1-3.8,1.5-5.6
					c0.1-0.5,0.3-1.1,0.4-1.6c0.3-1,0.5-2-0.3-2.9C20.8,2.8,20.5,2.6,20.3,2.5z"/>
			</g>
		</g>
		<g>
			<path class="st4" d="M16.4,7.6c1.6,1.6,1.6,4.4,0,6s-4.4,1.6-6,0s-1.6-4.4,0-6S14.8,5.9,16.4,7.6z M11.1,12.9
				c1.3,1.3,3.4,1.3,4.6,0s1.3-3.4,0-4.6s-3.4-1.3-4.6,0S9.8,11.6,11.1,12.9z"/>
		</g>
	</g>
</g>
</svg>
