<?xml version="1.0" encoding="utf-8"?>
<!-- Generator: Adobe Illustrator 26.5.3, SVG Export Plug-In . SVG Version: 6.00 Build 0)  -->
<!DOCTYPE svg PUBLIC "-//W3C//DTD SVG 1.1//EN" "http://www.w3.org/Graphics/SVG/1.1/DTD/svg11.dtd" [
	<!ENTITY ns_extend "http://ns.adobe.com/Extensibility/1.0/">
	<!ENTITY ns_ai "http://ns.adobe.com/AdobeIllustrator/10.0/">
	<!ENTITY ns_graphs "http://ns.adobe.com/Graphs/1.0/">
	<!ENTITY ns_vars "http://ns.adobe.com/Variables/1.0/">
	<!ENTITY ns_imrep "http://ns.adobe.com/ImageReplacement/1.0/">
	<!ENTITY ns_sfw "http://ns.adobe.com/SaveForWeb/1.0/">
	<!ENTITY ns_custom "http://ns.adobe.com/GenericCustomNamespace/1.0/">
	<!ENTITY ns_adobe_xpath "http://ns.adobe.com/XPath/1.0/">
]>
<svg version="1.1" id="ic-transaction-staked" xmlns:x="&ns_extend;" xmlns:i="&ns_ai;" xmlns:graph="&ns_graphs;"
	 xmlns="http://www.w3.org/2000/svg" xmlns:xlink="http://www.w3.org/1999/xlink" x="0px" y="0px" width="24px" height="24px"
	 viewBox="0 0 24 24" style="enable-background:new 0 0 24 24;" xml:space="preserve">
<style type="text/css">
	.st0{opacity:0.33;}
	.st1{fill-rule:evenodd;clip-rule:evenodd;fill:#707070;}
	.st2{fill:#707070;}
</style>
<metadata>
	<sfw  xmlns="&ns_sfw;">
		<slices></slices>
		<sliceSourceBounds  bottomLeftOrigin="true" height="19.5" width="23.6" x="0.2" y="2.3"></sliceSourceBounds>
	</sfw>
</metadata>
<g class="st0">
	<path class="st1" d="M23.8,11.6c-0.9-2.1-2.8-4.5-4.5-6.1C18,4.3,16.4,3.3,15,2.3c-0.1-0.1-0.3,0-0.3,0.2l0.4,1.3
		c0,0,0,0.1,0.1,0.1c0.3,0.2,0.5,0.4,0.9,0.6c0.3,0.2,0.7,0.5,0.9,0.8c0.4,0.4,0.6,1,0.3,1.6c-0.5,0.9-1.4,1.8-2.1,2.6
		c-1,1.1-2.1,2.2-3.1,3.3c-1.1-1.1-2.1-2.1-3.1-3.3C8.2,8.6,7.2,7.8,6.8,6.9C6.5,6.3,6.6,5.7,7.1,5.3C7.3,5,7.7,4.7,8,4.5
		c0.3-0.2,0.5-0.4,0.9-0.6c0,0,0.1-0.1,0.1-0.1l0.4-1.3c0-0.2-0.1-0.3-0.3-0.2c-1.4,1-3,2-4.3,3.2c-1.7,1.6-3.6,4-4.5,6.1
		c-0.1,0.2,0.4-0.3,0.5-0.5c1-1.3,2.7-3.3,3.3-3.2c0.8,0,1.4,0.7,2,1.2c1.7,1.5,3.2,3.1,4.7,4.7c-1,1-2.1,2-3.1,3.1
		c-1.1,1.1-2.2,2.2-3.3,3.3c-0.3,0.3-0.3,0.7,0,1c0.1,0.1,0.2,0.2,0.3,0.3c0.4,0.3,0.9,0.3,1.2,0c1.1-1.1,2.2-2.3,3.3-3.4
		c0.9-1,1.8-2,2.8-3c0.9,1,1.8,2,2.8,3c1.1,1.1,2.2,2.3,3.3,3.4c0.3,0.4,0.9,0.4,1.2,0c0.1-0.1,0.2-0.2,0.3-0.3c0.3-0.3,0.3-0.7,0-1
		c-1.1-1.1-2.2-2.2-3.3-3.3c-1-1-2.1-2-3.1-3.1c1.5-1.6,3.1-3.2,4.7-4.7c0.6-0.5,1.2-1.2,2-1.2c0.6,0,2.4,2,3.3,3.2
		C23.4,11.3,23.9,11.8,23.8,11.6z"/>
	<path class="st2" d="M14.9,6.7h-0.3l0.2-0.2c0.1-0.1,0.1-0.2,0-0.2s-0.2-0.1-0.2,0l-0.4,0.4h-0.6c0,0,0.4-0.4,0.4-0.4
		c0,0,0.1-0.1,0.1-0.2C14,6,14,5.9,13.9,5.9c0,0,0,0-0.1,0h-0.6l0.4-0.4h0.6c0.1,0,0.2-0.1,0.2-0.2s-0.1-0.2-0.2-0.2h-0.3l0.2-0.2
		c0.1-0.1,0.1-0.2,0-0.2s-0.2-0.1-0.2,0l-0.2,0.2V4.6c0-0.1-0.1-0.2-0.2-0.2s-0.2,0.1-0.2,0.2v0.6L13,5.6c0-0.2,0-0.3,0-0.5
		c0-0.1,0-0.1,0-0.2c-0.1-0.1-0.2-0.2-0.4-0.1l-0.4,0.4V4.7l0.4-0.4c0.1-0.1,0.1-0.2,0-0.2s-0.2-0.1-0.2,0l-0.2,0.2V3.9
		c0-0.1-0.1-0.2-0.2-0.2s-0.2,0.1-0.2,0.2v0.3l-0.2-0.2c-0.1-0.1-0.2-0.1-0.2,0s-0.1,0.2,0,0.2l0.4,0.4v0.6l-0.4-0.4
		c0,0-0.1-0.1-0.2-0.1C11.1,4.8,11,4.9,11,5v0.6l-0.4-0.4V4.6c0-0.1-0.1-0.2-0.2-0.2s-0.2,0.1-0.2,0.2v0.3L10,4.7
		c-0.1-0.1-0.2-0.1-0.2,0s-0.1,0.2,0,0.2l0.2,0.2H9.8c-0.1,0-0.2,0.1-0.2,0.2s0.1,0.2,0.2,0.2h0.6l0.4,0.4c0,0-0.5,0-0.6,0
		c0,0-0.1,0-0.1,0C10,5.9,10,6,10,6.1c0,0.1,0,0.1,0.1,0.2c0,0,0.1,0.1,0.1,0.1c0.1,0.1,0.3,0.3,0.3,0.3H9.9L9.5,6.3
		c-0.1-0.1-0.2-0.1-0.2,0s-0.1,0.2,0,0.2l0.2,0.2H9.1C9,6.7,8.9,6.8,8.9,6.8S9,7,9.1,7h0.3L9.2,7.2c-0.1,0.1-0.1,0.2,0,0.2
		c0,0,0.1,0,0.1,0s0.1,0,0.1,0L9.9,7h0.6c-0.1,0.1-0.2,0.2-0.3,0.3c0,0-0.1,0.1-0.1,0.1c0,0.1,0,0.1,0,0.2c0,0.1,0.1,0.1,0.1,0.1
		c0.1,0,0.1,0,0.2,0c0.1,0,0.2,0,0.3,0c0.1,0,0.1,0,0.2,0l-0.4,0.4H9.8c-0.1,0-0.2,0.1-0.2,0.2s0.1,0.2,0.2,0.2h0.3L9.8,8.8
		C9.8,8.9,9.8,9,9.8,9c0,0,0.1,0,0.1,0s0.1,0,0.1,0l0.2-0.2v0.3c0,0.1,0.1,0.2,0.2,0.2s0.2-0.1,0.2-0.2V8.4L11,8v0.6
		c0,0.1,0.1,0.2,0.2,0.2c0.1,0,0.2-0.1,0.2-0.1s0.1-0.1,0.2-0.2c0,0,0.1-0.1,0.1-0.1c0,0,0,0,0,0v0.6l-0.4,0.4
		c-0.1,0.1-0.1,0.2,0,0.2c0,0,0.1,0,0.1,0s0.1,0,0.1,0l0.2-0.2v0.3c0,0.1,0.1,0.2,0.2,0.2s0.2-0.1,0.2-0.2V9.4l0.2,0.2
		c0,0,0.1,0,0.1,0s0.1,0,0.1,0c0.1-0.1,0.1-0.2,0-0.2l-0.4-0.4V8.4c0.1,0.1,0.2,0.2,0.3,0.3c0.1,0.1,0.1,0.2,0.3,0.2
		c0.1,0,0.2-0.1,0.2-0.2c0-0.1,0-0.2,0-0.2c0-0.1,0-0.2,0-0.3l0.4,0.4V9c0,0.1,0.1,0.2,0.2,0.2s0.2-0.1,0.2-0.2V8.8L14,9
		c0,0,0.1,0,0.1,0s0.1,0,0.1,0c0.1-0.1,0.1-0.2,0-0.2l-0.2-0.2h0.3c0.1,0,0.2-0.1,0.2-0.2s-0.1-0.2-0.2-0.2h-0.6l-0.4-0.4
		c0.2,0,0.3,0,0.5,0c0.1,0,0.1,0,0.2,0c0,0,0,0,0.1,0C14,7.7,14.1,7.5,14,7.4L13.5,7h0.6l0.4,0.4c0,0,0.1,0,0.1,0s0.1,0,0.1,0
		c0.1-0.1,0.1-0.2,0-0.2L14.6,7h0.3c0.1,0,0.2-0.1,0.2-0.2S15,6.7,14.9,6.7z M12.2,5.8l0.5-0.5V6l-0.3,0.3c0,0-0.1,0-0.2-0.1V5.8z
		 M11.3,5.3l0.5,0.5v0.5c-0.1,0-0.1,0-0.2,0.1L11.3,6V5.3z M10.4,6.2h0.7l0.3,0.3c0,0,0,0.1-0.1,0.2h-0.5L10.4,6.2z M11.1,7.5h-0.7
		L10.9,7h0.5c0,0.1,0,0.1,0.1,0.2L11.1,7.5z M11.8,7.9l-0.5,0.5V7.7l0.3-0.3c0,0,0.1,0,0.2,0.1V7.9z M12,7.1c-0.2,0-0.3-0.1-0.3-0.3
		s0.1-0.3,0.3-0.3s0.3,0.1,0.3,0.3S12.2,7.1,12,7.1z M12.7,8.4l-0.5-0.5V7.4c0.1,0,0.1,0,0.2-0.1l0.3,0.3V8.4z M13.6,7.5h-0.7
		l-0.3-0.3c0,0,0-0.1,0.1-0.2h0.5L13.6,7.5z M13.1,6.7h-0.5c0-0.1,0-0.1-0.1-0.2l0.3-0.3h0.7L13.1,6.7z"/>
</g>
</svg>
