<?xml version="1.0" encoding="utf-8"?>
<!-- Generator: Adobe Illustrator 26.5.3, SVG Export Plug-In . SVG Version: 6.00 Build 0)  -->
<!DOCTYPE svg PUBLIC "-//W3C//DTD SVG 1.1//EN" "http://www.w3.org/Graphics/SVG/1.1/DTD/svg11.dtd" [
	<!ENTITY ns_extend "http://ns.adobe.com/Extensibility/1.0/">
	<!ENTITY ns_ai "http://ns.adobe.com/AdobeIllustrator/10.0/">
	<!ENTITY ns_graphs "http://ns.adobe.com/Graphs/1.0/">
	<!ENTITY ns_vars "http://ns.adobe.com/Variables/1.0/">
	<!ENTITY ns_imrep "http://ns.adobe.com/ImageReplacement/1.0/">
	<!ENTITY ns_sfw "http://ns.adobe.com/SaveForWeb/1.0/">
	<!ENTITY ns_custom "http://ns.adobe.com/GenericCustomNamespace/1.0/">
	<!ENTITY ns_adobe_xpath "http://ns.adobe.com/XPath/1.0/">
]>
<svg version="1.1" id="ic-transaction-mint" xmlns:x="&ns_extend;" xmlns:i="&ns_ai;" xmlns:graph="&ns_graphs;"
	 xmlns="http://www.w3.org/2000/svg" xmlns:xlink="http://www.w3.org/1999/xlink" x="0px" y="0px" width="24px" height="24px"
	 viewBox="0 0 24 24" style="enable-background:new 0 0 24 24;" xml:space="preserve">
<style type="text/css">
	.st0{opacity:0.33;}
	.st1{fill:#707070;}
</style>
<metadata>
	<sfw  xmlns="&ns_sfw;">
		<slices></slices>
		<sliceSourceBounds  bottomLeftOrigin="true" height="19.7" width="19.8" x="2.1" y="2.1"></sliceSourceBounds>
	</sfw>
</metadata>
<g class="st0">
	<path class="st1" d="M16.3,12c0-2.4-2-4.4-4.4-4.4S7.4,9.5,7.4,12s2,4.4,4.4,4.4S16.3,14.4,16.3,12z M9.5,12c0-1.3,1.1-2.3,2.3-2.3
		s2.3,1,2.3,2.3s-1.1,2.3-2.3,2.3S9.5,13.3,9.5,12z"/>
	<path class="st1" d="M20.3,12.3c-0.6,0-1.1,0.4-1.2,1c-0.1,0.5-0.2,0.9-0.3,1.3c-0.1,0.4-0.3,0.7-0.5,1.1c-0.4,0.7-0.8,1.2-1.4,1.8
		c-0.6,0.5-1.2,0.9-1.9,1.2c-0.3,0.1-0.5,0.2-0.8,0.3c-2.5,0.7-5.2,0-7.2-1.8c0,0-0.1-0.1-0.1-0.1l0.8,0.3c0.6,0.2,1.1-0.1,1.3-0.6
		c0-0.1,0.1-0.2,0.1-0.4c0-0.4-0.3-0.8-0.7-1c0,0-3.6-1.4-3.6-1.4c-0.6-0.2-1.1,0.1-1.3,0.6l-1.3,3.6c-0.2,0.5,0.1,1.1,0.6,1.3
		c0.1,0,0.2,0.1,0.3,0.1c0.4,0,0.8-0.3,1-0.7l0.2-0.6c0.3,0.3,0.6,0.6,0.6,0.6c2.1,2,4.6,3,7.2,3c0.9,0,1.9-0.1,2.8-0.4
		c0.7-0.2,1.4-0.5,2.1-0.9c0.6-0.4,1.2-0.8,1.8-1.4c0.5-0.5,1-1.1,1.4-1.7c0.4-0.6,0.7-1.3,1-2.1c0.2-0.6,0.3-1.2,0.3-1.8
		C21.5,13,21,12.3,20.3,12.3z"/>
	<path class="st1" d="M3.7,11.6c0.6,0,1.1-0.4,1.2-1c0.1-0.5,0.2-0.9,0.3-1.3C5.4,9,5.6,8.6,5.8,8.3C6.1,7.6,6.6,7,7.1,6.5
		S8.3,5.6,9,5.3C9.3,5.2,9.6,5.1,9.8,5C12.3,4.3,15,5,17.1,6.8c0,0.1,0.1,0.1,0.1,0.1l-0.8-0.3c-0.6-0.2-1.1,0.1-1.3,0.6
		c0,0.1-0.1,0.2-0.1,0.3c0,0.4,0.3,0.8,0.7,1c0,0,3.6,1.4,3.6,1.4c0.5,0.2,1.1-0.1,1.3-0.6l1.3-3.6c0.2-0.6-0.1-1.1-0.6-1.3
		c-0.1,0-0.2-0.1-0.4-0.1c-0.4,0-0.8,0.3-1,0.7l-0.2,0.6c-0.3-0.3-0.6-0.6-0.6-0.6c-2-2-4.6-3-7.2-3c-0.9,0-1.9,0.1-2.8,0.4
		C8.4,2.7,7.7,3,7,3.4C6.3,3.8,5.7,4.3,5.2,4.8c-0.5,0.5-1,1.1-1.4,1.7C3.4,7.2,3,7.8,2.8,8.6c-0.2,0.6-0.3,1.2-0.3,1.8
		C2.5,11,3,11.6,3.7,11.6z"/>
</g>
</svg>
