<?xml version="1.0" encoding="utf-8"?>
<!-- Generator: Adobe Illustrator 26.5.3, SVG Export Plug-In . SVG Version: 6.00 Build 0)  -->
<!DOCTYPE svg PUBLIC "-//W3C//DTD SVG 1.1//EN" "http://www.w3.org/Graphics/SVG/1.1/DTD/svg11.dtd" [
	<!ENTITY ns_extend "http://ns.adobe.com/Extensibility/1.0/">
	<!ENTITY ns_ai "http://ns.adobe.com/AdobeIllustrator/10.0/">
	<!ENTITY ns_graphs "http://ns.adobe.com/Graphs/1.0/">
	<!ENTITY ns_vars "http://ns.adobe.com/Variables/1.0/">
	<!ENTITY ns_imrep "http://ns.adobe.com/ImageReplacement/1.0/">
	<!ENTITY ns_sfw "http://ns.adobe.com/SaveForWeb/1.0/">
	<!ENTITY ns_custom "http://ns.adobe.com/GenericCustomNamespace/1.0/">
	<!ENTITY ns_adobe_xpath "http://ns.adobe.com/XPath/1.0/">
]>
<svg version="1.1" id="Layer_1" xmlns:x="&ns_extend;" xmlns:i="&ns_ai;" xmlns:graph="&ns_graphs;"
	 xmlns="http://www.w3.org/2000/svg" xmlns:xlink="http://www.w3.org/1999/xlink" x="0px" y="0px" width="49px" height="60px"
	 viewBox="0 0 49 60" style="enable-background:new 0 0 49 60;" xml:space="preserve">
<style type="text/css">
	.st0{fill:#FFFFFF;}
</style>
<metadata>
	<sfw  xmlns="&ns_sfw;">
		<slices></slices>
		<sliceSourceBounds  bottomLeftOrigin="true" height="48.3" width="48.3" x="0.4" y="5.9"></sliceSourceBounds>
	</sfw>
</metadata>
<g>
	<path class="st0" d="M24.5,5.9C11.2,5.9,0.4,16.7,0.4,30c0,13.3,10.8,24.1,24.1,24.1c13.3,0,24.1-10.8,24.1-24.1
		C48.6,16.7,37.8,5.9,24.5,5.9 M24.5,49c-10.5,0-19-8.5-19-19c0-10.5,8.5-19,19-19s19,8.5,19,19C43.5,40.5,35,49,24.5,49"/>
	<path class="st0" d="M24.5,26.3L24.5,26.3c-2.1,0-3.7,1.7-3.7,3.7c0,2.1,1.7,3.7,3.7,3.7c2.1,0,3.7-1.7,3.7-3.7
		C28.2,27.9,26.6,26.3,24.5,26.3"/>
	<path class="st0" d="M32.5,19l-19.2,0c0,3.1,2.5,5.7,5.6,5.7l0.7,0c1.3-1.2,3-1.9,4.8-1.9h0c3,0,5.5,1.8,6.6,4.4l3.1-3.1
		c0.3-0.3,0.5-0.6,0.7-0.9c0.2-0.4,0.4-0.9,0.4-1.4C35.3,20.3,34,19,32.5,19"/>
	<path class="st0" d="M16.5,41l19.2,0c0-3.1-2.5-5.7-5.6-5.7l-0.7,0c-1.3,1.2-3,1.9-4.8,1.9h0c-3,0-5.5-1.8-6.6-4.4l-3.1,3.1
		c-0.3,0.3-0.5,0.6-0.7,0.9c-0.2,0.4-0.4,0.9-0.4,1.4C13.7,39.7,15,41,16.5,41"/>
</g>
</svg>
