<?xml version="1.0" encoding="utf-8"?>
<!-- Generator: Adobe Illustrator 27.3.1, SVG Export Plug-In . SVG Version: 6.00 Build 0)  -->
<!DOCTYPE svg PUBLIC "-//W3C//DTD SVG 1.1//EN" "http://www.w3.org/Graphics/SVG/1.1/DTD/svg11.dtd" [
	<!ENTITY ns_extend "http://ns.adobe.com/Extensibility/1.0/">
	<!ENTITY ns_ai "http://ns.adobe.com/AdobeIllustrator/10.0/">
	<!ENTITY ns_graphs "http://ns.adobe.com/Graphs/1.0/">
	<!ENTITY ns_vars "http://ns.adobe.com/Variables/1.0/">
	<!ENTITY ns_imrep "http://ns.adobe.com/ImageReplacement/1.0/">
	<!ENTITY ns_sfw "http://ns.adobe.com/SaveForWeb/1.0/">
	<!ENTITY ns_custom "http://ns.adobe.com/GenericCustomNamespace/1.0/">
	<!ENTITY ns_adobe_xpath "http://ns.adobe.com/XPath/1.0/">
]>
<svg version="1.1" id="ic_empty_dark_multisend" xmlns:x="&ns_extend;" xmlns:i="&ns_ai;" xmlns:graph="&ns_graphs;"
	 xmlns="http://www.w3.org/2000/svg" xmlns:xlink="http://www.w3.org/1999/xlink" x="0px" y="0px" width="100px" height="100px"
	 viewBox="0 0 100 100" style="enable-background:new 0 0 100 100;" xml:space="preserve">
<style type="text/css">
	.st0{fill:none;}
	.st1{fill:#00D3D5;}
	.st2{fill:#8778DC;}
</style>
<metadata>
	<sfw  xmlns="&ns_sfw;">
		<slices></slices>
		<sliceSourceBounds  bottomLeftOrigin="true" height="100" width="100" x="0" y="0"></sliceSourceBounds>
	</sfw>
</metadata>
<g>
	<path id="Rectangle_4690" class="st0" d="M0,0h100v100H0V0z"/>
	<g>
		<rect x="16.1" y="66.6" class="st1" width="5.5" height="11.3"/>
		<rect x="47.2" y="66.6" class="st1" width="5.5" height="11.3"/>
		<rect x="78.3" y="66.6" class="st1" width="5.5" height="11.3"/>
		<g>
			<path class="st2" d="M26.4,66.3L26.4,66.3h-3.9c-0.2,0-0.3-0.1-0.5-0.2c-0.3-0.3-0.8-0.5-1.2-0.5l0,0h-4l0,0
				c-0.5,0-0.9,0.2-1.2,0.5c-0.1,0.1-0.3,0.2-0.5,0.2h-3.9l0,0c-1.3,0-2.4,1.1-2.4,2.4V94c0,1.3,1.1,2.4,2.4,2.4l0,0h15.3l0,0
				c1.3,0,2.4-1.1,2.4-2.4V68.7C28.9,67.3,27.8,66.3,26.4,66.3z M16.7,67.3l0.3-0.1h3.6l0.3,0.1l0,0v9.5c0,0.2-0.1,0.3-0.2,0.5
				c-0.1,0.1-0.3,0.2-0.4,0.2h-1.4h-1.4c-0.2,0-0.3-0.1-0.4-0.2s-0.2-0.3-0.2-0.5L16.7,67.3L16.7,67.3z M26.5,94.6h-7.7h-7.7
				c-0.4,0-0.7-0.3-0.7-0.7l0.1-25.3c0-0.2,0.1-0.3,0.2-0.4c0.1-0.1,0.3-0.2,0.4-0.2h3.2c0.4,0,0.7,0.3,0.7,0.7v8.2l0,0l0,0
				c0,1.3,1.1,2.4,2.4,2.4l0,0h2.7l0,0c1.3,0,2.4-1.1,2.4-2.4l0,0l0,0v-8.2c0-0.4,0.3-0.7,0.7-0.7h3.2c0.2,0,0.3,0.1,0.4,0.2
				s0.2,0.3,0.2,0.4l0.1,25.3C27.1,94.3,26.9,94.6,26.5,94.6z"/>
			<path class="st2" d="M18.8,76.4L18.8,76.4c0.6,0,1.2-0.5,1.2-1.2c0-0.6-0.5-1.2-1.2-1.2l0,0c-0.6,0-1.2,0.5-1.2,1.2
				S18.2,76.4,18.8,76.4z"/>
			<path class="st2" d="M57.5,66.3L57.5,66.3h-3.9c-0.2,0-0.3-0.1-0.5-0.2c-0.3-0.3-0.8-0.5-1.2-0.5l0,0h-4l0,0
				c-0.5,0-0.9,0.2-1.2,0.5c-0.1,0.1-0.3,0.2-0.5,0.2h-3.9l0,0c-1.3,0-2.4,1.1-2.4,2.4V94c0,1.3,1.1,2.4,2.4,2.4l0,0h15.3l0,0
				c1.3,0,2.4-1.1,2.4-2.4V68.7C59.9,67.3,58.9,66.3,57.5,66.3z M47.8,67.3l0.3-0.1h3.6l0.3,0.1v9.5c0,0.2-0.1,0.3-0.2,0.5
				c-0.1,0.1-0.3,0.2-0.4,0.2H50c-0.2,0-0.4,0-0.6,0c-0.5,0-0.9,0.1-1.3-0.2c-0.3-0.3-0.2-0.8-0.2-1.2c0-0.5,0-1.1,0-1.6
				c0-1.4,0-2.8,0-4.2C47.9,69.3,47.9,68.4,47.8,67.3C47.8,67.4,47.8,67.3,47.8,67.3z M57.6,94.6h-7.7h-7.7c-0.4,0-0.7-0.3-0.7-0.7
				l0.1-25.3c0-0.2,0.1-0.3,0.2-0.4c0.1-0.1,0.3-0.2,0.4-0.2h3.2c0.4,0,0.7,0.3,0.7,0.7v8.2l0,0l0,0c0,1.3,1.1,2.4,2.4,2.4l0,0h2.7
				l0,0c1.3,0,2.4-1.1,2.4-2.4l0,0l0,0v-8.2c0-0.4,0.3-0.7,0.7-0.7h3.2c0.2,0,0.3,0.1,0.4,0.2c0.1,0.1,0.2,0.3,0.2,0.4l0.1,25.3
				C58.2,94.3,57.9,94.6,57.6,94.6z"/>
			<path class="st2" d="M49.9,76.4L49.9,76.4c0.6,0,1.2-0.5,1.2-1.2c0-0.6-0.5-1.2-1.2-1.2l0,0c-0.6,0-1.2,0.5-1.2,1.2
				S49.3,76.4,49.9,76.4z"/>
			<path class="st2" d="M88.6,66.3L88.6,66.3h-3.9c-0.2,0-0.3-0.1-0.5-0.2c-0.3-0.3-0.8-0.5-1.2-0.5l0,0h-4l0,0
				c-0.5,0-0.9,0.2-1.2,0.5c-0.1,0.1-0.3,0.2-0.5,0.2h-3.9l0,0c-1.3,0-2.4,1.1-2.4,2.4V94c0,1.3,1.1,2.4,2.4,2.4l0,0h15.3l0,0
				c1.3,0,2.4-1.1,2.4-2.4V68.7C91,67.3,90,66.3,88.6,66.3z M78.9,67.3l0.3-0.1h3.6l0.3,0.1l0,0v9.5c0,0.2-0.1,0.3-0.2,0.5
				c-0.1,0.1-0.3,0.2-0.4,0.2h-1.4h-1.4c-0.2,0-0.3-0.1-0.4-0.2s-0.2-0.3-0.2-0.5L78.9,67.3L78.9,67.3z M88.8,94.6h-7.7h-7.7
				c-0.4,0-0.7-0.3-0.7-0.7l0.1-25.3c0-0.2,0.1-0.3,0.2-0.4s0.3-0.2,0.4-0.2h3.2c0.4,0,0.7,0.3,0.7,0.7v8.2l0,0l0,0
				c0,1.3,1.1,2.4,2.4,2.4l0,0h2.7l0,0c1.3,0,2.4-1.1,2.4-2.4l0,0l0,0v-8.2c0-0.4,0.3-0.7,0.7-0.7h3.2c0.2,0,0.3,0.1,0.4,0.2
				s0.2,0.3,0.2,0.4l0.1,25.3C89.3,94.3,89,94.6,88.8,94.6z"/>
			<path class="st2" d="M81,76.4L81,76.4c0.6,0,1.2-0.5,1.2-1.2c0-0.6-0.5-1.2-1.2-1.2l0,0c-0.6,0-1.2,0.5-1.2,1.2
				S80.3,76.4,81,76.4z"/>
			<path class="st2" d="M18.8,63.7c0.6,0,1-0.4,1-1v-7.4h29.1v6.3c0,0.6,0.4,1,1,1s1-0.4,1-1v-6.3H80v7c0,0.6,0.4,1,1,1s1-0.4,1-1
				v-7c0-1.1-0.9-2-2-2H50.9v-5.2c0-0.6-0.4-1-1-1s-1,0.4-1,1v5.2H19.8c-1.1,0-2,0.9-2,2v7.4C17.8,63.2,18.3,63.7,18.8,63.7z"/>
		</g>
		<g id="ZENZO_Icon__x28_2023_x29__00000111898753658281945370000009593638927034432911_">
			<g>
				<path class="st2" d="M50,3.7c-11.3,0-20.5,9.2-20.5,20.5S38.7,44.7,50,44.7s20.5-9.2,20.5-20.5C70.5,12.8,61.3,3.7,50,3.7z
					 M50,40.3c-8.9,0-16.1-7.2-16.1-16.1C33.9,15.2,41.1,8,50,8s16.1,7.2,16.1,16.1S58.9,40.3,50,40.3z"/>
			</g>
			<path class="st2" d="M50,21L50,21c-1.7,0-3.2,1.4-3.2,3.2c0,1.7,1.4,3.2,3.2,3.2l0,0c1.7,0,3.2-1.4,3.2-3.2S51.7,21,50,21z"/>
			<path class="st2" d="M56.7,14.8H40.4c0,2.6,2.1,4.8,4.8,4.8h0.6c1.1-1,2.5-1.6,4.1-1.6l0,0c2.5,0,4.7,1.5,5.6,3.7l2.6-2.6
				c0.3-0.3,0.4-0.5,0.6-0.8c0.2-0.4,0.3-0.8,0.3-1.2C59.1,15.9,58.1,14.8,56.7,14.8z"/>
			<path class="st2" d="M43.3,33.4h16.3c0-2.6-2.1-4.8-4.8-4.8h-0.6c-1.1,1-2.5,1.6-4.1,1.6l0,0c-2.5,0-4.7-1.5-5.6-3.7l-2.6,2.6
				c-0.3,0.3-0.4,0.5-0.6,0.8c-0.2,0.4-0.3,0.8-0.3,1.2C40.9,32.4,41.9,33.4,43.3,33.4z"/>
		</g>
		<g>
			<g id="ZENZO_Icon__x28_2023_x29__00000177476398393773309720000006318549302146957232_">
				<g>
					<path class="st2" d="M18.8,81.1c-3.4,0-6.1,2.7-6.1,6.1s2.7,6.1,6.1,6.1s6.1-2.7,6.1-6.1C24.9,83.8,22.2,81.1,18.8,81.1z
						 M18.8,92c-2.6,0-4.8-2.2-4.8-4.8c0-2.6,2.2-4.8,4.8-4.8s4.8,2.2,4.8,4.8C23.6,89.9,21.5,92,18.8,92z"/>
				</g>
				<path class="st2" d="M18.8,86.3L18.8,86.3c-0.5,0-0.9,0.4-0.9,0.9s0.4,0.9,0.9,0.9l0,0c0.5,0,0.9-0.4,0.9-0.9
					C19.8,86.7,19.3,86.3,18.8,86.3z"/>
				<path class="st2" d="M20.8,84.4H16c0,0.8,0.6,1.4,1.4,1.4h0.2c0.3-0.3,0.8-0.5,1.2-0.5l0,0c0.8,0,1.4,0.5,1.7,1.1l0.8-0.8
					c0.1-0.1,0.1-0.1,0.2-0.2s0.1-0.2,0.1-0.4C21.5,84.8,21.2,84.4,20.8,84.4z"/>
				<path class="st2" d="M16.8,90h4.8c0-0.8-0.6-1.4-1.4-1.4H20c-0.3,0.3-0.8,0.5-1.2,0.5l0,0c-0.8,0-1.4-0.5-1.7-1.1l-0.8,0.8
					c-0.1,0.1-0.1,0.1-0.2,0.2S16,89.2,16,89.4C16.1,89.7,16.4,90,16.8,90z"/>
			</g>
			<g id="ZENZO_Icon__x28_2023_x29__00000018933545368622871420000018084915425296622756_">
				<g>
					<path class="st2" d="M50,81.1c-3.4,0-6.1,2.7-6.1,6.1s2.7,6.1,6.1,6.1c3.4,0,6.1-2.7,6.1-6.1C56.1,83.8,53.4,81.1,50,81.1z
						 M50,92c-2.6,0-4.8-2.2-4.8-4.8c0-2.6,2.2-4.8,4.8-4.8s4.8,2.2,4.8,4.8C54.8,89.9,52.6,92,50,92z"/>
				</g>
				<path class="st2" d="M50,86.3L50,86.3c-0.5,0-0.9,0.4-0.9,0.9s0.4,0.9,0.9,0.9l0,0c0.5,0,0.9-0.4,0.9-0.9
					C50.9,86.7,50.5,86.3,50,86.3z"/>
				<path class="st2" d="M52,84.4h-4.8c0,0.8,0.6,1.4,1.4,1.4h0.2c0.3-0.3,0.8-0.5,1.2-0.5l0,0c0.8,0,1.4,0.5,1.7,1.1l0.8-0.8
					c0.1-0.1,0.1-0.1,0.2-0.2c0.1-0.1,0.1-0.2,0.1-0.4C52.7,84.8,52.4,84.4,52,84.4z"/>
				<path class="st2" d="M48,90h4.8c0-0.8-0.6-1.4-1.4-1.4h-0.2C50.9,88.8,50.5,89,50,89l0,0c-0.8,0-1.4-0.5-1.7-1.1l-0.8,0.8
					c-0.1,0.1-0.1,0.1-0.2,0.2c-0.1,0.1-0.1,0.2-0.1,0.4C47.3,89.7,47.6,90,48,90z"/>
			</g>
			<g id="ZENZO_Icon__x28_2023_x29__00000003815434065719896700000001248198476800226999_">
				<g>
					<path class="st2" d="M81.2,81.1c-3.4,0-6.1,2.7-6.1,6.1s2.7,6.1,6.1,6.1s6.1-2.7,6.1-6.1C87.3,83.8,84.5,81.1,81.2,81.1z
						 M81.2,92c-2.6,0-4.8-2.2-4.8-4.8c0-2.6,2.2-4.8,4.8-4.8c2.6,0,4.8,2.2,4.8,4.8C86,89.9,83.8,92,81.2,92z"/>
				</g>
				<path class="st2" d="M81.2,86.3L81.2,86.3c-0.5,0-0.9,0.4-0.9,0.9s0.4,0.9,0.9,0.9l0,0c0.5,0,0.9-0.4,0.9-0.9
					C82.1,86.7,81.7,86.3,81.2,86.3z"/>
				<path class="st2" d="M83.2,84.4h-4.8c0,0.8,0.6,1.4,1.4,1.4H80c0.3-0.3,0.8-0.5,1.2-0.5l0,0c0.8,0,1.4,0.5,1.7,1.1l0.8-0.8
					c0.1-0.1,0.1-0.1,0.2-0.2S84,85.2,84,85C83.9,84.8,83.6,84.4,83.2,84.4z"/>
				<path class="st2" d="M79.2,90H84c0-0.8-0.6-1.4-1.4-1.4h-0.2c-0.3,0.3-0.8,0.5-1.2,0.5l0,0c-0.8,0-1.4-0.5-1.7-1.1l-0.8,0.8
					c-0.1,0.1-0.1,0.1-0.2,0.2s-0.1,0.2-0.1,0.4C78.4,89.7,78.8,90,79.2,90z"/>
			</g>
		</g>
	</g>
</g>
</svg>
