<?xml version="1.0" encoding="utf-8"?>
<!-- Generator: Adobe Illustrator 26.5.3, SVG Export Plug-In . SVG Version: 6.00 Build 0)  -->
<!DOCTYPE svg PUBLIC "-//W3C//DTD SVG 1.1//EN" "http://www.w3.org/Graphics/SVG/1.1/DTD/svg11.dtd" [
	<!ENTITY ns_extend "http://ns.adobe.com/Extensibility/1.0/">
	<!ENTITY ns_ai "http://ns.adobe.com/AdobeIllustrator/10.0/">
	<!ENTITY ns_graphs "http://ns.adobe.com/Graphs/1.0/">
	<!ENTITY ns_vars "http://ns.adobe.com/Variables/1.0/">
	<!ENTITY ns_imrep "http://ns.adobe.com/ImageReplacement/1.0/">
	<!ENTITY ns_sfw "http://ns.adobe.com/SaveForWeb/1.0/">
	<!ENTITY ns_custom "http://ns.adobe.com/GenericCustomNamespace/1.0/">
	<!ENTITY ns_adobe_xpath "http://ns.adobe.com/XPath/1.0/">
]>
<svg version="1.1" id="Layer_1" xmlns:x="&ns_extend;" xmlns:i="&ns_ai;" xmlns:graph="&ns_graphs;"
	 xmlns="http://www.w3.org/2000/svg" xmlns:xlink="http://www.w3.org/1999/xlink" x="0px" y="0px" width="300px" height="100px"
	 viewBox="0 0 300 100" style="enable-background:new 0 0 300 100;" xml:space="preserve">
<style type="text/css">
	.st0{fill:#FFFFFF;}
	
		.st1{clip-path:url(#SVGID_00000018227736476522283920000000172481715676211346_);fill:url(#SVGID_00000026138016102407621590000016977189197307598747_);}
	
		.st2{clip-path:url(#SVGID_00000010990124637985759000000009290046981507777966_);fill:url(#SVGID_00000031886611289228883130000014884997955400825501_);}
	
		.st3{clip-path:url(#SVGID_00000119081488951096076700000000821298470932094390_);fill:url(#SVGID_00000091727073611988692860000004111444071454172861_);}
	
		.st4{clip-path:url(#SVGID_00000084504205657010246160000014461465201096599945_);fill:url(#SVGID_00000098205849775521096790000000765578034947377076_);}
</style>
<metadata>
	<sfw  xmlns="&ns_sfw;">
		<slices></slices>
		<sliceSourceBounds  bottomLeftOrigin="true" height="99" width="264.6" x="17.7" y="0.5"></sliceSourceBounds>
	</sfw>
</metadata>
<g>
	<g>
		<g>
			<path class="st0" d="M134,64.9c-0.2,0.7,0.2,1.1,0.7,1.1H146l-1.3,2.9c-0.3,0.6-0.9,1.2-2.2,1.2h-15l11.9-35.2
				c0.1-0.5-0.1-1-0.8-1h-4.7c-1.3,0-2-0.6-2.2-1.2c-0.2-0.3-0.9-2-1.3-3H146L134,64.9z"/>
			<path class="st0" d="M180.1,66c-0.5,1-1.2,2.7-1.3,3c-0.3,0.5-0.9,1.1-2.2,1.1h-9.2V31c0.1-0.6,0.6-1.2,1.3-1.2h10.8l-1.4,3
				c-0.2,0.5-0.9,1.2-2.2,1.2h-3.3c-0.6,0-1,0.4-1,1v12h6.2c-0.5,1-1.2,2.7-1.3,3.1c-0.3,0.5-0.9,1.1-2.2,1.1h-1.7c-0.5,0-1,0.5-1,1
				v14H180.1z"/>
			<path class="st0" d="M213.1,70.1h-1.9c-2.2,0-2.6-1.8-2.8-2.6L204,47.6v22.5h-4.1V29.8h1.9c2.3,0,2.7,1.1,2.9,2.2l4.3,21V29.8
				h4.1V70.1z"/>
			<path class="st0" d="M237.7,64.9c-0.2,0.7,0.2,1.1,0.7,1.1h11.2l-1.3,2.9c-0.3,0.6-0.9,1.2-2.2,1.2h-15L243,34.9
				c0.1-0.5-0.1-1-0.8-1h-4.7c-1.3,0-2-0.6-2.2-1.2c-0.2-0.3-0.9-2-1.3-3h15.7L237.7,64.9z"/>
			<path class="st0" d="M277.3,29.4c2.8,0.1,5,2.4,5,5.1v30.9c-0.1,2.8-2.2,5-5,5.1h-3.2c-2.8,0-5.1-2.3-5.2-5.1V34.5
				c0-2.8,2.3-5.1,5.2-5.1H277.3z M275.9,66.9c1.2,0,2.2-1,2.2-2.2V35.3c0-1.3-1-2.2-2.2-2.2h-0.6c-1.2,0.1-2.2,1-2.2,2.2v29.4
				c0,1.2,1,2.2,2.2,2.2H275.9z"/>
			<path class="st0" d="M116.7,50c0,27.3-22.2,49.5-49.5,49.5c-27.3,0-49.5-22.2-49.5-49.5c0-27.3,22.2-49.5,49.5-49.5
				C94.5,0.5,116.7,22.7,116.7,50"/>
		</g>
	</g>
	<g>
		<defs>
			<path id="SVGID_1_" d="M32.2,50c0-19.3,15.7-35,35-35s35,15.7,35,35c0,19.3-15.7,35-35,35S32.2,69.3,32.2,50 M22.8,50
				c0,24.5,19.9,44.4,44.4,44.4c24.5,0,44.4-19.9,44.4-44.4c0-24.5-19.9-44.4-44.4-44.4C42.7,5.6,22.8,25.5,22.8,50"/>
		</defs>
		<clipPath id="SVGID_00000117652252374908078070000005471435257177671838_">
			<use xlink:href="#SVGID_1_"  style="overflow:visible;"/>
		</clipPath>
		
			<linearGradient id="SVGID_00000097462079213335682610000011872663389990573228_" gradientUnits="userSpaceOnUse" x1="119.7744" y1="80.8662" x2="119.9572" y2="80.8662" gradientTransform="matrix(0 -373.5934 -373.5934 0 30278.2754 44831.9297)">
			<stop  offset="0" style="stop-color:#00EBE8"/>
			<stop  offset="0.5" style="stop-color:#55CBFF"/>
			<stop  offset="1" style="stop-color:#988DFF"/>
		</linearGradient>
		
			<rect x="22.8" y="5.6" style="clip-path:url(#SVGID_00000117652252374908078070000005471435257177671838_);fill:url(#SVGID_00000097462079213335682610000011872663389990573228_);" width="88.9" height="88.9"/>
	</g>
	<g>
		<defs>
			<path id="SVGID_00000163041698782853259100000011762254583298796175_" d="M67.2,43.1c-3.8,0-6.9,3.1-6.9,6.9
				c0,3.8,3.1,6.9,6.9,6.9c3.8,0,6.9-3.1,6.9-6.9C74,46.2,71,43.1,67.2,43.1L67.2,43.1z"/>
		</defs>
		<clipPath id="SVGID_00000129171492456381292450000010560765442153194427_">
			<use xlink:href="#SVGID_00000163041698782853259100000011762254583298796175_"  style="overflow:visible;"/>
		</clipPath>
		
			<linearGradient id="SVGID_00000147917324456078007370000017158573416817740424_" gradientUnits="userSpaceOnUse" x1="119.7744" y1="80.8662" x2="119.9572" y2="80.8662" gradientTransform="matrix(0 -373.5934 -373.5934 0 30278.2754 44831.9297)">
			<stop  offset="0" style="stop-color:#00EBE8"/>
			<stop  offset="0.5" style="stop-color:#55CBFF"/>
			<stop  offset="1" style="stop-color:#988DFF"/>
		</linearGradient>
		
			<rect x="60.3" y="43.1" style="clip-path:url(#SVGID_00000129171492456381292450000010560765442153194427_);fill:url(#SVGID_00000147917324456078007370000017158573416817740424_);" width="13.7" height="13.7"/>
	</g>
	<g>
		<defs>
			<path id="SVGID_00000134216903466448040410000015336614323504419005_" d="M46.5,29.8c0,5.7,4.6,10.4,10.4,10.4l1.4,0
				c2.4-2.1,5.5-3.5,8.9-3.5h0c5.5,0,10.2,3.4,12.2,8.1l5.7-5.7c0.5-0.5,1-1.1,1.2-1.6c0.5-0.8,0.7-1.7,0.7-2.6
				c0-2.8-2.3-5.2-5.2-5.2L46.5,29.8z"/>
		</defs>
		<clipPath id="SVGID_00000021812702133720717200000005947933152207150015_">
			<use xlink:href="#SVGID_00000134216903466448040410000015336614323504419005_"  style="overflow:visible;"/>
		</clipPath>
		
			<linearGradient id="SVGID_00000035504219968948253760000005105218130492214195_" gradientUnits="userSpaceOnUse" x1="119.7744" y1="80.8613" x2="119.9572" y2="80.8613" gradientTransform="matrix(0 -373.5934 -373.5934 0 30276.0059 44831.9297)">
			<stop  offset="0" style="stop-color:#00EBE8"/>
			<stop  offset="0.5" style="stop-color:#55CBFF"/>
			<stop  offset="1" style="stop-color:#988DFF"/>
		</linearGradient>
		
			<rect x="46.5" y="29.8" style="clip-path:url(#SVGID_00000021812702133720717200000005947933152207150015_);fill:url(#SVGID_00000035504219968948253760000005105218130492214195_);" width="40.5" height="15.1"/>
	</g>
	<g>
		<defs>
			<path id="SVGID_00000178893889567233582320000005930375924511315884_" d="M49.3,60.8c-0.5,0.5-1,1.1-1.2,1.6
				c-0.5,0.8-0.7,1.7-0.7,2.6c0,2.8,2.3,5.2,5.2,5.2l35.3,0c0-5.7-4.6-10.4-10.4-10.4l-1.4,0c-2.4,2.1-5.5,3.5-8.9,3.5h0
				c-5.5,0-10.2-3.4-12.2-8.1L49.3,60.8z"/>
		</defs>
		<clipPath id="SVGID_00000117670530098154521130000004388634685499276465_">
			<use xlink:href="#SVGID_00000178893889567233582320000005930375924511315884_"  style="overflow:visible;"/>
		</clipPath>
		
			<linearGradient id="SVGID_00000158746946054654887550000017784328849178524313_" gradientUnits="userSpaceOnUse" x1="119.7744" y1="80.8712" x2="119.9572" y2="80.8712" gradientTransform="matrix(0 -373.5934 -373.5934 0 30280.543 44831.9297)">
			<stop  offset="0" style="stop-color:#00EBE8"/>
			<stop  offset="0.5" style="stop-color:#55CBFF"/>
			<stop  offset="1" style="stop-color:#988DFF"/>
		</linearGradient>
		
			<rect x="47.4" y="55.1" style="clip-path:url(#SVGID_00000117670530098154521130000004388634685499276465_);fill:url(#SVGID_00000158746946054654887550000017784328849178524313_);" width="40.5" height="15.1"/>
	</g>
</g>
</svg>
