<?xml version="1.0" encoding="utf-8"?>
<!-- Generator: Adobe Illustrator 27.3.1, SVG Export Plug-In . SVG Version: 6.00 Build 0)  -->
<!DOCTYPE svg PUBLIC "-//W3C//DTD SVG 1.1//EN" "http://www.w3.org/Graphics/SVG/1.1/DTD/svg11.dtd" [
	<!ENTITY ns_extend "http://ns.adobe.com/Extensibility/1.0/">
	<!ENTITY ns_ai "http://ns.adobe.com/AdobeIllustrator/10.0/">
	<!ENTITY ns_graphs "http://ns.adobe.com/Graphs/1.0/">
	<!ENTITY ns_vars "http://ns.adobe.com/Variables/1.0/">
	<!ENTITY ns_imrep "http://ns.adobe.com/ImageReplacement/1.0/">
	<!ENTITY ns_sfw "http://ns.adobe.com/SaveForWeb/1.0/">
	<!ENTITY ns_custom "http://ns.adobe.com/GenericCustomNamespace/1.0/">
	<!ENTITY ns_adobe_xpath "http://ns.adobe.com/XPath/1.0/">
]>
<svg version="1.1" id="ic_empty_transactions" xmlns:x="&ns_extend;" xmlns:i="&ns_ai;" xmlns:graph="&ns_graphs;"
	 xmlns="http://www.w3.org/2000/svg" xmlns:xlink="http://www.w3.org/1999/xlink" x="0px" y="0px" width="100px" height="100px"
	 viewBox="0 0 100 100" style="enable-background:new 0 0 100 100;" xml:space="preserve">
<style type="text/css">
	.st0{fill:#D6D6D6;}
	.st1{fill:#666666;}
	.st2{fill:none;}
</style>
<metadata>
	<sfw  xmlns="&ns_sfw;">
		<slices></slices>
		<sliceSourceBounds  bottomLeftOrigin="true" height="100" width="100" x="0" y="0"></sliceSourceBounds>
	</sfw>
</metadata>
<g>
	<circle class="st0" cx="50.2" cy="49.9" r="24"/>
	<g>
		<path class="st1" d="M50.1,74.9c-13.8,0-25-11.2-25-25s11.2-25,25-25s25,11.2,25,25S63.9,74.9,50.1,74.9z M50.1,26.9
			c-12.7,0-23,10.3-23,23s10.3,23,23,23s23-10.3,23-23S62.8,26.9,50.1,26.9z"/>
	</g>
	<circle class="st0" cx="50.2" cy="49.9" r="17.9"/>
	<g id="ZENZO_Icon__x28_2023_x29__00000116950098898485340480000010712561799711940785_">
		<g>
			<path class="st1" d="M50.2,29.6c-11.2,0-20.3,9.1-20.3,20.3c0,11.2,9.1,20.3,20.3,20.3c11.2,0,20.3-9.1,20.3-20.3
				C70.4,38.7,61.3,29.6,50.2,29.6z M50.2,65.9c-8.8,0-16-7.2-16-16c0-8.8,7.2-16,16-16c8.8,0,16,7.2,16,16
				C66.1,58.7,59,65.9,50.2,65.9z"/>
		</g>
		<path class="st1" d="M50.2,46.8L50.2,46.8c-1.7,0-3.1,1.4-3.1,3.1c0,1.7,1.4,3.1,3.1,3.1l0,0c1.7,0,3.1-1.4,3.1-3.1
			C53.3,48.2,51.9,46.8,50.2,46.8z"/>
		<path class="st1" d="M56.8,40.7l-16.1,0c0,2.6,2.1,4.8,4.7,4.8l0.6,0c1.1-1,2.5-1.6,4.1-1.6h0c2.5,0,4.6,1.5,5.6,3.7l2.6-2.6
			c0.2-0.2,0.4-0.5,0.6-0.7c0.2-0.3,0.3-0.8,0.3-1.2C59.2,41.8,58.1,40.7,56.8,40.7z"/>
		<path class="st1" d="M43.5,59.1l16.1,0c0-2.6-2.1-4.8-4.7-4.8l-0.6,0c-1.1,1-2.5,1.6-4.1,1.6h0c-2.5,0-4.6-1.5-5.6-3.7L42,54.8
			c-0.2,0.2-0.4,0.5-0.6,0.7c-0.2,0.3-0.3,0.8-0.3,1.2C41.1,58,42.2,59.1,43.5,59.1z"/>
	</g>
	<g>
		<g>
			<path class="st1" d="M16.4,56.8c-0.6,0-1-0.4-1-1V29.3c0-0.1-0.1-0.3-0.3-0.3H9.8c-0.9,0-1.7-0.5-2.1-1.3S7.5,26,8,25.3L22.6,8.4
				c0.4-0.5,1-0.8,1.7-0.8c0.6,0,1.3,0.3,1.7,0.8l14.4,16.5c0.6,0.7,0.7,1.6,0.4,2.4c-0.4,0.8-1.2,1.3-2.1,1.3h-8c-0.6,0-1-0.4-1-1
				s0.4-1,1-1h8c0.1,0,0.2-0.1,0.2-0.2s0-0.2,0-0.3L24.5,9.7c-0.1-0.1-0.2-0.1-0.2-0.1c-0.1,0-0.1,0-0.2,0.1L9.6,26.6
				c-0.1,0.1-0.1,0.2,0,0.3c0,0.1,0.1,0.2,0.2,0.2h5.3c1.2,0,2.3,1,2.3,2.3v26.4C17.4,56.4,17,56.8,16.4,56.8z"/>
		</g>
		<g>
			<path class="st0" d="M24.3,23.5h-6.7c-0.3,0-0.4-0.3-0.2-0.5l6.7-7.9c0.1-0.1,0.4-0.1,0.5,0l6.7,7.9c0.2,0.2,0,0.5-0.2,0.5H24.3z
				"/>
		</g>
	</g>
	<g>
		<g>
			<path class="st1" d="M75.7,92.4c-0.7,0-1.3-0.3-1.7-0.8L59.6,75c-0.6-0.7-0.7-1.6-0.4-2.4c0.4-0.8,1.2-1.3,2.1-1.3h8
				c0.6,0,1,0.4,1,1s-0.4,1-1,1h-8c-0.1,0-0.2,0.1-0.2,0.2s0,0.2,0,0.3l14.4,16.6c0.1,0.1,0.1,0.1,0.2,0.1s0.1,0,0.2-0.1l14.5-17
				c0.1-0.1,0.1-0.2,0-0.3c0-0.1-0.1-0.2-0.2-0.2h-5.3c-1.2,0-2.3-1-2.3-2.3V44.2c0-0.6,0.4-1,1-1s1,0.4,1,1v26.5
				c0,0.1,0.1,0.3,0.3,0.3h5.3c0.9,0,1.7,0.5,2.1,1.3s0.2,1.7-0.3,2.4L77.4,91.6C77,92.1,76.4,92.4,75.7,92.4L75.7,92.4z"/>
		</g>
		<g>
			<path class="st0" d="M75.7,76.5h6.7c0.3,0,0.4,0.3,0.2,0.5l-6.7,7.9c-0.1,0.1-0.4,0.1-0.5,0L68.7,77c-0.2-0.2,0-0.5,0.2-0.5H75.7
				z"/>
		</g>
	</g>
</g>
<path id="Rectangle_4668" class="st2" d="M0,0h100v100H0V0z"/>
</svg>
