<?xml version="1.0" encoding="utf-8"?>
<!-- Generator: Adobe Illustrator 27.3.1, SVG Export Plug-In . SVG Version: 6.00 Build 0)  -->
<!DOCTYPE svg PUBLIC "-//W3C//DTD SVG 1.1//EN" "http://www.w3.org/Graphics/SVG/1.1/DTD/svg11.dtd" [
	<!ENTITY ns_extend "http://ns.adobe.com/Extensibility/1.0/">
	<!ENTITY ns_ai "http://ns.adobe.com/AdobeIllustrator/10.0/">
	<!ENTITY ns_graphs "http://ns.adobe.com/Graphs/1.0/">
	<!ENTITY ns_vars "http://ns.adobe.com/Variables/1.0/">
	<!ENTITY ns_imrep "http://ns.adobe.com/ImageReplacement/1.0/">
	<!ENTITY ns_sfw "http://ns.adobe.com/SaveForWeb/1.0/">
	<!ENTITY ns_custom "http://ns.adobe.com/GenericCustomNamespace/1.0/">
	<!ENTITY ns_adobe_xpath "http://ns.adobe.com/XPath/1.0/">
]>
<svg version="1.1" id="ic_empty_transactions" xmlns:x="&ns_extend;" xmlns:i="&ns_ai;" xmlns:graph="&ns_graphs;"
	 xmlns="http://www.w3.org/2000/svg" xmlns:xlink="http://www.w3.org/1999/xlink" x="0px" y="0px" width="150px" height="150px"
	 viewBox="0 0 150 150" style="enable-background:new 0 0 150 150;" xml:space="preserve">
<style type="text/css">
	.st0{fill:#D6D6D6;}
	.st1{fill:#666666;}
	.st2{fill:none;}
</style>
<metadata>
	<sfw  xmlns="&ns_sfw;">
		<slices></slices>
		<sliceSourceBounds  bottomLeftOrigin="true" height="112.8" width="113.1" x="-6.5" y="-6.4"></sliceSourceBounds>
	</sfw>
</metadata>
<g>
	<circle class="st0" cx="75.3" cy="74.9" r="31.9"/>
	<g>
		<path class="st1" d="M75.1,108.1c-18.4,0-33.3-14.9-33.3-33.2s14.9-33.3,33.3-33.3s33.2,14.9,33.2,33.3S93.5,108.1,75.1,108.1z
			 M75.1,44.3c-16.9,0-30.6,13.7-30.6,30.6s13.7,30.6,30.6,30.6s30.6-13.7,30.6-30.6S92,44.3,75.1,44.3z"/>
	</g>
	<circle class="st0" cx="75.3" cy="74.9" r="23.8"/>
	<g id="ZENZO_Icon__x28_2023_x29__00000116950098898485340480000010712561799711940785_">
		<g>
			<path class="st1" d="M75.3,47.9c-14.9,0-27,12.1-27,27s12.1,27,27,27s27-12.1,27-27C102.1,60,90,47.9,75.3,47.9z M75.3,96.1
				C63.6,96.1,54,86.6,54,74.9s9.6-21.3,21.3-21.3s21.3,9.6,21.3,21.3C96.4,86.6,87,96.1,75.3,96.1z"/>
		</g>
		<path class="st1" d="M75.3,70.7L75.3,70.7c-2.3,0-4.1,1.9-4.1,4.1c0,2.3,1.9,4.1,4.1,4.1l0,0c2.3,0,4.1-1.9,4.1-4.1
			S77.5,70.7,75.3,70.7z"/>
		<path class="st1" d="M84,62.6H62.6c0,3.5,2.8,6.4,6.3,6.4h0.8c1.5-1.3,3.3-2.1,5.5-2.1l0,0c3.3,0,6.1,2,7.4,4.9l3.5-3.5
			c0.3-0.3,0.5-0.7,0.8-0.9c0.3-0.4,0.4-1.1,0.4-1.6C87.2,64.1,85.8,62.6,84,62.6z"/>
		<path class="st1" d="M66.4,87.1h21.4c0-3.5-2.8-6.4-6.3-6.4h-0.8c-1.5,1.3-3.3,2.1-5.5,2.1l0,0c-3.3,0-6.1-2-7.4-4.9l-3.5,3.5
			c-0.3,0.3-0.5,0.7-0.8,0.9c-0.3,0.4-0.4,1.1-0.4,1.6C63.2,85.6,64.6,87.1,66.4,87.1z"/>
	</g>
	<g>
		<g>
			<path class="st1" d="M30.3,84c-0.8,0-1.3-0.5-1.3-1.3V47.5c0-0.1-0.1-0.4-0.4-0.4h-7c-1.2,0-2.3-0.7-2.8-1.7
				c-0.5-1.1-0.3-2.3,0.4-3.2l19.4-22.5c0.5-0.7,1.3-1.1,2.3-1.1c0.8,0,1.7,0.4,2.3,1.1l19.2,21.9c0.8,0.9,0.9,2.1,0.5,3.2
				c-0.5,1.1-1.6,1.7-2.8,1.7H49.3c-0.8,0-1.3-0.5-1.3-1.3s0.5-1.3,1.3-1.3H60c0.1,0,0.3-0.1,0.3-0.3c0-0.1,0-0.3,0-0.4L41.1,21.4
				c-0.1-0.1-0.3-0.1-0.3-0.1c-0.1,0-0.1,0-0.3,0.1L21.3,43.9c-0.1,0.1-0.1,0.3,0,0.4c0,0.1,0.1,0.3,0.3,0.3h7
				c1.6,0,3.1,1.3,3.1,3.1v35.1C31.6,83.5,31.1,84,30.3,84z"/>
		</g>
		<g>
			<path class="st0" d="M40.8,39.8h-8.9c-0.4,0-0.5-0.4-0.3-0.7l8.9-10.5c0.1-0.1,0.5-0.1,0.7,0l8.9,10.5c0.3,0.3,0,0.7-0.3,0.7
				H40.8z"/>
		</g>
	</g>
	<g>
		<g>
			<path class="st1" d="M109.2,131.4c-0.9,0-1.7-0.4-2.3-1.1l-19.2-22.1c-0.8-0.9-0.9-2.1-0.5-3.2c0.5-1.1,1.6-1.7,2.8-1.7h10.6
				c0.8,0,1.3,0.5,1.3,1.3c0,0.8-0.5,1.3-1.3,1.3H90c-0.1,0-0.3,0.1-0.3,0.3s0,0.3,0,0.4l19.2,22.1c0.1,0.1,0.1,0.1,0.3,0.1
				c0.1,0,0.1,0,0.3-0.1l19.3-22.6c0.1-0.1,0.1-0.3,0-0.4c0-0.1-0.1-0.3-0.3-0.3h-7c-1.6,0-3.1-1.3-3.1-3.1V67.3
				c0-0.8,0.5-1.3,1.3-1.3s1.3,0.5,1.3,1.3v35.2c0,0.1,0.1,0.4,0.4,0.4h7c1.2,0,2.3,0.7,2.8,1.7s0.3,2.3-0.4,3.2l-19.4,22.5
				C110.9,131,110.1,131.4,109.2,131.4L109.2,131.4z"/>
		</g>
		<g>
			<path class="st0" d="M109.2,110.2h8.9c0.4,0,0.5,0.4,0.3,0.7l-8.9,10.5c-0.1,0.1-0.5,0.1-0.7,0l-8.9-10.5c-0.3-0.3,0-0.7,0.3-0.7
				H109.2z"/>
		</g>
	</g>
</g>
<path id="Rectangle_4668" class="st2" d="M25,25h100v100H25V25z"/>
</svg>
