<?xml version="1.0" encoding="utf-8"?>
<!-- Generator: Adobe Illustrator 27.3.1, SVG Export Plug-In . SVG Version: 6.00 Build 0)  -->
<!DOCTYPE svg PUBLIC "-//W3C//DTD SVG 1.1//EN" "http://www.w3.org/Graphics/SVG/1.1/DTD/svg11.dtd" [
	<!ENTITY ns_extend "http://ns.adobe.com/Extensibility/1.0/">
	<!ENTITY ns_ai "http://ns.adobe.com/AdobeIllustrator/10.0/">
	<!ENTITY ns_graphs "http://ns.adobe.com/Graphs/1.0/">
	<!ENTITY ns_vars "http://ns.adobe.com/Variables/1.0/">
	<!ENTITY ns_imrep "http://ns.adobe.com/ImageReplacement/1.0/">
	<!ENTITY ns_sfw "http://ns.adobe.com/SaveForWeb/1.0/">
	<!ENTITY ns_custom "http://ns.adobe.com/GenericCustomNamespace/1.0/">
	<!ENTITY ns_adobe_xpath "http://ns.adobe.com/XPath/1.0/">
]>
<svg version="1.1" id="ic_empty_multisend" xmlns:x="&ns_extend;" xmlns:i="&ns_ai;" xmlns:graph="&ns_graphs;"
	 xmlns="http://www.w3.org/2000/svg" xmlns:xlink="http://www.w3.org/1999/xlink" x="0px" y="0px" width="150px" height="150px"
	 viewBox="0 0 150 150" style="enable-background:new 0 0 150 150;" xml:space="preserve">
<style type="text/css">
	.st0{fill:none;}
	.st1{fill:#D6D6D6;}
	.st2{fill:#666666;}
</style>
<metadata>
	<sfw  xmlns="&ns_sfw;">
		<slices></slices>
		<sliceSourceBounds  bottomLeftOrigin="true" height="123.3" width="109.5" x="-4.8" y="-11.7"></sliceSourceBounds>
	</sfw>
</metadata>
<path id="Rectangle_4690" class="st0" d="M25,25h100v100H25V25z"/>
<g>
	<rect x="29.9" y="97.1" class="st1" width="7.3" height="15"/>
	<rect x="71.3" y="97.1" class="st1" width="7.3" height="15"/>
	<rect x="112.7" y="97.1" class="st1" width="7.3" height="15"/>
	<g>
		<path class="st2" d="M43.6,96.7L43.6,96.7h-5.2c-0.3,0-0.4-0.1-0.7-0.3c-0.4-0.4-1.1-0.7-1.6-0.7l0,0h-5.3l0,0
			c-0.7,0-1.2,0.3-1.6,0.7c-0.1,0.1-0.4,0.3-0.7,0.3h-5.2l0,0c-1.7,0-3.2,1.5-3.2,3.2v33.6c0,1.7,1.5,3.2,3.2,3.2l0,0h20.3l0,0
			c1.7,0,3.2-1.5,3.2-3.2V99.9C47,98,45.5,96.7,43.6,96.7z M30.7,98l0.4-0.1h4.8l0.4,0.1l0,0v12.6c0,0.3-0.1,0.4-0.3,0.7
			c-0.1,0.1-0.4,0.3-0.5,0.3h-1.9h-1.9c-0.3,0-0.4-0.1-0.5-0.3c-0.1-0.1-0.3-0.4-0.3-0.7L30.7,98L30.7,98z M43.8,134.3H33.5H23.3
			c-0.5,0-0.9-0.4-0.9-0.9l0.1-33.6c0-0.3,0.1-0.4,0.3-0.5s0.4-0.3,0.5-0.3h4.3c0.5,0,0.9,0.4,0.9,0.9v10.9l0,0l0,0
			c0,1.7,1.5,3.2,3.2,3.2l0,0h3.6l0,0c1.7,0,3.2-1.5,3.2-3.2l0,0l0,0V99.9c0-0.5,0.4-0.9,0.9-0.9h4.3c0.3,0,0.4,0.1,0.5,0.3
			c0.1,0.1,0.3,0.4,0.3,0.5l0.1,33.6C44.6,133.9,44.3,134.3,43.8,134.3z"/>
		<path class="st2" d="M33.5,110.1L33.5,110.1c0.8,0,1.6-0.7,1.6-1.6c0-0.8-0.7-1.6-1.6-1.6l0,0c-0.8,0-1.6,0.7-1.6,1.6
			C31.9,109.4,32.7,110.1,33.5,110.1z"/>
		<path class="st2" d="M85,96.7L85,96.7h-5.2c-0.3,0-0.4-0.1-0.7-0.3c-0.4-0.4-1.1-0.7-1.6-0.7l0,0h-5.3l0,0c-0.7,0-1.2,0.3-1.6,0.7
			c-0.1,0.1-0.4,0.3-0.7,0.3h-5.2l0,0c-1.7,0-3.2,1.5-3.2,3.2v33.6c0,1.7,1.5,3.2,3.2,3.2l0,0h20.3l0,0c1.7,0,3.2-1.5,3.2-3.2V99.9
			C88.2,98,86.9,96.7,85,96.7z M72.1,98l0.4-0.1h4.8l0.4,0.1v12.6c0,0.3-0.1,0.4-0.3,0.7c-0.1,0.1-0.4,0.3-0.5,0.3H75
			c-0.3,0-0.5,0-0.8,0c-0.7,0-1.2,0.1-1.7-0.3c-0.4-0.4-0.3-1.1-0.3-1.6c0-0.7,0-1.5,0-2.1c0-1.9,0-3.7,0-5.6
			C72.2,100.7,72.2,99.5,72.1,98C72.1,98.1,72.1,98,72.1,98z M85.1,134.3H74.9H64.6c-0.5,0-0.9-0.4-0.9-0.9l0.1-33.6
			c0-0.3,0.1-0.4,0.3-0.5c0.1-0.1,0.4-0.3,0.5-0.3h4.3c0.5,0,0.9,0.4,0.9,0.9v10.9l0,0l0,0c0,1.7,1.5,3.2,3.2,3.2l0,0h3.6l0,0
			c1.7,0,3.2-1.5,3.2-3.2l0,0l0,0V99.9c0-0.5,0.4-0.9,0.9-0.9H85c0.3,0,0.4,0.1,0.5,0.3c0.1,0.1,0.3,0.4,0.3,0.5l0.1,33.6
			C85.9,133.9,85.5,134.3,85.1,134.3z"/>
		<path class="st2" d="M74.9,110.1L74.9,110.1c0.8,0,1.6-0.7,1.6-1.6c0-0.8-0.7-1.6-1.6-1.6l0,0c-0.8,0-1.6,0.7-1.6,1.6
			C73.3,109.4,74.1,110.1,74.9,110.1z"/>
		<path class="st2" d="M126.4,96.7L126.4,96.7h-5.2c-0.3,0-0.4-0.1-0.7-0.3c-0.4-0.4-1.1-0.7-1.6-0.7l0,0h-5.3l0,0
			c-0.7,0-1.2,0.3-1.6,0.7c-0.1,0.1-0.4,0.3-0.7,0.3h-5.2l0,0c-1.7,0-3.2,1.5-3.2,3.2v33.6c0,1.7,1.5,3.2,3.2,3.2l0,0h20.3l0,0
			c1.7,0,3.2-1.5,3.2-3.2V99.9C129.5,98,128.2,96.7,126.4,96.7z M113.5,98l0.4-0.1h4.8L119,98l0,0v12.6c0,0.3-0.1,0.4-0.3,0.7
			c-0.1,0.1-0.4,0.3-0.5,0.3h-1.9h-1.9c-0.3,0-0.4-0.1-0.5-0.3s-0.3-0.4-0.3-0.7L113.5,98L113.5,98z M126.6,134.3h-10.2h-10.2
			c-0.5,0-0.9-0.4-0.9-0.9l0.1-33.6c0-0.3,0.1-0.4,0.3-0.5c0.1-0.1,0.4-0.3,0.5-0.3h4.3c0.5,0,0.9,0.4,0.9,0.9v10.9l0,0l0,0
			c0,1.7,1.5,3.2,3.2,3.2l0,0h3.6l0,0c1.7,0,3.2-1.5,3.2-3.2l0,0l0,0V99.9c0-0.5,0.4-0.9,0.9-0.9h4.3c0.3,0,0.4,0.1,0.5,0.3
			c0.1,0.1,0.3,0.4,0.3,0.5l0.1,33.6C127.3,133.9,126.9,134.3,126.6,134.3z"/>
		<path class="st2" d="M116.2,110.1L116.2,110.1c0.8,0,1.6-0.7,1.6-1.6c0-0.8-0.7-1.6-1.6-1.6l0,0c-0.8,0-1.6,0.7-1.6,1.6
			C114.7,109.4,115.3,110.1,116.2,110.1z"/>
		<path class="st2" d="M33.5,93.2c0.8,0,1.3-0.5,1.3-1.3V82h38.7v8.4c0,0.8,0.5,1.3,1.3,1.3s1.3-0.5,1.3-1.3V82h38.7v9.3
			c0,0.8,0.5,1.3,1.3,1.3s1.3-0.5,1.3-1.3V82c0-1.5-1.2-2.7-2.7-2.7H76.2v-6.9c0-0.8-0.5-1.3-1.3-1.3s-1.3,0.5-1.3,1.3v6.9H34.9
			c-1.5,0-2.7,1.2-2.7,2.7v9.8C32.2,92.5,32.9,93.2,33.5,93.2z"/>
	</g>
	<g id="ZENZO_Icon__x28_2023_x29__00000111898753658281945370000009593638927034432911_">
		<g>
			<path class="st2" d="M75,13.4c-15,0-27.3,12.2-27.3,27.3S60,67.9,75,67.9s27.3-12.2,27.3-27.3C102.3,25.5,90,13.4,75,13.4z
				 M75,62.1c-11.8,0-21.4-9.6-21.4-21.4c0-12,9.6-21.5,21.4-21.5s21.4,9.6,21.4,21.4S86.9,62.1,75,62.1z"/>
		</g>
		<path class="st2" d="M75,36.4L75,36.4c-2.3,0-4.3,1.9-4.3,4.3c0,2.3,1.9,4.3,4.3,4.3l0,0c2.3,0,4.3-1.9,4.3-4.3
			C79.3,38.3,77.3,36.4,75,36.4z"/>
		<path class="st2" d="M83.9,28.2H62.2c0,3.5,2.8,6.4,6.4,6.4h0.8c1.5-1.3,3.3-2.1,5.5-2.1l0,0c3.3,0,6.3,2,7.4,4.9l3.5-3.5
			c0.4-0.4,0.5-0.7,0.8-1.1c0.3-0.5,0.4-1.1,0.4-1.6C87.1,29.6,85.8,28.2,83.9,28.2z"/>
		<path class="st2" d="M66.1,52.9h21.7c0-3.5-2.8-6.4-6.4-6.4h-0.8c-1.5,1.3-3.3,2.1-5.5,2.1l0,0c-3.3,0-6.3-2-7.4-4.9l-3.5,3.5
			c-0.4,0.4-0.5,0.7-0.8,1.1c-0.3,0.5-0.4,1.1-0.4,1.6C62.9,51.6,64.2,52.9,66.1,52.9z"/>
	</g>
	<g>
		<g id="ZENZO_Icon__x28_2023_x29__00000177476398393773309720000006318549302146957232_">
			<g>
				<path class="st1" d="M33.5,116.3c-4.5,0-8.1,3.6-8.1,8.1c0,4.5,3.6,8.1,8.1,8.1s8.1-3.6,8.1-8.1S38,116.3,33.5,116.3z
					 M33.5,130.8c-3.5,0-6.4-2.9-6.4-6.4c0-3.5,2.9-6.4,6.4-6.4c3.5,0,6.4,2.9,6.4,6.4C39.9,128.1,37.1,130.8,33.5,130.8z"/>
			</g>
			<path class="st1" d="M33.5,123.3L33.5,123.3c-0.7,0-1.2,0.5-1.2,1.2s0.5,1.2,1.2,1.2l0,0c0.7,0,1.2-0.5,1.2-1.2
				C34.9,123.8,34.2,123.3,33.5,123.3z"/>
			<path class="st1" d="M36.2,120.7h-6.4c0,1.1,0.8,1.9,1.9,1.9h0.3c0.4-0.4,1.1-0.7,1.6-0.7l0,0c1.1,0,1.9,0.7,2.3,1.5l1.1-1.1
				c0.1-0.1,0.1-0.1,0.3-0.3c0.1-0.1,0.1-0.3,0.1-0.5C37.1,121.3,36.7,120.7,36.2,120.7z"/>
			<path class="st1" d="M30.9,128.2h6.4c0-1.1-0.8-1.9-1.9-1.9h-0.3c-0.4,0.4-1.1,0.7-1.6,0.7l0,0c-1.1,0-1.9-0.7-2.3-1.5l-1.1,1.1
				c-0.1,0.1-0.1,0.1-0.3,0.3c-0.1,0.1-0.1,0.3-0.1,0.5C29.9,127.8,30.3,128.2,30.9,128.2z"/>
		</g>
		<g id="ZENZO_Icon__x28_2023_x29__00000018933545368622871420000018084915425296622756_">
			<g>
				<path class="st1" d="M75,116.3c-4.5,0-8.1,3.6-8.1,8.1c0,4.5,3.6,8.1,8.1,8.1c4.5,0,8.1-3.6,8.1-8.1S79.5,116.3,75,116.3z
					 M75,130.8c-3.5,0-6.4-2.9-6.4-6.4c0-3.5,2.9-6.4,6.4-6.4c3.5,0,6.4,2.9,6.4,6.4C81.4,128.1,78.5,130.8,75,130.8z"/>
			</g>
			<path class="st1" d="M75,123.3L75,123.3c-0.7,0-1.2,0.5-1.2,1.2s0.5,1.2,1.2,1.2l0,0c0.7,0,1.2-0.5,1.2-1.2
				C76.2,123.8,75.7,123.3,75,123.3z"/>
			<path class="st1" d="M77.7,120.7h-6.4c0,1.1,0.8,1.9,1.9,1.9h0.3c0.4-0.4,1.1-0.7,1.6-0.7l0,0c1.1,0,1.9,0.7,2.3,1.5l1.1-1.1
				c0.1-0.1,0.1-0.1,0.3-0.3c0.1-0.1,0.1-0.3,0.1-0.5C78.6,121.3,78.2,120.7,77.7,120.7z"/>
			<path class="st1" d="M72.4,128.2h6.4c0-1.1-0.8-1.9-1.9-1.9h-0.3c-0.4,0.3-0.9,0.5-1.6,0.5l0,0c-1.1,0-1.9-0.7-2.3-1.5l-1.1,1.1
				c-0.1,0.1-0.1,0.1-0.3,0.3c-0.1,0.1-0.1,0.3-0.1,0.5C71.4,127.8,71.8,128.2,72.4,128.2z"/>
		</g>
		<g id="ZENZO_Icon__x28_2023_x29__00000003815434065719896700000001248198476800226999_">
			<g>
				<path class="st1" d="M116.5,116.3c-4.5,0-8.1,3.6-8.1,8.1c0,4.5,3.6,8.1,8.1,8.1s8.1-3.6,8.1-8.1
					C124.6,119.9,120.9,116.3,116.5,116.3z M116.5,130.8c-3.5,0-6.4-2.9-6.4-6.4c0-3.5,2.9-6.4,6.4-6.4c3.5,0,6.4,2.9,6.4,6.4
					C122.9,128.1,120,130.8,116.5,130.8z"/>
			</g>
			<path class="st1" d="M116.5,123.3L116.5,123.3c-0.7,0-1.2,0.5-1.2,1.2s0.5,1.2,1.2,1.2l0,0c0.7,0,1.2-0.5,1.2-1.2
				C117.7,123.8,117.2,123.3,116.5,123.3z"/>
			<path class="st1" d="M119.2,120.7h-6.4c0,1.1,0.8,1.9,1.9,1.9h0.3c0.4-0.4,1.1-0.7,1.6-0.7l0,0c1.1,0,1.9,0.7,2.3,1.5l1.1-1.1
				c0.1-0.1,0.1-0.1,0.3-0.3c0.1-0.1,0.1-0.3,0.1-0.5C120.1,121.3,119.7,120.7,119.2,120.7z"/>
			<path class="st1" d="M113.9,128.2h6.4c0-1.1-0.8-1.9-1.9-1.9h-0.3c-0.4,0.4-1.1,0.7-1.6,0.7l0,0c-1.1,0-1.9-0.7-2.3-1.5l-1.1,1.1
				c-0.1,0.1-0.1,0.1-0.3,0.3s-0.1,0.3-0.1,0.5C112.8,127.8,113.3,128.2,113.9,128.2z"/>
		</g>
	</g>
</g>
</svg>
