<?xml version="1.0" encoding="utf-8"?>
<!-- Generator: Adobe Illustrator 27.8.1, SVG Export Plug-In . SVG Version: 6.00 Build 0)  -->
<!DOCTYPE svg PUBLIC "-//W3C//DTD SVG 1.1//EN" "http://www.w3.org/Graphics/SVG/1.1/DTD/svg11.dtd" [
	<!ENTITY ns_extend "http://ns.adobe.com/Extensibility/1.0/">
	<!ENTITY ns_ai "http://ns.adobe.com/AdobeIllustrator/10.0/">
	<!ENTITY ns_graphs "http://ns.adobe.com/Graphs/1.0/">
	<!ENTITY ns_vars "http://ns.adobe.com/Variables/1.0/">
	<!ENTITY ns_imrep "http://ns.adobe.com/ImageReplacement/1.0/">
	<!ENTITY ns_sfw "http://ns.adobe.com/SaveForWeb/1.0/">
	<!ENTITY ns_custom "http://ns.adobe.com/GenericCustomNamespace/1.0/">
	<!ENTITY ns_adobe_xpath "http://ns.adobe.com/XPath/1.0/">
]>
<svg version="1.1" id="Layer_1" xmlns:x="&ns_extend;" xmlns:i="&ns_ai;" xmlns:graph="&ns_graphs;"
	 xmlns="http://www.w3.org/2000/svg" xmlns:xlink="http://www.w3.org/1999/xlink" x="0px" y="0px" width="300px" height="100px"
	 viewBox="0 0 300 100" style="enable-background:new 0 0 300 100;" xml:space="preserve">
<style type="text/css">
	.st0{fill:#FFFFFF;}
	.st1{fill:url(#SVGID_1_);}
	.st2{fill:url(#SVGID_00000173139399456090161590000007704621792381196681_);}
	.st3{fill:url(#SVGID_00000082357345778646295910000009001462935620847539_);}
	.st4{fill:url(#SVGID_00000089533912641568585870000002535707655632488629_);}
</style>
<metadata>
	<sfw  xmlns="&ns_sfw;">
		<slices></slices>
		<sliceSourceBounds  bottomLeftOrigin="true" height="95.8" width="256.2" x="21.9" y="2.1"></sliceSourceBounds>
	</sfw>
</metadata>
<g>
	<g>
		<g>
			<g>
				<g>
					<g>
						<path class="st0" d="M134.5,64.5c-0.2,0.7,0.2,1.1,0.7,1.1h10.9l-1.3,2.8c-0.3,0.6-0.8,1.1-2.1,1.1h-14.6l11.5-34.1
							c0.1-0.5-0.1-0.9-0.8-0.9h-4.5c-1.3,0-1.9-0.6-2.2-1.1c-0.2-0.3-0.8-1.9-1.3-2.9h15.2L134.5,64.5z"/>
						<path class="st0" d="M179.1,65.5c-0.4,1-1.1,2.6-1.3,2.9c-0.3,0.5-0.9,1.1-2.2,1.1h-8.9V31.6c0.1-0.6,0.6-1.1,1.2-1.1h10.4
							l-1.3,2.9c-0.2,0.5-0.8,1.1-2.1,1.1h-3.2c-0.6,0-0.9,0.4-0.9,0.9V47h6c-0.4,1-1.1,2.6-1.3,3c-0.3,0.5-0.8,1.1-2.1,1.1h-1.7
							c-0.5,0-0.9,0.4-0.9,0.9v13.6H179.1z"/>
						<path class="st0" d="M211.1,69.5h-1.8c-2.2,0-2.5-1.7-2.7-2.5l-4.3-19.3v21.8h-4v-39h1.8c2.2,0,2.6,1.1,2.8,2.2l4.1,20.3V30.4
							h4V69.5z"/>
						<path class="st0" d="M234.9,64.5c-0.2,0.7,0.2,1.1,0.7,1.1h10.9l-1.3,2.8c-0.3,0.6-0.8,1.1-2.1,1.1h-14.6l11.5-34.1
							c0.1-0.5-0.1-0.9-0.8-0.9h-4.5c-1.3,0-1.9-0.6-2.2-1.1c-0.2-0.3-0.8-1.9-1.3-2.9h15.2L234.9,64.5z"/>
						<path class="st0" d="M273.3,30.1c2.7,0.1,4.9,2.3,4.9,5v30c-0.1,2.7-2.2,4.8-4.9,4.9h-3.1c-2.7,0-5-2.2-5-4.9V35
							c0-2.7,2.2-5,5-5H273.3z M271.9,66.4c1.2,0,2.1-0.9,2.1-2.2V35.7c0-1.2-0.9-2.2-2.1-2.2h-0.6c-1.2,0.1-2.1,1-2.1,2.2v28.4
							c0,1.2,0.9,2.1,2.1,2.2H271.9z"/>
					</g>
				</g>
			</g>
		</g>
	</g>
	<g>
		<path class="st0" d="M117.7,50c0,26.5-21.5,47.9-47.9,47.9c-26.5,0-47.9-21.5-47.9-47.9c0-26.5,21.5-47.9,47.9-47.9
			C96.3,2.1,117.7,23.5,117.7,50z"/>
		<g id="ZENZO_Icon__x28_2023_x29__00000164490943937352086050000014308335024035304627_">
			<g>
				<linearGradient id="SVGID_1_" gradientUnits="userSpaceOnUse" x1="69.809" y1="83.8933" x2="69.809" y2="17.7826">
					<stop  offset="0" style="stop-color:#00EBE8"/>
					<stop  offset="0.5" style="stop-color:#55CBFF"/>
					<stop  offset="1" style="stop-color:#988DFF"/>
				</linearGradient>
				<path class="st1" d="M69.8,7c-23.7,0-43,19.3-43,43c0,23.7,19.3,43,43,43c23.7,0,43-19.3,43-43C112.8,26.3,93.5,7,69.8,7z
					 M69.8,83.9c-18.7,0-33.9-15.2-33.9-33.9c0-18.7,15.2-33.9,33.9-33.9c18.7,0,33.9,15.2,33.9,33.9
					C103.7,68.7,88.5,83.9,69.8,83.9z"/>
			</g>
			
				<linearGradient id="SVGID_00000182528866126187630360000003986612977584842402_" gradientUnits="userSpaceOnUse" x1="69.809" y1="83.8933" x2="69.809" y2="17.7826">
				<stop  offset="0" style="stop-color:#00EBE8"/>
				<stop  offset="0.5" style="stop-color:#55CBFF"/>
				<stop  offset="1" style="stop-color:#988DFF"/>
			</linearGradient>
			<path style="fill:url(#SVGID_00000182528866126187630360000003986612977584842402_);" d="M69.8,43.4L69.8,43.4
				c-3.7,0-6.6,3-6.6,6.6c0,3.7,3,6.6,6.6,6.6l0,0c3.7,0,6.6-3,6.6-6.6C76.5,46.3,73.5,43.4,69.8,43.4z"/>
			
				<linearGradient id="SVGID_00000041292160837803732470000001038553750593706625_" gradientUnits="userSpaceOnUse" x1="69.4072" y1="83.8933" x2="69.4072" y2="17.7826">
				<stop  offset="0" style="stop-color:#00EBE8"/>
				<stop  offset="0.5" style="stop-color:#55CBFF"/>
				<stop  offset="1" style="stop-color:#988DFF"/>
			</linearGradient>
			<path style="fill:url(#SVGID_00000041292160837803732470000001038553750593706625_);" d="M84,30.5l-34.2,0
				c0,5.6,4.5,10.1,10.1,10.1l1.3,0c2.3-2.1,5.3-3.3,8.6-3.3h0c5.3,0,9.9,3.2,11.8,7.9l5.5-5.5c0.5-0.5,0.9-1.1,1.2-1.6
				c0.4-0.7,0.7-1.6,0.7-2.5C89,32.7,86.8,30.5,84,30.5z"/>
			
				<linearGradient id="SVGID_00000140701773317629726430000001570322988171605664_" gradientUnits="userSpaceOnUse" x1="70.2104" y1="83.8933" x2="70.2104" y2="17.7826">
				<stop  offset="0" style="stop-color:#00EBE8"/>
				<stop  offset="0.5" style="stop-color:#55CBFF"/>
				<stop  offset="1" style="stop-color:#988DFF"/>
			</linearGradient>
			<path style="fill:url(#SVGID_00000140701773317629726430000001570322988171605664_);" d="M55.6,69.5l34.2,0
				c0-5.6-4.5-10.1-10.1-10.1l-1.3,0c-2.3,2.1-5.3,3.3-8.6,3.3h0c-5.3,0-9.9-3.2-11.8-7.9l-5.5,5.5C52,61,51.6,61.5,51.3,62
				c-0.4,0.7-0.7,1.6-0.7,2.5C50.6,67.3,52.9,69.5,55.6,69.5z"/>
		</g>
	</g>
</g>
</svg>
