<?xml version="1.0" encoding="utf-8"?>
<!-- Generator: Adobe Illustrator 27.3.1, SVG Export Plug-In . SVG Version: 6.00 Build 0)  -->
<!DOCTYPE svg PUBLIC "-//W3C//DTD SVG 1.1//EN" "http://www.w3.org/Graphics/SVG/1.1/DTD/svg11.dtd" [
	<!ENTITY ns_extend "http://ns.adobe.com/Extensibility/1.0/">
	<!ENTITY ns_ai "http://ns.adobe.com/AdobeIllustrator/10.0/">
	<!ENTITY ns_graphs "http://ns.adobe.com/Graphs/1.0/">
	<!ENTITY ns_vars "http://ns.adobe.com/Variables/1.0/">
	<!ENTITY ns_imrep "http://ns.adobe.com/ImageReplacement/1.0/">
	<!ENTITY ns_sfw "http://ns.adobe.com/SaveForWeb/1.0/">
	<!ENTITY ns_custom "http://ns.adobe.com/GenericCustomNamespace/1.0/">
	<!ENTITY ns_adobe_xpath "http://ns.adobe.com/XPath/1.0/">
]>
<svg version="1.1" id="Layer_1" xmlns:x="&ns_extend;" xmlns:i="&ns_ai;" xmlns:graph="&ns_graphs;"
	 xmlns="http://www.w3.org/2000/svg" xmlns:xlink="http://www.w3.org/1999/xlink" x="0px" y="0px" width="49px" height="60px"
	 viewBox="0 0 49 60" style="enable-background:new 0 0 49 60;" xml:space="preserve">
<style type="text/css">
	.st0{fill:#FFFFFF;}
</style>
<metadata>
	<sfw  xmlns="&ns_sfw;">
		<slices></slices>
		<sliceSourceBounds  bottomLeftOrigin="true" height="48.7" width="48.7" x="0.2" y="5.7"></sliceSourceBounds>
		<optimizationSettings>
			<targetSettings  fileFormat="PNG24Format" targetSettingsID="0">
				<PNG24Format  filtered="false" interlaced="true" matteColor="#FFFFFF" noMatteColor="true" transparency="true"></PNG24Format>
			</targetSettings>
		</optimizationSettings>
	</sfw>
</metadata>
<g id="ZENZO_Icon__x28_2023_x29__00000111898753658281945370000009593638927034432911_">
	<g>
		<path class="st0" d="M24.5,5.7C11.1,5.7,0.2,16.6,0.2,30c0,13.4,10.9,24.3,24.3,24.3c13.4,0,24.3-10.9,24.3-24.3
			C48.8,16.6,37.9,5.7,24.5,5.7z M24.5,49.2C13.9,49.2,5.3,40.6,5.3,30c0-10.6,8.6-19.2,19.2-19.2c10.6,0,19.2,8.6,19.2,19.2
			C43.7,40.6,35.1,49.2,24.5,49.2z"/>
	</g>
	<path class="st0" d="M24.5,26.2L24.5,26.2c-2.1,0-3.8,1.7-3.8,3.8c0,2.1,1.7,3.8,3.8,3.8l0,0c2.1,0,3.8-1.7,3.8-3.8
		C28.3,27.9,26.6,26.2,24.5,26.2z"/>
	<path class="st0" d="M32.5,19l-19.3,0c0,3.1,2.5,5.7,5.7,5.7l0.7,0c1.3-1.2,3-1.9,4.9-1.9h0c3,0,5.6,1.8,6.7,4.4l3.1-3.1
		c0.3-0.3,0.5-0.6,0.7-0.9c0.2-0.4,0.4-0.9,0.4-1.4C35.4,20.2,34.1,19,32.5,19z"/>
	<path class="st0" d="M16.5,41l19.3,0c0-3.1-2.5-5.7-5.7-5.7l-0.7,0c-1.3,1.2-3,1.9-4.9,1.9h0c-3,0-5.6-1.8-6.7-4.4l-3.1,3.1
		c-0.3,0.3-0.5,0.6-0.7,0.9c-0.2,0.4-0.4,0.9-0.4,1.4C13.6,39.8,14.9,41,16.5,41z"/>
</g>
</svg>
