<?xml version="1.0" encoding="utf-8"?>
<!-- Generator: Adobe Illustrator 26.5.3, SVG Export Plug-In . SVG Version: 6.00 Build 0)  -->
<!DOCTYPE svg PUBLIC "-//W3C//DTD SVG 1.1//EN" "http://www.w3.org/Graphics/SVG/1.1/DTD/svg11.dtd" [
	<!ENTITY ns_extend "http://ns.adobe.com/Extensibility/1.0/">
	<!ENTITY ns_ai "http://ns.adobe.com/AdobeIllustrator/10.0/">
	<!ENTITY ns_graphs "http://ns.adobe.com/Graphs/1.0/">
	<!ENTITY ns_vars "http://ns.adobe.com/Variables/1.0/">
	<!ENTITY ns_imrep "http://ns.adobe.com/ImageReplacement/1.0/">
	<!ENTITY ns_sfw "http://ns.adobe.com/SaveForWeb/1.0/">
	<!ENTITY ns_custom "http://ns.adobe.com/GenericCustomNamespace/1.0/">
	<!ENTITY ns_adobe_xpath "http://ns.adobe.com/XPath/1.0/">
]>
<svg version="1.1" id="ic_empty_multisend" xmlns:x="&ns_extend;" xmlns:i="&ns_ai;" xmlns:graph="&ns_graphs;"
	 xmlns="http://www.w3.org/2000/svg" xmlns:xlink="http://www.w3.org/1999/xlink" x="0px" y="0px" width="100px" height="100px"
	 viewBox="0 0 100 100" style="enable-background:new 0 0 100 100;" xml:space="preserve">
<style type="text/css">
	.st0{fill:#D6D6D6;}
	.st1{fill:#666666;}
	.st2{opacity:0.33;}
</style>
<metadata>
	<sfw  xmlns="&ns_sfw;">
		<slices></slices>
		<sliceSourceBounds  bottomLeftOrigin="true" height="92.6" width="82.3" x="8.8" y="3.6"></sliceSourceBounds>
	</sfw>
</metadata>
<g>
	<rect x="16.1" y="66.6" class="st0" width="5.5" height="11.3"/>
	<rect x="47.2" y="66.6" class="st0" width="5.5" height="11.3"/>
	<rect x="78.3" y="66.6" class="st0" width="5.5" height="11.3"/>
	<g>
		<path class="st1" d="M26.4,66.3L26.4,66.3h-3.9c-0.2,0-0.3-0.1-0.5-0.2c-0.3-0.3-0.8-0.5-1.2-0.5l0,0h-4l0,0
			c-0.5,0-0.9,0.2-1.2,0.5c-0.1,0.1-0.3,0.2-0.5,0.2h-3.9l0,0c-1.3,0-2.4,1.1-2.4,2.4V94c0,1.3,1.1,2.4,2.4,2.4l0,0h15.3l0,0
			c1.3,0,2.4-1.1,2.4-2.4V68.7C28.9,67.3,27.8,66.3,26.4,66.3z M16.7,67.3l0.3-0.1h3.6l0.3,0.1l0,0v9.5c0,0.2-0.1,0.3-0.2,0.5
			c-0.1,0.1-0.3,0.2-0.4,0.2h-1.4h-1.4c-0.2,0-0.3-0.1-0.4-0.2s-0.2-0.3-0.2-0.5L16.7,67.3L16.7,67.3z M26.5,94.6h-7.7h-7.7
			c-0.4,0-0.7-0.3-0.7-0.7l0.1-25.3c0-0.2,0.1-0.3,0.2-0.4c0.1-0.1,0.3-0.2,0.4-0.2h3.2c0.4,0,0.7,0.3,0.7,0.7v8.2l0,0l0,0
			c0,1.3,1.1,2.4,2.4,2.4l0,0h2.7l0,0c1.3,0,2.4-1.1,2.4-2.4l0,0l0,0v-8.2c0-0.4,0.3-0.7,0.7-0.7h3.2c0.2,0,0.3,0.1,0.4,0.2
			s0.2,0.3,0.2,0.4l0.1,25.3C27.1,94.3,26.9,94.6,26.5,94.6z"/>
		<path class="st1" d="M18.8,76.4L18.8,76.4c0.6,0,1.2-0.5,1.2-1.2c0-0.6-0.5-1.2-1.2-1.2l0,0c-0.6,0-1.2,0.5-1.2,1.2
			S18.2,76.4,18.8,76.4z"/>
		<path class="st1" d="M57.5,66.3L57.5,66.3h-3.9c-0.2,0-0.3-0.1-0.5-0.2c-0.3-0.3-0.8-0.5-1.2-0.5l0,0h-4l0,0
			c-0.5,0-0.9,0.2-1.2,0.5c-0.1,0.1-0.3,0.2-0.5,0.2h-3.9l0,0c-1.3,0-2.4,1.1-2.4,2.4V94c0,1.3,1.1,2.4,2.4,2.4l0,0h15.3l0,0
			c1.3,0,2.4-1.1,2.4-2.4V68.7C59.9,67.3,58.9,66.3,57.5,66.3z M47.8,67.3l0.3-0.1h3.6l0.3,0.1v9.5c0,0.2-0.1,0.3-0.2,0.5
			c-0.1,0.1-0.3,0.2-0.4,0.2H50c-0.2,0-0.4,0-0.6,0c-0.5,0-0.9,0.1-1.3-0.2c-0.3-0.3-0.2-0.8-0.2-1.2c0-0.5,0-1.1,0-1.6
			c0-1.4,0-2.8,0-4.2C47.9,69.3,47.9,68.4,47.8,67.3C47.8,67.4,47.8,67.3,47.8,67.3z M57.6,94.6h-7.7h-7.7c-0.4,0-0.7-0.3-0.7-0.7
			l0.1-25.3c0-0.2,0.1-0.3,0.2-0.4c0.1-0.1,0.3-0.2,0.4-0.2h3.2c0.4,0,0.7,0.3,0.7,0.7v8.2l0,0l0,0c0,1.3,1.1,2.4,2.4,2.4l0,0h2.7
			l0,0c1.3,0,2.4-1.1,2.4-2.4l0,0l0,0v-8.2c0-0.4,0.3-0.7,0.7-0.7h3.2c0.2,0,0.3,0.1,0.4,0.2c0.1,0.1,0.2,0.3,0.2,0.4l0.1,25.3
			C58.2,94.3,57.9,94.6,57.6,94.6z"/>
		<path class="st1" d="M49.9,76.4L49.9,76.4c0.6,0,1.2-0.5,1.2-1.2c0-0.6-0.5-1.2-1.2-1.2l0,0c-0.6,0-1.2,0.5-1.2,1.2
			S49.3,76.4,49.9,76.4z"/>
		<path class="st1" d="M88.6,66.3L88.6,66.3h-3.9c-0.2,0-0.3-0.1-0.5-0.2c-0.3-0.3-0.8-0.5-1.2-0.5l0,0h-4l0,0
			c-0.5,0-0.9,0.2-1.2,0.5c-0.1,0.1-0.3,0.2-0.5,0.2h-3.9l0,0c-1.3,0-2.4,1.1-2.4,2.4V94c0,1.3,1.1,2.4,2.4,2.4l0,0h15.3l0,0
			c1.3,0,2.4-1.1,2.4-2.4V68.7C91,67.3,90,66.3,88.6,66.3z M78.9,67.3l0.3-0.1h3.6l0.3,0.1l0,0v9.5c0,0.2-0.1,0.3-0.2,0.5
			c-0.1,0.1-0.3,0.2-0.4,0.2h-1.4h-1.4c-0.2,0-0.3-0.1-0.4-0.2s-0.2-0.3-0.2-0.5L78.9,67.3L78.9,67.3z M88.8,94.6h-7.7h-7.7
			c-0.4,0-0.7-0.3-0.7-0.7l0.1-25.3c0-0.2,0.1-0.3,0.2-0.4s0.3-0.2,0.4-0.2h3.2c0.4,0,0.7,0.3,0.7,0.7v8.2l0,0l0,0
			c0,1.3,1.1,2.4,2.4,2.4l0,0h2.7l0,0c1.3,0,2.4-1.1,2.4-2.4l0,0l0,0v-8.2c0-0.4,0.3-0.7,0.7-0.7h3.2c0.2,0,0.3,0.1,0.4,0.2
			s0.2,0.3,0.2,0.4l0.1,25.3C89.3,94.3,89,94.6,88.8,94.6z"/>
		<path class="st1" d="M81,76.4L81,76.4c0.6,0,1.2-0.5,1.2-1.2c0-0.6-0.5-1.2-1.2-1.2l0,0c-0.6,0-1.2,0.5-1.2,1.2S80.3,76.4,81,76.4
			z"/>
		<path class="st1" d="M18.8,63.7c0.6,0,1-0.4,1-1v-7.4h29.1v6.3c0,0.6,0.4,1,1,1s1-0.4,1-1v-6.3H80v7c0,0.6,0.4,1,1,1s1-0.4,1-1v-7
			c0-1.1-0.9-2-2-2H50.9v-5.2c0-0.6-0.4-1-1-1s-1,0.4-1,1v5.2H19.8c-1.1,0-2,0.9-2,2v7.4C17.8,63.2,18.3,63.7,18.8,63.7z"/>
		<g class="st2">
			<path class="st1" d="M18.9,81.1c-3.3,0-6,2.7-6,6c0,3.3,2.7,6,6,6c3.3,0,6-2.7,6-6C24.9,83.8,22.2,81.1,18.9,81.1 M18.9,91.9
				c-2.6,0-4.8-2.1-4.8-4.8c0-2.6,2.1-4.8,4.8-4.8s4.8,2.1,4.8,4.8C23.6,89.8,21.5,91.9,18.9,91.9"/>
			<path class="st1" d="M18.9,86.2L18.9,86.2c-0.5,0-0.9,0.4-0.9,0.9c0,0.5,0.4,0.9,0.9,0.9c0.5,0,0.9-0.4,0.9-0.9
				C19.8,86.6,19.4,86.2,18.9,86.2"/>
			<path class="st1" d="M20.9,84.4l-4.8,0c0,0.8,0.6,1.4,1.4,1.4l0.2,0c0.3-0.3,0.7-0.5,1.2-0.5h0c0.7,0,1.4,0.5,1.7,1.1l0.8-0.8
				c0.1-0.1,0.1-0.1,0.2-0.2c0.1-0.1,0.1-0.2,0.1-0.4C21.6,84.7,21.3,84.4,20.9,84.4"/>
			<path class="st1" d="M16.9,89.9l4.8,0c0-0.8-0.6-1.4-1.4-1.4l-0.2,0c-0.3,0.3-0.7,0.5-1.2,0.5h0c-0.7,0-1.4-0.5-1.7-1.1l-0.8,0.8
				c-0.1,0.1-0.1,0.1-0.2,0.2c-0.1,0.1-0.1,0.2-0.1,0.4C16.2,89.6,16.5,89.9,16.9,89.9"/>
		</g>
		<g class="st2">
			<path class="st1" d="M49.8,81.1c-3.3,0-6,2.7-6,6c0,3.3,2.7,6,6,6c3.3,0,6-2.7,6-6C55.8,83.8,53.1,81.1,49.8,81.1 M49.8,91.9
				c-2.6,0-4.8-2.1-4.8-4.8c0-2.6,2.1-4.8,4.8-4.8c2.6,0,4.8,2.1,4.8,4.8C54.5,89.8,52.4,91.9,49.8,91.9"/>
			<path class="st1" d="M49.8,86.2L49.8,86.2c-0.5,0-0.9,0.4-0.9,0.9c0,0.5,0.4,0.9,0.9,0.9c0.5,0,0.9-0.4,0.9-0.9
				C50.7,86.6,50.3,86.2,49.8,86.2"/>
			<path class="st1" d="M51.8,84.4l-4.8,0c0,0.8,0.6,1.4,1.4,1.4l0.2,0c0.3-0.3,0.7-0.5,1.2-0.5h0c0.7,0,1.4,0.5,1.7,1.1l0.8-0.8
				c0.1-0.1,0.1-0.1,0.2-0.2c0.1-0.1,0.1-0.2,0.1-0.4C52.5,84.7,52.2,84.4,51.8,84.4"/>
			<path class="st1" d="M47.8,89.9l4.8,0c0-0.8-0.6-1.4-1.4-1.4l-0.2,0c-0.3,0.3-0.7,0.5-1.2,0.5h0c-0.7,0-1.4-0.5-1.7-1.1l-0.8,0.8
				c-0.1,0.1-0.1,0.1-0.2,0.2c-0.1,0.1-0.1,0.2-0.1,0.4C47.1,89.6,47.4,89.9,47.8,89.9"/>
		</g>
		<g class="st2">
			<path class="st1" d="M81.2,81.1c-3.3,0-6,2.7-6,6c0,3.3,2.7,6,6,6c3.3,0,6-2.7,6-6C87.3,83.8,84.5,81.1,81.2,81.1 M81.2,91.9
				c-2.6,0-4.8-2.1-4.8-4.8c0-2.6,2.1-4.8,4.8-4.8c2.6,0,4.8,2.1,4.8,4.8C86,89.8,83.8,91.9,81.2,91.9"/>
			<path class="st1" d="M81.2,86.2L81.2,86.2c-0.5,0-0.9,0.4-0.9,0.9c0,0.5,0.4,0.9,0.9,0.9c0.5,0,0.9-0.4,0.9-0.9
				C82.1,86.6,81.7,86.2,81.2,86.2"/>
			<path class="st1" d="M83.2,84.4l-4.8,0c0,0.8,0.6,1.4,1.4,1.4l0.2,0c0.3-0.3,0.7-0.5,1.2-0.5h0c0.7,0,1.4,0.5,1.7,1.1l0.8-0.8
				c0.1-0.1,0.1-0.1,0.2-0.2c0.1-0.1,0.1-0.2,0.1-0.4C83.9,84.7,83.6,84.4,83.2,84.4"/>
			<path class="st1" d="M79.2,89.9l4.8,0c0-0.8-0.6-1.4-1.4-1.4l-0.2,0c-0.3,0.3-0.7,0.5-1.2,0.5h0c-0.7,0-1.4-0.5-1.7-1.1l-0.8,0.8
				c-0.1,0.1-0.1,0.1-0.2,0.2c-0.1,0.1-0.1,0.2-0.1,0.4C78.5,89.6,78.8,89.9,79.2,89.9"/>
		</g>
	</g>
	<g>
		<path class="st1" d="M50,3.8c-11.3,0-20.4,9.2-20.4,20.4c0,11.3,9.2,20.4,20.4,20.4c11.3,0,20.4-9.2,20.4-20.4
			C70.4,13,61.3,3.8,50,3.8 M50,40.3c-8.9,0-16.1-7.2-16.1-16.1c0-8.9,7.2-16.1,16.1-16.1s16.1,7.2,16.1,16.1
			C66.1,33.1,58.9,40.3,50,40.3"/>
		<path class="st1" d="M50,21.1L50,21.1c-1.7,0-3.2,1.4-3.2,3.2c0,1.7,1.4,3.2,3.2,3.2c1.7,0,3.2-1.4,3.2-3.2
			C53.2,22.5,51.7,21.1,50,21.1"/>
		<path class="st1" d="M56.7,15l-16.2,0c0,2.6,2.1,4.8,4.8,4.8l0.6,0c1.1-1,2.5-1.6,4.1-1.6h0c2.5,0,4.7,1.5,5.6,3.7l2.6-2.6
			c0.2-0.2,0.4-0.5,0.6-0.8c0.2-0.4,0.3-0.8,0.3-1.2C59.1,16,58,15,56.7,15"/>
		<path class="st1" d="M43.3,33.5l16.2,0c0-2.6-2.1-4.8-4.8-4.8l-0.6,0c-1.1,1-2.5,1.6-4.1,1.6h0c-2.5,0-4.7-1.5-5.6-3.7l-2.6,2.6
			c-0.2,0.2-0.4,0.5-0.6,0.8c-0.2,0.4-0.3,0.8-0.3,1.2C40.9,32.4,42,33.5,43.3,33.5"/>
	</g>
</g>
</svg>
