<?xml version="1.0" encoding="utf-8"?>
<!-- Generator: Adobe Illustrator 27.3.1, SVG Export Plug-In . SVG Version: 6.00 Build 0)  -->
<!DOCTYPE svg PUBLIC "-//W3C//DTD SVG 1.1//EN" "http://www.w3.org/Graphics/SVG/1.1/DTD/svg11.dtd" [
	<!ENTITY ns_extend "http://ns.adobe.com/Extensibility/1.0/">
	<!ENTITY ns_ai "http://ns.adobe.com/AdobeIllustrator/10.0/">
	<!ENTITY ns_graphs "http://ns.adobe.com/Graphs/1.0/">
	<!ENTITY ns_vars "http://ns.adobe.com/Variables/1.0/">
	<!ENTITY ns_imrep "http://ns.adobe.com/ImageReplacement/1.0/">
	<!ENTITY ns_sfw "http://ns.adobe.com/SaveForWeb/1.0/">
	<!ENTITY ns_custom "http://ns.adobe.com/GenericCustomNamespace/1.0/">
	<!ENTITY ns_adobe_xpath "http://ns.adobe.com/XPath/1.0/">
]>
<svg version="1.1" id="ic_empty_Dark_transactions" xmlns:x="&ns_extend;" xmlns:i="&ns_ai;" xmlns:graph="&ns_graphs;"
	 xmlns="http://www.w3.org/2000/svg" xmlns:xlink="http://www.w3.org/1999/xlink" x="0px" y="0px" width="150px" height="150px"
	 viewBox="0 0 150 150" style="enable-background:new 0 0 150 150;" xml:space="preserve">
<style type="text/css">
	.st0{fill:none;}
	.st1{fill:#8778DC;}
	.st2{fill:#FFFFFF;}
	.st3{fill:#00D3D5;}
</style>
<metadata>
	<sfw  xmlns="&ns_sfw;">
		<slices></slices>
		<sliceSourceBounds  bottomLeftOrigin="true" height="112.8" width="113.1" x="-6.9" y="-6.6"></sliceSourceBounds>
	</sfw>
</metadata>
<path id="Rectangle_4697" class="st0" d="M25,25h100v100H25V25z"/>
<g>
	<circle class="st1" cx="75" cy="74.9" r="31.9"/>
	<circle class="st1" cx="75.1" cy="74.9" r="23.8"/>
	<g id="ZENZO_Icon__x28_2023_x29__00000111898753658281945370000009593638927034432911_">
		<g>
			<path class="st2" d="M75.1,47.7c-15,0-27.3,12.2-27.3,27.3s12.2,27.3,27.3,27.3s27.3-12.2,27.3-27.3S90.2,47.7,75.1,47.7z
				 M75.1,96.3c-11.8,0-21.4-9.6-21.4-21.4s9.6-21.4,21.4-21.4s21.4,9.6,21.4,21.4S87,96.3,75.1,96.3z"/>
		</g>
		<path class="st2" d="M75.1,70.7L75.1,70.7c-2.3,0-4.3,1.9-4.3,4.3c0,2.3,1.9,4.3,4.3,4.3l0,0c2.3,0,4.3-1.9,4.3-4.3
			C79.4,72.7,77.4,70.7,75.1,70.7z"/>
		<path class="st2" d="M84,62.6H62.4c0,3.5,2.8,6.4,6.4,6.4h0.8c1.5-1.3,3.3-2.1,5.5-2.1l0,0c3.3,0,6.3,2,7.4,4.9l3.5-3.5
			c0.4-0.4,0.5-0.7,0.8-1.1c0.3-0.5,0.4-1.1,0.4-1.6C87.2,64,85.9,62.6,84,62.6z"/>
		<path class="st2" d="M66.2,87.3h21.7c0-3.5-2.8-6.4-6.4-6.4h-0.8c-1.5,1.3-3.3,2.1-5.5,2.1l0,0c-3.3,0-6.3-2-7.4-4.9l-3.6,3.5
			c-0.4,0.4-0.5,0.7-0.8,1.1c-0.3,0.5-0.4,1.1-0.4,1.6C63,85.8,64.4,87.3,66.2,87.3z"/>
	</g>
	<g>
		<path class="st1" d="M40.4,40h-8.9c-0.4,0-0.5-0.4-0.3-0.7l8.9-10.5c0.1-0.1,0.5-0.1,0.7,0l8.9,10.5c0.3,0.3,0,0.7-0.3,0.7H40.4z"
			/>
	</g>
	<g>
		<path class="st3" d="M130.9,104.9c-0.5-1.1-1.6-1.7-2.8-1.7h-7c-0.3,0-0.4-0.3-0.4-0.4V67.5c0-0.8-0.5-1.3-1.3-1.3
			c-0.8,0-1.3,0.5-1.3,1.3v35.1c0,1.7,1.5,3.1,3.1,3.1h7c0.1,0,0.3,0.1,0.3,0.3c0.1,0.1,0.1,0.3,0,0.4L109,128.9
			c-0.1,0.1-0.1,0.1-0.3,0.1s-0.1,0-0.3-0.1l-19.2-22.1c0-0.1,0-0.3,0-0.4c0-0.1,0.1-0.3,0.3-0.3h10.6c0.8,0,1.3-0.5,1.3-1.3
			c0-0.8-0.5-1.3-1.3-1.3H92c9.8-5.8,16.3-16.4,16.3-28.6c0-18.4-14.9-33.2-33.2-33.2c-4.4,0-8.6,0.9-12.4,2.4
			c0.1-0.8-0.2-1.6-0.7-2.3L42.7,19.9c-0.5-0.7-1.5-1.1-2.3-1.1c-0.9,0-1.7,0.4-2.3,1.1L18.7,42.3c-0.7,0.9-0.9,2.1-0.4,3.2
			c0.5,1.1,1.6,1.7,2.8,1.7h7c0.3,0,0.4,0.3,0.4,0.4v35.2c0,0.8,0.5,1.3,1.3,1.3c0.8,0,1.3-0.5,1.3-1.3V47.8c0-1.7-1.5-3.1-3.1-3.1
			h-7c-0.1,0-0.3-0.1-0.3-0.3c-0.1-0.1-0.1-0.3,0-0.4l19.3-22.5c0.1-0.1,0.1-0.1,0.3-0.1c0,0,0.1,0,0.3,0.1l19.2,21.8
			c0,0.1,0,0.3,0,0.4s-0.1,0.3-0.3,0.3H48.9c-0.8,0-1.3,0.5-1.3,1.3c0,0.8,0.5,1.3,1.3,1.3h8.5C48,52.6,41.7,63,41.7,74.9
			c0,18.4,14.9,33.2,33.2,33.2c4.1,0,8-0.7,11.6-2.1c-0.1,0.8,0.1,1.7,0.7,2.4l19.2,22.1c0.5,0.7,1.3,1.1,2.3,1.1s1.7-0.4,2.3-1.1
			l19.4-22.5C131.1,107.1,131.4,105.9,130.9,104.9z M44.4,74.9C44.4,58,58.1,44.3,75,44.3s30.6,13.7,30.6,30.6
			c0,16.9-13.7,30.6-30.6,30.6S44.4,91.8,44.4,74.9z"/>
		<g>
			<path class="st1" d="M108.8,110.4h8.9c0.4,0,0.5,0.4,0.3,0.7l-8.9,10.5c-0.1,0.1-0.5,0.1-0.7,0l-8.9-10.5c-0.3-0.3,0-0.7,0.3-0.7
				H108.8z"/>
		</g>
	</g>
</g>
</svg>
