<?xml version="1.0" encoding="utf-8"?>
<!-- Generator: Adobe Illustrator 26.5.3, SVG Export Plug-In . SVG Version: 6.00 Build 0)  -->
<!DOCTYPE svg PUBLIC "-//W3C//DTD SVG 1.1//EN" "http://www.w3.org/Graphics/SVG/1.1/DTD/svg11.dtd" [
	<!ENTITY ns_extend "http://ns.adobe.com/Extensibility/1.0/">
	<!ENTITY ns_ai "http://ns.adobe.com/AdobeIllustrator/10.0/">
	<!ENTITY ns_graphs "http://ns.adobe.com/Graphs/1.0/">
	<!ENTITY ns_vars "http://ns.adobe.com/Variables/1.0/">
	<!ENTITY ns_imrep "http://ns.adobe.com/ImageReplacement/1.0/">
	<!ENTITY ns_sfw "http://ns.adobe.com/SaveForWeb/1.0/">
	<!ENTITY ns_custom "http://ns.adobe.com/GenericCustomNamespace/1.0/">
	<!ENTITY ns_adobe_xpath "http://ns.adobe.com/XPath/1.0/">
]>
<svg version="1.1" id="ic_empty_dark_multisend" xmlns:x="&ns_extend;" xmlns:i="&ns_ai;" xmlns:graph="&ns_graphs;"
	 xmlns="http://www.w3.org/2000/svg" xmlns:xlink="http://www.w3.org/1999/xlink" x="0px" y="0px" width="100px" height="100px"
	 viewBox="0 0 100 100" style="enable-background:new 0 0 100 100;" xml:space="preserve">
<style type="text/css">
	.st0{fill:#00D3D5;}
	.st1{fill:#8778DC;}
</style>
<metadata>
	<sfw  xmlns="&ns_sfw;">
		<slices></slices>
		<sliceSourceBounds  bottomLeftOrigin="true" height="92.6" width="82.3" x="8.8" y="3.7"></sliceSourceBounds>
	</sfw>
</metadata>
<g>
	<rect x="16.1" y="66.5" class="st0" width="5.5" height="11.3"/>
	<rect x="47.2" y="66.5" class="st0" width="5.5" height="11.3"/>
	<rect x="78.3" y="66.5" class="st0" width="5.5" height="11.3"/>
	<g>
		<path class="st1" d="M26.4,66.2L26.4,66.2h-3.9c-0.2,0-0.3-0.1-0.5-0.2c-0.3-0.3-0.8-0.5-1.2-0.5l0,0h-4l0,0
			c-0.5,0-0.9,0.2-1.2,0.5c-0.1,0.1-0.3,0.2-0.5,0.2h-3.9l0,0c-1.3,0-2.4,1.1-2.4,2.4v25.3c0,1.3,1.1,2.4,2.4,2.4l0,0h15.3l0,0
			c1.3,0,2.4-1.1,2.4-2.4V68.6C28.9,67.2,27.8,66.2,26.4,66.2z M16.7,67.2l0.3-0.1h3.6l0.3,0.1l0,0v9.5c0,0.2-0.1,0.3-0.2,0.5
			c-0.1,0.1-0.3,0.2-0.4,0.2h-1.4h-1.4c-0.2,0-0.3-0.1-0.4-0.2s-0.2-0.3-0.2-0.5L16.7,67.2L16.7,67.2z M26.5,94.5h-7.7h-7.7
			c-0.4,0-0.7-0.3-0.7-0.7l0.1-25.3c0-0.2,0.1-0.3,0.2-0.4c0.1-0.1,0.3-0.2,0.4-0.2h3.2c0.4,0,0.7,0.3,0.7,0.7v8.2l0,0l0,0
			c0,1.3,1.1,2.4,2.4,2.4l0,0h2.7l0,0c1.3,0,2.4-1.1,2.4-2.4l0,0l0,0v-8.2c0-0.4,0.3-0.7,0.7-0.7h3.2c0.2,0,0.3,0.1,0.4,0.2
			s0.2,0.3,0.2,0.4l0.1,25.3C27.1,94.2,26.9,94.5,26.5,94.5z"/>
		<path class="st1" d="M18.8,76.3L18.8,76.3c0.6,0,1.2-0.5,1.2-1.2c0-0.6-0.5-1.2-1.2-1.2l0,0c-0.6,0-1.2,0.5-1.2,1.2
			S18.2,76.3,18.8,76.3z"/>
		<path class="st1" d="M57.5,66.2L57.5,66.2h-3.9c-0.2,0-0.3-0.1-0.5-0.2c-0.3-0.3-0.8-0.5-1.2-0.5l0,0h-4l0,0
			c-0.5,0-0.9,0.2-1.2,0.5c-0.1,0.1-0.3,0.2-0.5,0.2h-3.9l0,0c-1.3,0-2.4,1.1-2.4,2.4v25.3c0,1.3,1.1,2.4,2.4,2.4l0,0h15.3l0,0
			c1.3,0,2.4-1.1,2.4-2.4V68.6C59.9,67.2,58.9,66.2,57.5,66.2z M47.8,67.2l0.3-0.1h3.6l0.3,0.1v9.5c0,0.2-0.1,0.3-0.2,0.5
			c-0.1,0.1-0.3,0.2-0.4,0.2H50c-0.2,0-0.4,0-0.6,0c-0.5,0-0.9,0.1-1.3-0.2c-0.3-0.3-0.2-0.8-0.2-1.2c0-0.5,0-1.1,0-1.6
			c0-1.4,0-2.8,0-4.2C47.9,69.2,47.9,68.3,47.8,67.2C47.8,67.3,47.8,67.2,47.8,67.2z M57.6,94.5h-7.7h-7.7c-0.4,0-0.7-0.3-0.7-0.7
			l0.1-25.3c0-0.2,0.1-0.3,0.2-0.4s0.3-0.2,0.4-0.2h3.2c0.4,0,0.7,0.3,0.7,0.7v8.2l0,0l0,0c0,1.3,1.1,2.4,2.4,2.4l0,0h2.7l0,0
			c1.3,0,2.4-1.1,2.4-2.4l0,0l0,0v-8.2c0-0.4,0.3-0.7,0.7-0.7h3.2c0.2,0,0.3,0.1,0.4,0.2c0.1,0.1,0.2,0.3,0.2,0.4l0.1,25.3
			C58.2,94.2,57.9,94.5,57.6,94.5z"/>
		<path class="st1" d="M49.9,76.3L49.9,76.3c0.6,0,1.2-0.5,1.2-1.2c0-0.6-0.5-1.2-1.2-1.2l0,0c-0.6,0-1.2,0.5-1.2,1.2
			S49.3,76.3,49.9,76.3z"/>
		<path class="st1" d="M88.6,66.2L88.6,66.2h-3.9c-0.2,0-0.3-0.1-0.5-0.2c-0.3-0.3-0.8-0.5-1.2-0.5l0,0h-4l0,0
			c-0.5,0-0.9,0.2-1.2,0.5c-0.1,0.1-0.3,0.2-0.5,0.2h-3.9l0,0c-1.3,0-2.4,1.1-2.4,2.4v25.3c0,1.3,1.1,2.4,2.4,2.4l0,0h15.3l0,0
			c1.3,0,2.4-1.1,2.4-2.4V68.6C91,67.2,90,66.2,88.6,66.2z M78.9,67.2l0.3-0.1h3.6l0.3,0.1l0,0v9.5c0,0.2-0.1,0.3-0.2,0.5
			c-0.1,0.1-0.3,0.2-0.4,0.2h-1.4h-1.4c-0.2,0-0.3-0.1-0.4-0.2s-0.2-0.3-0.2-0.5L78.9,67.2L78.9,67.2z M88.8,94.5h-7.7h-7.7
			c-0.4,0-0.7-0.3-0.7-0.7l0.1-25.3c0-0.2,0.1-0.3,0.2-0.4s0.3-0.2,0.4-0.2h3.2c0.4,0,0.7,0.3,0.7,0.7v8.2l0,0l0,0
			c0,1.3,1.1,2.4,2.4,2.4l0,0h2.7l0,0c1.3,0,2.4-1.1,2.4-2.4l0,0l0,0v-8.2c0-0.4,0.3-0.7,0.7-0.7h3.2c0.2,0,0.3,0.1,0.4,0.2
			s0.2,0.3,0.2,0.4l0.1,25.3C89.3,94.2,89,94.5,88.8,94.5z"/>
		<path class="st1" d="M81,76.3L81,76.3c0.6,0,1.2-0.5,1.2-1.2c0-0.6-0.5-1.2-1.2-1.2l0,0c-0.6,0-1.2,0.5-1.2,1.2S80.3,76.3,81,76.3
			z"/>
		<path class="st1" d="M18.8,63.6c0.6,0,1-0.4,1-1v-7.4h29.1v6.3c0,0.6,0.4,1,1,1s1-0.4,1-1v-6.3H80v7c0,0.6,0.4,1,1,1s1-0.4,1-1v-7
			c0-1.1-0.9-2-2-2H50.9V48c0-0.6-0.4-1-1-1s-1,0.4-1,1v5.2H19.8c-1.1,0-2,0.9-2,2v7.4C17.8,63.1,18.3,63.6,18.8,63.6z"/>
		<g>
			<path class="st1" d="M18.9,81c-3.3,0-6,2.7-6,6c0,3.3,2.7,6,6,6c3.3,0,6-2.7,6-6C25,83.7,22.3,81,18.9,81 M18.9,91.8
				c-2.6,0-4.8-2.1-4.8-4.8c0-2.6,2.1-4.8,4.8-4.8s4.8,2.1,4.8,4.8C23.7,89.7,21.6,91.8,18.9,91.8"/>
			<path class="st1" d="M18.9,86.1L18.9,86.1c-0.5,0-0.9,0.4-0.9,0.9c0,0.5,0.4,0.9,0.9,0.9c0.5,0,0.9-0.4,0.9-0.9
				C19.9,86.5,19.4,86.1,18.9,86.1"/>
			<path class="st1" d="M20.9,84.3l-4.8,0c0,0.8,0.6,1.4,1.4,1.4l0.2,0c0.3-0.3,0.7-0.5,1.2-0.5h0c0.7,0,1.4,0.5,1.7,1.1l0.8-0.8
				c0.1-0.1,0.1-0.1,0.2-0.2c0.1-0.1,0.1-0.2,0.1-0.4C21.6,84.6,21.3,84.3,20.9,84.3"/>
			<path class="st1" d="M16.9,89.8l4.8,0c0-0.8-0.6-1.4-1.4-1.4l-0.2,0c-0.3,0.3-0.7,0.5-1.2,0.5h0c-0.7,0-1.4-0.5-1.7-1.1l-0.8,0.8
				c-0.1,0.1-0.1,0.1-0.2,0.2c-0.1,0.1-0.1,0.2-0.1,0.4C16.2,89.5,16.6,89.8,16.9,89.8"/>
		</g>
		<g>
			<path class="st1" d="M49.8,81c-3.3,0-6,2.7-6,6c0,3.3,2.7,6,6,6c3.3,0,6-2.7,6-6C55.9,83.7,53.2,81,49.8,81 M49.8,91.8
				c-2.6,0-4.8-2.1-4.8-4.8c0-2.6,2.1-4.8,4.8-4.8c2.6,0,4.8,2.1,4.8,4.8C54.6,89.7,52.4,91.8,49.8,91.8"/>
			<path class="st1" d="M49.8,86.1L49.8,86.1c-0.5,0-0.9,0.4-0.9,0.9c0,0.5,0.4,0.9,0.9,0.9c0.5,0,0.9-0.4,0.9-0.9
				C50.8,86.5,50.3,86.1,49.8,86.1"/>
			<path class="st1" d="M51.8,84.3l-4.8,0c0,0.8,0.6,1.4,1.4,1.4l0.2,0c0.3-0.3,0.7-0.5,1.2-0.5h0c0.7,0,1.4,0.5,1.7,1.1l0.8-0.8
				c0.1-0.1,0.1-0.1,0.2-0.2c0.1-0.1,0.1-0.2,0.1-0.4C52.5,84.6,52.2,84.3,51.8,84.3"/>
			<path class="st1" d="M47.8,89.8l4.8,0c0-0.8-0.6-1.4-1.4-1.4l-0.2,0c-0.3,0.3-0.7,0.5-1.2,0.5h0c-0.7,0-1.4-0.5-1.7-1.1l-0.8,0.8
				c-0.1,0.1-0.1,0.1-0.2,0.2c-0.1,0.1-0.1,0.2-0.1,0.4C47.1,89.5,47.4,89.8,47.8,89.8"/>
		</g>
		<g>
			<path class="st1" d="M81.3,81c-3.3,0-6,2.7-6,6c0,3.3,2.7,6,6,6c3.3,0,6-2.7,6-6C87.3,83.7,84.6,81,81.3,81 M81.3,91.8
				c-2.6,0-4.8-2.1-4.8-4.8c0-2.6,2.1-4.8,4.8-4.8c2.6,0,4.8,2.1,4.8,4.8C86,89.7,83.9,91.8,81.3,91.8"/>
			<path class="st1" d="M81.3,86.1L81.3,86.1c-0.5,0-0.9,0.4-0.9,0.9c0,0.5,0.4,0.9,0.9,0.9c0.5,0,0.9-0.4,0.9-0.9
				C82.2,86.5,81.8,86.1,81.3,86.1"/>
			<path class="st1" d="M83.3,84.3l-4.8,0c0,0.8,0.6,1.4,1.4,1.4l0.2,0c0.3-0.3,0.7-0.5,1.2-0.5h0c0.7,0,1.4,0.5,1.7,1.1l0.8-0.8
				c0.1-0.1,0.1-0.1,0.2-0.2c0.1-0.1,0.1-0.2,0.1-0.4C84,84.6,83.6,84.3,83.3,84.3"/>
			<path class="st1" d="M79.3,89.8l4.8,0c0-0.8-0.6-1.4-1.4-1.4l-0.2,0c-0.3,0.3-0.7,0.5-1.2,0.5h0c-0.7,0-1.4-0.5-1.7-1.1l-0.8,0.8
				c-0.1,0.1-0.1,0.1-0.2,0.2c-0.1,0.1-0.1,0.2-0.1,0.4C78.6,89.5,78.9,89.8,79.3,89.8"/>
		</g>
	</g>
	<g>
		<path class="st1" d="M50,3.7c-11.3,0-20.4,9.2-20.4,20.4c0,11.3,9.2,20.4,20.4,20.4c11.3,0,20.4-9.2,20.4-20.4
			C70.5,12.9,61.3,3.7,50,3.7 M50,40.2C41.2,40.2,34,33,34,24.1C34,15.3,41.2,8,50,8s16.1,7.2,16.1,16.1C66.1,33,58.9,40.2,50,40.2"
			/>
		<path class="st1" d="M50.1,21L50.1,21c-1.7,0-3.2,1.4-3.2,3.2c0,1.7,1.4,3.2,3.2,3.2c1.7,0,3.2-1.4,3.2-3.2
			C53.2,22.4,51.8,21,50.1,21"/>
		<path class="st1" d="M56.8,14.9l-16.2,0c0,2.6,2.1,4.8,4.8,4.8l0.6,0c1.1-1,2.5-1.6,4.1-1.6h0c2.5,0,4.7,1.5,5.6,3.7l2.6-2.6
			c0.2-0.2,0.4-0.5,0.6-0.8c0.2-0.4,0.3-0.8,0.3-1.2C59.2,15.9,58.1,14.9,56.8,14.9"/>
		<path class="st1" d="M43.3,33.4l16.2,0c0-2.6-2.1-4.8-4.8-4.8l-0.6,0c-1.1,1-2.5,1.6-4.1,1.6h0c-2.5,0-4.7-1.5-5.6-3.7l-2.6,2.6
			c-0.2,0.2-0.4,0.5-0.6,0.8c-0.2,0.4-0.3,0.8-0.3,1.2C40.9,32.3,42,33.4,43.3,33.4"/>
	</g>
</g>
</svg>
