<?xml version="1.0" encoding="utf-8"?>
<!-- Generator: Adobe Illustrator 26.5.3, SVG Export Plug-In . SVG Version: 6.00 Build 0)  -->
<!DOCTYPE svg PUBLIC "-//W3C//DTD SVG 1.1//EN" "http://www.w3.org/Graphics/SVG/1.1/DTD/svg11.dtd" [
	<!ENTITY ns_extend "http://ns.adobe.com/Extensibility/1.0/">
	<!ENTITY ns_ai "http://ns.adobe.com/AdobeIllustrator/10.0/">
	<!ENTITY ns_graphs "http://ns.adobe.com/Graphs/1.0/">
	<!ENTITY ns_vars "http://ns.adobe.com/Variables/1.0/">
	<!ENTITY ns_imrep "http://ns.adobe.com/ImageReplacement/1.0/">
	<!ENTITY ns_sfw "http://ns.adobe.com/SaveForWeb/1.0/">
	<!ENTITY ns_custom "http://ns.adobe.com/GenericCustomNamespace/1.0/">
	<!ENTITY ns_adobe_xpath "http://ns.adobe.com/XPath/1.0/">
]>
<svg version="1.1" id="ic-transaction-staked" xmlns:x="&ns_extend;" xmlns:i="&ns_ai;" xmlns:graph="&ns_graphs;"
	 xmlns="http://www.w3.org/2000/svg" xmlns:xlink="http://www.w3.org/1999/xlink" x="0px" y="0px" width="24px" height="24px"
	 viewBox="0 0 24 24" style="enable-background:new 0 0 24 24;" xml:space="preserve">
<style type="text/css">
	.st0{opacity:0.33;}
	.st1{fill-rule:evenodd;clip-rule:evenodd;fill:#FFFFFF;}
	.st2{fill:#FFFFFF;}
</style>
<metadata>
	<sfw  xmlns="&ns_sfw;">
		<slices></slices>
		<sliceSourceBounds  bottomLeftOrigin="true" height="19.6" width="21" x="1.5" y="2.2"></sliceSourceBounds>
	</sfw>
</metadata>
<g class="st0">
	<path class="st1" d="M3.7,6.1C3.6,5.9,3.6,5.9,3.5,5.8C3.3,5.5,3.3,5.2,3.5,5C3.7,4.8,3.8,4.7,4,4.6c0.2-0.2,0.6-0.2,0.8,0
		C4.8,4.6,4.9,4.7,5,4.8C5.9,4.1,6.9,3.6,7.8,3c0.4-0.2,0.8-0.5,1.1-0.7c0.2-0.1,0.5-0.1,0.7,0.1c0.2,0.2,0.2,0.4,0,0.7
		C8.9,4.1,8.1,5.2,7.4,6.2C7.3,6.3,7.2,6.4,7.1,6.6c0,0,0,0.1,0,0.1c0.1,0.2,0.3,0.4,0.4,0.6c0.4,0.7,1,1.2,1.5,1.8
		c0.9,0.9,1.8,1.8,2.6,2.6c0.3,0.3,0.3,0.3,0.6,0c1.2-1.2,2.4-2.4,3.6-3.7c0.1-0.1,0.2-0.2,0.2-0.3c0.3-0.4,0.5-0.7,0.8-1
		c-0.9-1.2-1.7-2.4-2.5-3.6c-0.2-0.2-0.2-0.5,0-0.7c0.2-0.2,0.4-0.2,0.7-0.1c1.1,0.7,2.2,1.3,3.3,2c0.2,0.1,0.4,0.3,0.5,0.4
		c0.1,0.1,0.1,0.1,0.2,0c0.1-0.1,0.3-0.3,0.5-0.3c0.2,0,0.3,0,0.5,0.2c0.1,0.1,0.3,0.3,0.4,0.4c0.2,0.2,0.2,0.6,0,0.8
		c-0.2,0.3-0.2,0.3,0,0.5c0.6,0.6,1.2,1.1,1.8,1.7c0.3,0.3,0.3,0.6,0,0.9c-0.3,0.4-0.7,0.7-1,1c-0.3,0.3-0.6,0.3-0.9,0
		c-0.6-0.6-1.2-1.1-1.8-1.7c0,0-0.1-0.1-0.1-0.1c-0.8,0.6-1.6,1.2-2.2,1.9c-0.9,1-1.8,1.9-2.7,2.9c-0.1,0.1-0.1,0.1-0.2,0.2
		c0.1,0.1,0.2,0.2,0.4,0.3c0.8,0.8,1.6,1.6,2.4,2.5c0.5,0.5,0.9,0.9,1.3,1.4c0.9,0.9,1.7,1.8,2.6,2.7c0.4,0.4,0.3,0.8,0,1.1
		c-0.1,0.1-0.3,0.3-0.4,0.4c-0.3,0.3-0.8,0.3-1.1,0c-1.5-1.6-3.1-3.2-4.6-4.8c-0.6-0.7-1.3-1.3-1.9-2c0,0,0,0-0.1,0
		c-1.1,1.2-2.2,2.4-3.4,3.5c-1,1.1-2.1,2.1-3.1,3.2c-0.4,0.4-0.8,0.4-1.1,0c-0.1-0.1-0.3-0.3-0.4-0.4c-0.4-0.4-0.4-0.8,0-1.1
		c0.9-0.9,1.8-1.8,2.7-2.7c1.1-1.1,2.1-2.2,3.2-3.3c0.2-0.2,0.5-0.5,0.7-0.7c0,0,0.1-0.1,0.2-0.1c-0.4-0.4-0.8-0.9-1.1-1.2
		c-0.9-0.9-1.7-1.7-2.6-2.6C6.8,9.1,6.5,8.9,6.3,8.8C6,8.6,5.8,8.4,5.5,8.1c0,0-0.1,0.1-0.1,0.1C4.8,8.8,4.2,9.4,3.6,9.9
		c-0.3,0.3-0.7,0.3-1,0C2.3,9.6,2,9.3,1.7,9s-0.3-0.7,0-1C2.4,7.3,3,6.7,3.6,6.1C3.7,6.1,3.7,6.1,3.7,6.1z"/>
	<path class="st2" d="M14.1,6.3c-0.1-0.2-0.2-0.5-0.4-0.7c0,0-0.1,0-0.1-0.1c0,0-0.1,0-0.1,0.1c0,0.1,0,0.1,0,0.2
		c0,0.1,0.1,0.3,0.1,0.4c0,0.2,0,0.6-0.4,0.6c-0.3,0-0.5-0.2-0.5-0.5c0-0.3,0.2-0.6,0.4-0.8c0.6-1.1,0.3-2.1-0.8-2.8
		c-0.2-0.1-0.1,0.1-0.1,0.2c0.1,0.1,0.1,0.2,0.1,0.3c0,0.2-0.1,0.5-0.2,0.6c-0.2,0.3-0.5,0.6-0.8,0.9C11.2,5,11,5.2,10.8,5.3
		c-0.2,0.2-0.3,0-0.2-0.2c0-0.1,0.1-0.2,0.1-0.3c0.1-0.1,0.1-0.3-0.1-0.2c-0.5,0.3-0.9,1-0.9,1.6C9.6,7,9.7,7.8,10,8.4
		c0.3,0.5,0.9,0.9,1.5,1.1c1,0.2,2.1-0.2,2.6-1.2C14.4,7.6,14.4,7,14.1,6.3z"/>
</g>
</svg>
