<?xml version="1.0" encoding="utf-8"?>
<!-- Generator: Adobe Illustrator 27.3.1, SVG Export Plug-In . SVG Version: 6.00 Build 0)  -->
<!DOCTYPE svg PUBLIC "-//W3C//DTD SVG 1.1//EN" "http://www.w3.org/Graphics/SVG/1.1/DTD/svg11.dtd" [
	<!ENTITY ns_extend "http://ns.adobe.com/Extensibility/1.0/">
	<!ENTITY ns_ai "http://ns.adobe.com/AdobeIllustrator/10.0/">
	<!ENTITY ns_graphs "http://ns.adobe.com/Graphs/1.0/">
	<!ENTITY ns_vars "http://ns.adobe.com/Variables/1.0/">
	<!ENTITY ns_imrep "http://ns.adobe.com/ImageReplacement/1.0/">
	<!ENTITY ns_sfw "http://ns.adobe.com/SaveForWeb/1.0/">
	<!ENTITY ns_custom "http://ns.adobe.com/GenericCustomNamespace/1.0/">
	<!ENTITY ns_adobe_xpath "http://ns.adobe.com/XPath/1.0/">
]>
<svg version="1.1" id="ic-transaction-staked" xmlns:x="&ns_extend;" xmlns:i="&ns_ai;" xmlns:graph="&ns_graphs;"
	 xmlns="http://www.w3.org/2000/svg" xmlns:xlink="http://www.w3.org/1999/xlink" x="0px" y="0px" width="150px" height="150px"
	 viewBox="0 0 150 150" style="enable-background:new 0 0 150 150;" xml:space="preserve">
<style type="text/css">
	.st0{opacity:0.33;}
	.st1{fill-rule:evenodd;clip-rule:evenodd;fill:#FFFFFF;}
	.st2{fill:#FFFFFF;}
</style>
<metadata>
	<sfw  xmlns="&ns_sfw;">
		<slices></slices>
		<sliceSourceBounds  bottomLeftOrigin="true" height="121.8" width="130.9" x="-53.5" y="-48.8"></sliceSourceBounds>
	</sfw>
</metadata>
<g class="st0">
	<path class="st1" d="M23.4,38.8c-0.6-1.2-0.6-1.2-1.2-1.9c-1.2-1.9-1.2-3.8,0-5c1.2-1.2,1.9-1.9,3.1-2.5c1.9-1.2,3.8-1.2,5,0
		c0,0,0.6,0.6,1.2,1.2c5.6-4.4,11.9-7.5,17.5-11.2c2.5-1.2,5-3.1,6.9-4.4c1.2-0.6,3.1-0.6,4.4,0.6c1.2,1.3,1.2,2.5,0,4.4
		c-4.4,6.2-9.4,13.1-13.8,19.4c-0.6,0.6-1.3,1.2-1.9,2.5v0.6c0.6,1.2,1.9,2.5,2.5,3.8c2.5,3.8,6.2,7.5,9.4,10.6
		c5.6,5.6,11.2,11.3,16.2,16.3c1.9,1.9,1.9,1.9,3.8,0c7.5-7.5,15-15,22.5-23.1c0.6-0.6,1.2-1.3,1.2-1.9c1.9-2.5,3.1-4.4,5-6.2
		c-5.6-7.5-10.6-15-15.6-22.5c-1.2-1.2-1.2-3.1,0-4.4s2.5-1.2,4.4-0.6c6.9,4.4,13.8,8.1,20.6,12.5c1.3,0.6,2.5,1.9,3.1,2.5
		c0.6,0.6,0.6,0.6,1.3,0s1.9-1.9,3.1-1.9s1.9,0,3.1,1.2c0.6,0.6,1.9,1.9,2.5,2.5c1.3,1.2,1.3,3.7,0,5c-1.3,1.9-1.3,1.9,0,3.1
		c3.7,3.8,7.5,6.9,11.2,10.6c1.9,1.9,1.9,4.4,0,5.6c-1.9,2.5-4.4,4.4-6.2,6.2s-3.8,1.9-5.6,0c-3.8-3.8-7.5-6.9-11.2-10.6l-0.6-0.6
		c-5,3.8-10,7.5-13.8,11.9c-5.6,6.2-11.2,11.9-16.9,18.1c-0.6,0.6-0.6,0.6-1.2,1.2c0.6,0.6,1.2,1.2,2.5,1.9c5,5,10,10,15,15.6
		c3.1,3.1,5.6,5.6,8.1,8.8c5.6,5.6,10.6,11.2,16.2,16.9c2.5,2.5,1.9,5,0,6.9c-0.6,0.6-1.9,1.9-2.5,2.5c-1.9,1.9-5,1.9-6.9,0
		c-9.4-10-19.4-20-28.8-30c-3.8-4.4-8.1-8.1-11.9-12.5c0,0,0,0-0.6,0c-6.9,7.5-13.8,14.4-21.2,21.9c-6.2,6.9-13.1,13.1-19.4,20
		c-2.5,2.5-5,2.5-6.9,0c-0.6-0.6-1.9-1.9-2.5-2.5c-2.5-2.5-2.5-5,0-6.9c5.6-5.6,11.2-11.2,16.9-16.9c6.9-6.9,13.1-13.8,20-20.6
		c1.2-1.2,3.1-3.1,4.4-4.4c0,0,0.6-0.6,1.2-0.6c-2.5-2.5-5-5.6-6.9-7.5C54.6,68.8,49.6,63.8,44,58.1c-1.2-0.6-3.1-1.2-4.4-2.5
		c-1.9-1.2-3.1-2.5-5-4.4L34,51.9c-3.8,3.8-7.5,7.5-11.2,10.6c-1.9,1.9-4.4,1.9-6.2,0c-1.9-1.9-3.8-3.7-5.6-5.6s-1.9-4.4,0-6.2
		c4.4-4.4,8.1-8.1,11.9-11.9C23.4,38.8,23.4,38.8,23.4,38.8z"/>
	<path class="st2" d="M88.4,40c-0.6-1.2-1.2-3.1-2.5-4.4c0,0-0.6,0-0.6-0.6c0,0-0.6,0-0.6,0.6s0,0.6,0,1.2c0,0.6,0.6,1.9,0.6,2.5
		c0,1.2,0,3.7-2.5,3.7c-1.9,0-3.1-1.2-3.1-3.1c0-1.9,1.2-3.7,2.5-5c3.8-6.9,1.9-13.1-5-17.5c-1.2-0.6-0.6,0.6-0.6,1.2
		c0.6,0.6,0.6,1.3,0.6,1.9c0,1.2-0.6,3.1-1.2,3.8c-1.2,1.9-3.1,3.7-5,5.6c-0.6,1.9-1.9,3.1-3.1,3.7c-1.2,1.2-1.9,0-1.2-1.2
		c0-0.6,0.6-1.2,0.6-1.9c0.6-0.6,0.6-1.9-0.6-1.2c-3.1,1.9-5.6,6.3-5.6,10c-0.6,5,0,10,1.9,13.7c1.9,3.1,5.6,5.6,9.4,6.9
		c6.2,1.2,13.1-1.2,16.2-7.5C90.3,48.1,90.3,44.4,88.4,40z"/>
</g>
</svg>
