<?xml version="1.0" encoding="utf-8"?>
<!-- Generator: Adobe Illustrator 27.3.1, SVG Export Plug-In . SVG Version: 6.00 Build 0)  -->
<!DOCTYPE svg PUBLIC "-//W3C//DTD SVG 1.1//EN" "http://www.w3.org/Graphics/SVG/1.1/DTD/svg11.dtd" [
	<!ENTITY ns_extend "http://ns.adobe.com/Extensibility/1.0/">
	<!ENTITY ns_ai "http://ns.adobe.com/AdobeIllustrator/10.0/">
	<!ENTITY ns_graphs "http://ns.adobe.com/Graphs/1.0/">
	<!ENTITY ns_vars "http://ns.adobe.com/Variables/1.0/">
	<!ENTITY ns_imrep "http://ns.adobe.com/ImageReplacement/1.0/">
	<!ENTITY ns_sfw "http://ns.adobe.com/SaveForWeb/1.0/">
	<!ENTITY ns_custom "http://ns.adobe.com/GenericCustomNamespace/1.0/">
	<!ENTITY ns_adobe_xpath "http://ns.adobe.com/XPath/1.0/">
]>
<svg version="1.1" id="ic-transaction-staked" xmlns:x="&ns_extend;" xmlns:i="&ns_ai;" xmlns:graph="&ns_graphs;"
	 xmlns="http://www.w3.org/2000/svg" xmlns:xlink="http://www.w3.org/1999/xlink" x="0px" y="0px" width="150px" height="150px"
	 viewBox="0 0 150 150" style="enable-background:new 0 0 150 150;" xml:space="preserve">
<style type="text/css">
	.st0{opacity:0.33;}
	.st1{fill-rule:evenodd;clip-rule:evenodd;fill:#FFFFFF;}
	.st2{fill:#FFFFFF;}
</style>
<metadata>
	<sfw  xmlns="&ns_sfw;">
		<slices></slices>
		<sliceSourceBounds  bottomLeftOrigin="true" height="115.4" width="140.8" x="-58.4" y="-45.7"></sliceSourceBounds>
	</sfw>
</metadata>
<g class="st0">
	<path class="st1" d="M145.3,73.2c-5.6-12.5-16.9-26.9-26.9-36.2c-7.5-7.5-16.9-13.1-25.6-19.4c-0.6-0.6-1.9,0-1.9,1.2l2.5,7.5
		c0,0,0,0.6,0.6,0.6c1.9,1.2,3.1,2.5,5,3.8c1.9,1.2,3.8,3.1,5.6,5c2.5,2.5,3.1,6.2,1.9,9.4C104,50.7,98.4,55.7,94,60
		c-6.2,6.9-12.5,13.1-18.8,19.4C69,73.2,62.8,66.9,56.5,60c-3.8-5-9.4-10-12.5-15.6c-1.2-3.1-0.6-6.9,1.9-9.4c1.9-1.2,3.8-3.1,5.6-5
		c1.9-0.6,3.1-1.9,5-3.1l0.6-0.6l1.9-7.5c0.6-1.2-0.6-1.9-1.9-1.2C48.4,23.8,39,29.4,31.5,36.9c-10,9.4-21.2,23.8-26.9,36.2
		c-0.6,1.2,2.5-1.9,3.1-2.5c6.3-8.1,16.9-20,20.6-20c5,0,8.8,3.8,11.9,6.9c10,8.8,19.4,18.1,28.1,28.1c-6.2,6.2-12.5,11.9-18.8,18.1
		c-6.9,6.2-13.1,13.1-19.4,20c-1.9,1.9-1.9,4.4,0,6.3c0.6,0.6,1.3,0.6,1.9,1.2c1.9,1.9,5.6,1.9,7.5,0c6.2-6.9,13.1-13.8,19.4-20.6
		c5.6-5.6,11.2-11.9,16.2-17.5c5.6,5.6,11.3,11.9,16.3,17.5c6.2,6.9,13.1,13.8,19.4,20.6c1.9,1.9,5.6,1.9,7.5,0
		c0.6-0.6,1.2-1.2,1.9-1.2c1.9-1.9,1.9-4.4,0-6.2c-6.2-6.9-13.1-13.1-19.4-20c-6.2-6.2-12.5-11.9-18.8-18.1
		c9.4-10,18.1-19.4,28.1-28.1c3.1-3.1,6.9-6.9,11.9-6.9c3.8,0,14.4,11.9,20,19.4C142.8,71.3,145.9,74.4,145.3,73.2z"/>
	<path class="st2" d="M92.8,43.2h-1.9l1.2-1.2c0.6-0.6,0.6-1.2,0-1.2c-0.6,0-1.2-0.6-1.2,0l-3.1,2.5H84l2.5-2.5c0,0,0.6-0.6,0.6-1.2
		s-0.6-1.2-0.6-1.2s0,0-0.6,0h-3.8l2.5-2.5h3.8c0.6,0,1.2-0.6,1.2-1.2s-0.6-1.2-1.2-1.2h-1.9l1.2-1.2c0.6-0.6,0.6-1.2,0-1.2
		s-1.2-0.6-1.2,0l-1.2,1.2v-0.6c0-0.6-0.6-1.2-1.2-1.2c-0.6,0-0.6,0.6-0.6,1.2V35l-2.5,2.5c0-1.2,0-1.9,0-3.1c0-0.6,0-0.6,0-1.2
		c-0.6-0.6-1.2-1.2-1.9-0.6L76.5,35v-3.1l2.5-2.5c0.6-0.6,0.6-1.2,0-1.2c-0.6,0-1.2-0.6-1.2,0l-1.2,1.2v-2.5c0-0.6-0.6-1.2-1.2-1.2
		c-0.6,0-1.2,0.6-1.2,1.2v1.9l-1.2-1.2c-0.6-0.6-1.2-0.6-1.2,0c0,0.6-0.6,1.2,0,1.2l2.5,2.5V35l-2.5-2.5c0,0-0.6-0.6-1.2-0.6
		c-0.6,0-1.2,0.6-1.2,1.2v4.4L66.5,35v-3.8c0-0.6-0.6-1.2-1.2-1.2c-0.6,0-0.6,0.6-0.6,1.2v1.9l-1.2-1.9c-0.6,0-1.3,0-1.3,0
		s-0.6,1.2,0,1.2l1.2,1.2h-1.2c-0.6,0-1.2,0.6-1.2,1.2s0.6,1.2,1.2,1.2h3.8l2.5,2.5c0,0-3.1,0-3.8,0s-0.6,0-0.6,0
		c-0.6,0-0.6,0.6-0.6,1.2c0,0.6,0,0.6,0.6,1.2l0.6,0.6c0,0,1.2,1.9,1.2,1.9h-3.1l-2.5-3.1C59.6,40,59,40,59,40.7s-0.6,1.2,0,1.2
		l0.6,1.9h-1.9c-0.6-0.6-0.6,0-0.6,0.6s0.6,1.2,1.2,1.2h1.9L59,46.3c-0.6,0.6-0.6,1.2,0,1.2l0.6,0.6h0.6l2.5-2.5h3.8
		c-0.6,0.6-1.2,1.2-1.9,1.9L64,48.2c0,0.6,0,0.6,0,1.2C63.4,50,64,50,64,50c0.6,0,0.6,0,1.2,0c0.6,0,1.2,0,1.2,0c0.6,0,0.6,0,1.2,0
		l-2.5,2.5h-3.1c-0.6,0-1.2,0.6-1.2,1.2s0.6,0.6,1.2,0.6H64l-1.9,1.9c0,0,0,0.6,0,1.2l0.6,0.6c0,0,0.6,0,0.6-0.6l1.2-1.2v1.9
		c0,0.6,0.6,1.2,1.2,1.2c0.6,0,1.2-0.6,1.2-1.2v-4.4l2.5-2.5V55c0,0.6,0.6,1.2,1.2,1.2c0.6,0,1.2-0.6,1.2-0.6s0.6-0.6,1.2-1.2
		l0.6-0.6c0,0,0.6,0,0.6-0.6v3.8l-2.5,2.5c-0.6,0.6-0.6,1.2,0,1.2l0.6,0.6c0,0,0.6,0,0.6-0.6l1.2-1.2v1.9c0,0.6,0.6,1.2,1.2,1.2
		c0.6,0,1.2-0.6,1.2-1.2v-1.9l1.2,1.2l0.6,0.6c0,0,0.6,0,0.6-0.6c0.6-0.6,0.6-1.2,0-1.2l-2.5-2.5v-3.1c0.6,0.6,1.2,1.2,1.9,1.9
		c-0.6,0,0,0.6,0.6,0.6c0.6,0,1.2-0.6,1.2-1.2c0-0.6,0-1.2,0-1.2c0-0.6,0-1.2,0-1.9l2.5,2.5v3.8c0,0.6,0.6,1.2,1.2,1.2
		c0.6,0,1.2-0.6,1.2-1.2v-2.5l1.2,1.2l0.6,0.6c0,0,0.6,0,0.6-0.6c0.6-0.6,0.6-1.2,0-1.2l-1.2-1.2H89c0.6,0,1.2-0.6,1.2-1.2
		s-0.6-1.2-1.2-1.2h-3.8L82.1,50c0.6,0,1.9,0,2.5,0c0.6,0,0.6,0,1.2,0h0.6c0.6-0.6,1.2-1.2,0.6-1.9l-2.5-2.5h3.1l2.5,2.5l0.6,0.6
		c0,0,0.6,0,0.6-0.6c0.6-0.6,0.6-1.2,0-1.2l-1.2-1.2h1.9c0.6,0,1.2-0.6,1.2-1.2C93.4,43.8,93.4,43.2,92.8,43.2z M75.9,38.2L79,35
		v3.8l-1.9,1.9c-0.6,0-0.6-0.6-0.6-0.6v-1.9H75.9z M71.5,35l3.1,3.1v2.5c-0.6,0-0.6,0-0.6,0.6l-1.9-1.9V35H71.5z M65.9,40.7h3.8
		l1.9,1.9c0,0.6-0.6,0.6-0.6,1.2H69L65.9,40.7z M70.3,48.2h-3.8l2.5-2.5h2.5c0,0.6,0,0.6,0.6,1.2L70.3,48.2z M74.6,50.7l-3.1,3.1
		v-4.4l1.9-1.9c0.6,0,0.6,0.6,0.6,0.6v2.5H74.6z M75.3,46.3c-1.2,0-1.9-0.6-1.9-1.9c0-1.3,0.6-1.9,1.9-1.9c1.2,0,1.9,0.6,1.9,1.9
		C77.1,45.7,76.5,46.3,75.3,46.3z M79,53.8l-3.1-3.1v-2.5c0.6,0,0.6,0,0.6-0.6l1.9,1.9v4.4H79z M84.6,48.2h-3.8L79,46.3
		c0-0.6,0.6-0.6,0.6-1.2h1.9L84.6,48.2z M81.5,43.2H79c0-0.6,0-0.6-0.6-1.2l1.9-1.9H84L81.5,43.2z"/>
</g>
</svg>
