<?xml version="1.0" encoding="utf-8"?>
<!-- Generator: Adobe Illustrator 27.3.1, SVG Export Plug-In . SVG Version: 6.00 Build 0)  -->
<!DOCTYPE svg PUBLIC "-//W3C//DTD SVG 1.1//EN" "http://www.w3.org/Graphics/SVG/1.1/DTD/svg11.dtd" [
	<!ENTITY ns_extend "http://ns.adobe.com/Extensibility/1.0/">
	<!ENTITY ns_ai "http://ns.adobe.com/AdobeIllustrator/10.0/">
	<!ENTITY ns_graphs "http://ns.adobe.com/Graphs/1.0/">
	<!ENTITY ns_vars "http://ns.adobe.com/Variables/1.0/">
	<!ENTITY ns_imrep "http://ns.adobe.com/ImageReplacement/1.0/">
	<!ENTITY ns_sfw "http://ns.adobe.com/SaveForWeb/1.0/">
	<!ENTITY ns_custom "http://ns.adobe.com/GenericCustomNamespace/1.0/">
	<!ENTITY ns_adobe_xpath "http://ns.adobe.com/XPath/1.0/">
]>
<svg version="1.1" id="Layer_1" xmlns:x="&ns_extend;" xmlns:i="&ns_ai;" xmlns:graph="&ns_graphs;"
	 xmlns="http://www.w3.org/2000/svg" xmlns:xlink="http://www.w3.org/1999/xlink" x="0px" y="0px" width="24px" height="24px"
	 viewBox="0 0 24 24" style="enable-background:new 0 0 24 24;" xml:space="preserve">
<style type="text/css">
	.st0{fill:#FFFFFF;}
	.st1{fill:none;}
</style>
<metadata>
	<sfw  xmlns="&ns_sfw;">
		<slices></slices>
		<sliceSourceBounds  bottomLeftOrigin="true" height="24" width="24" x="0" y="0"></sliceSourceBounds>
	</sfw>
</metadata>
<g id="ic_mint">
	<g>
		<g>
			<path class="st0" d="M16.2,12c0-2.3-1.9-4.2-4.2-4.2S7.8,9.6,7.8,12s1.9,4.2,4.2,4.2S16.2,14.3,16.2,12z M9.8,12
				c0-1.2,1-2.2,2.2-2.2s2.2,1,2.2,2.2s-1,2.2-2.2,2.2S9.8,13.2,9.8,12z"/>
		</g>
		<g>
			<path class="st0" d="M19.9,12.3c-0.6,0-1.1,0.4-1.2,1c-0.1,0.5-0.2,0.8-0.3,1.2c-0.1,0.3-0.3,0.7-0.5,1c-0.3,0.6-0.8,1.2-1.3,1.7
				c-0.5,0.5-1.1,0.9-1.8,1.2c-0.2,0.1-0.5,0.2-0.8,0.3c-2.4,0.7-4.9,0-6.9-1.7c0,0-0.1-0.1-0.1-0.1l0.8,0.3C8.4,17.3,9,17,9.1,16.5
				c0-0.1,0.1-0.2,0.1-0.3c0-0.4-0.2-0.8-0.7-0.9c0,0-3.4-1.3-3.4-1.3C4.6,13.7,4,14,3.8,14.5l-1.2,3.4c-0.2,0.5,0.1,1.1,0.6,1.3
				c0.1,0,0.2,0.1,0.3,0.1c0.4,0,0.8-0.2,0.9-0.7L4.7,18c0.3,0.3,0.6,0.5,0.6,0.5c2,1.9,4.4,2.9,6.9,2.9c0.9,0,1.8-0.1,2.6-0.4
				c0.7-0.2,1.4-0.5,2-0.9c0.6-0.4,1.2-0.8,1.7-1.3c0.5-0.5,1-1,1.4-1.7c0.4-0.6,0.7-1.3,0.9-2c0.2-0.6,0.3-1.1,0.3-1.7
				C21.1,12.9,20.6,12.3,19.9,12.3z"/>
			<path class="st0" d="M4.1,11.7c0.6,0,1.1-0.4,1.2-1c0.1-0.5,0.2-0.8,0.3-1.2c0.1-0.3,0.3-0.7,0.4-1c0.3-0.6,0.8-1.2,1.3-1.7
				s1.1-0.9,1.8-1.2c0.2-0.1,0.5-0.2,0.8-0.3c2.4-0.7,4.9-0.1,6.9,1.7c0,0.1,0.1,0.1,0.1,0.1l-0.8-0.3C15.6,6.7,15,7,14.9,7.5
				c0,0.1-0.1,0.2-0.1,0.3c0,0.4,0.2,0.8,0.7,0.9c0,0,3.4,1.3,3.4,1.3c0.5,0.2,1.1-0.1,1.3-0.6l1.2-3.4c0.2-0.5-0.1-1.1-0.6-1.3
				c-0.1,0-0.2-0.1-0.3-0.1c-0.4,0-0.8,0.2-0.9,0.7L19.3,6c-0.3-0.3-0.6-0.5-0.6-0.5c-2-1.9-4.4-2.9-6.9-2.9c-0.9,0-1.8,0.1-2.6,0.4
				c-0.7,0.2-1.4,0.5-2,0.9C6.6,4.2,6,4.6,5.5,5.1C5,5.6,4.6,6.2,4.2,6.8c-0.4,0.6-0.7,1.3-0.9,2C3,9.3,2.9,9.9,2.9,10.5
				C2.9,11.1,3.4,11.7,4.1,11.7z"/>
		</g>
	</g>
	<path id="Rectangle_4647" class="st1" d="M0,0h24v24H0V0z"/>
</g>
</svg>
