<?xml version="1.0" encoding="utf-8"?>
<!-- Generator: Adobe Illustrator 27.3.1, SVG Export Plug-In . SVG Version: 6.00 Build 0)  -->
<!DOCTYPE svg PUBLIC "-//W3C//DTD SVG 1.1//EN" "http://www.w3.org/Graphics/SVG/1.1/DTD/svg11.dtd" [
	<!ENTITY ns_extend "http://ns.adobe.com/Extensibility/1.0/">
	<!ENTITY ns_ai "http://ns.adobe.com/AdobeIllustrator/10.0/">
	<!ENTITY ns_graphs "http://ns.adobe.com/Graphs/1.0/">
	<!ENTITY ns_vars "http://ns.adobe.com/Variables/1.0/">
	<!ENTITY ns_imrep "http://ns.adobe.com/ImageReplacement/1.0/">
	<!ENTITY ns_sfw "http://ns.adobe.com/SaveForWeb/1.0/">
	<!ENTITY ns_custom "http://ns.adobe.com/GenericCustomNamespace/1.0/">
	<!ENTITY ns_adobe_xpath "http://ns.adobe.com/XPath/1.0/">
]>
<svg version="1.1" id="Layer_1" xmlns:x="&ns_extend;" xmlns:i="&ns_ai;" xmlns:graph="&ns_graphs;"
	 xmlns="http://www.w3.org/2000/svg" xmlns:xlink="http://www.w3.org/1999/xlink" x="0px" y="0px" width="150px" height="150px"
	 viewBox="0 0 150 150" style="enable-background:new 0 0 150 150;" xml:space="preserve">
<style type="text/css">
	.st0{opacity:0.57;}
	.st1{fill:url(#SVGID_1_);}
	.st2{fill:url(#SVGID_00000023988264840792118580000018381051617746632085_);}
	.st3{fill:#FFFFFF;}
	.st4{fill:none;}
</style>
<metadata>
	<sfw  xmlns="&ns_sfw;">
		<slices></slices>
		<sliceSourceBounds  bottomLeftOrigin="true" height="150" width="150" x="-63" y="-63"></sliceSourceBounds>
	</sfw>
</metadata>
<g id="ic-transaction-sent">
	<g>
		<g class="st0">
			
				<linearGradient id="SVGID_1_" gradientUnits="userSpaceOnUse" x1="-3858.2161" y1="1081.8425" x2="-3858.2161" y2="1175.4006" gradientTransform="matrix(-0.7071 -0.7071 0.7071 -0.7071 -3444.9763 -1861.6254)">
				<stop  offset="1.040000e-02" style="stop-color:#FFFFFF;stop-opacity:0"/>
				<stop  offset="0.513" style="stop-color:#FFFFFF"/>
			</linearGradient>
			<path class="st1" d="M20,72.5L48.8,65c0.6-8.8,3.7-16.9,10-23.1c13.8-13.8,35.6-13.8,49.4,0c13.8,13.7,13.8,35.6,0,49.4
				c-6.2,6.2-14.4,10-23.1,10L77.5,130l31.2,8.1l28.8-104.4c1.9-6.2,0.6-13.8-5-18.1c-6.2-5-13.1-3.8-20-1.9
				c-3.8,1.3-7.5,1.9-11.2,3.1c-11.9,3.1-23.8,6.2-35.6,9.4c-12.5,3.1-24.4,6.3-36.3,10c-5.6,1.2-11.9,3.1-17.5,4.4L20,72.5z"/>
			
				<linearGradient id="SVGID_00000020384918588582079300000004495418566480447889_" gradientUnits="userSpaceOnUse" x1="-3858.4373" y1="1082.7594" x2="-3858.4373" y2="1199.0182" gradientTransform="matrix(-0.7071 -0.7071 0.7071 -0.7071 -3444.9763 -1861.6254)">
				<stop  offset="1.040000e-02" style="stop-color:#FFFFFF;stop-opacity:0"/>
				<stop  offset="0.513" style="stop-color:#FFFFFF"/>
			</linearGradient>
			<path style="fill:url(#SVGID_00000020384918588582079300000004495418566480447889_);" d="M66.9,83.1c9.4,9.4,24.4,9.4,33.1,0
				s9.4-24.4,0-33.1c-9.4-9.4-24.4-9.4-33.1,0S58.1,73.8,66.9,83.1z"/>
		</g>
		<g>
			<g>
				<g>
					<path class="st3" d="M135.6,14.4c0.6,0.6,1.3,1.2,1.9,1.9c3.8,5,5,10.6,3.1,16.9c0,0.6,0,0.6-0.6,1.2l-28.1,105
						c-0.6,1.2-1.9,2.5-3.8,1.9l-31.2-8.1c-0.6,0-1.2-0.6-1.9-1.3c-0.6-0.6-0.6-1.2,0-2.5l7.5-28.8c0.6-1.2,1.2-2.5,2.5-2.5
						c8.1-0.6,15-3.8,20.6-9.4c12.5-12.5,12.5-32.5,0-45s-32.5-12.5-45,0c-5.6,5.6-8.8,13.1-9.4,20.6c0,1.2-0.6,2.5-2.5,2.5L20.6,75
						c-0.6,0-1.2,0-2.5,0c-0.6-0.6-1.3-1.2-1.3-1.9L8.7,41.9c-0.6-1.9,0.6-3.1,1.9-3.8l105-28.1c0.6,0,1.3-0.6,1.3-0.6
						C123.7,7.5,130.6,9.4,135.6,14.4z M126.9,15.6c-4.4-1.2-8.7,0-13.8,1.2c-3.8,1.2-7.5,1.9-11.9,3.1c-11.9,3.1-23.8,6.2-35.6,9.4
						S41.9,35.6,30,38.8c-4.4,1.2-9.4,2.5-14.4,4.4l6.9,25.6l23.7-6.2c0.6-8.7,5-16.2,10.6-22.5c15-15,38.7-15,53.8,0
						s15,38.8,0,53.8c-6.2,6.2-14.4,10-22.5,10.6l-6.2,23.7l25.6,6.9c1.2-5.6,3.1-11.2,4.4-16.9c3.1-11.9,6.2-24.4,10-36.2
						c3.1-11.9,6.2-23.8,9.4-35c0.6-3.1,1.9-6.9,2.5-10c1.9-6.2,3.1-12.5-1.9-18.1C130,17.5,128.1,16.2,126.9,15.6z"/>
				</g>
			</g>
			<g>
				<path class="st3" d="M102.5,47.5c10,10,10,27.5,0,37.5S75,95,65,85s-10-27.5,0-37.5S92.5,36.9,102.5,47.5z M69.4,80.6
					c8.1,8.1,21.2,8.1,28.8,0c7.5-8.1,8.1-21.2,0-28.8s-21.2-8.1-28.8,0S61.2,72.5,69.4,80.6z"/>
			</g>
		</g>
	</g>
	<path id="Rectangle_4412" class="st4" d="M0,0h150v150H0V0z"/>
</g>
</svg>
