<?xml version="1.0" encoding="utf-8"?>
<!-- Generator: Adobe Illustrator 26.5.3, SVG Export Plug-In . SVG Version: 6.00 Build 0)  -->
<!DOCTYPE svg PUBLIC "-//W3C//DTD SVG 1.1//EN" "http://www.w3.org/Graphics/SVG/1.1/DTD/svg11.dtd" [
	<!ENTITY ns_extend "http://ns.adobe.com/Extensibility/1.0/">
	<!ENTITY ns_ai "http://ns.adobe.com/AdobeIllustrator/10.0/">
	<!ENTITY ns_graphs "http://ns.adobe.com/Graphs/1.0/">
	<!ENTITY ns_vars "http://ns.adobe.com/Variables/1.0/">
	<!ENTITY ns_imrep "http://ns.adobe.com/ImageReplacement/1.0/">
	<!ENTITY ns_sfw "http://ns.adobe.com/SaveForWeb/1.0/">
	<!ENTITY ns_custom "http://ns.adobe.com/GenericCustomNamespace/1.0/">
	<!ENTITY ns_adobe_xpath "http://ns.adobe.com/XPath/1.0/">
]>
<svg version="1.1" id="ic-transaction-staked" xmlns:x="&ns_extend;" xmlns:i="&ns_ai;" xmlns:graph="&ns_graphs;"
	 xmlns="http://www.w3.org/2000/svg" xmlns:xlink="http://www.w3.org/1999/xlink" x="0px" y="0px" width="24px" height="24px"
	 viewBox="0 0 24 24" style="enable-background:new 0 0 24 24;" xml:space="preserve">
<style type="text/css">
	.st0{opacity:0.33;}
	.st1{fill-rule:evenodd;clip-rule:evenodd;fill:#FFFFFF;}
	.st2{fill:#FFFFFF;}
</style>
<metadata>
	<sfw  xmlns="&ns_sfw;">
		<slices></slices>
		<sliceSourceBounds  bottomLeftOrigin="true" height="18.5" width="22.5" x="0.7" y="2.8"></sliceSourceBounds>
	</sfw>
</metadata>
<g class="st0">
	<path class="st1" d="M23.2,11.7c-0.9-2-2.7-4.3-4.3-5.8c-1.2-1.2-2.7-2.1-4.1-3.1c-0.1-0.1-0.3,0-0.3,0.2l0.4,1.2
		c0,0,0,0.1,0.1,0.1c0.3,0.2,0.5,0.4,0.8,0.6c0.3,0.2,0.6,0.5,0.9,0.8c0.4,0.4,0.5,1,0.3,1.5c-0.4,0.9-1.3,1.7-2,2.4
		c-1,1.1-2,2.1-3,3.1c-1-1-2-2-3-3.1C8.4,8.8,7.5,8,7,7.1C6.8,6.6,6.9,6,7.3,5.6c0.3-0.2,0.6-0.5,0.9-0.8C8.5,4.7,8.7,4.5,9,4.3
		l0.1-0.1L9.4,3c0.1-0.2-0.1-0.3-0.3-0.2C7.7,3.8,6.2,4.7,5,5.9c-1.6,1.5-3.4,3.8-4.3,5.8c-0.1,0.2,0.4-0.3,0.5-0.4
		c1-1.3,2.7-3.2,3.3-3.2c0.8,0,1.4,0.6,1.9,1.1c1.6,1.4,3.1,2.9,4.5,4.5c-1,1-2,1.9-3,2.9c-1.1,1-2.1,2.1-3.1,3.2
		c-0.3,0.3-0.3,0.7,0,1C4.9,20.9,5,21,5.1,21c0.3,0.3,0.9,0.3,1.2,0c1-1.1,2.1-2.2,3.1-3.3c0.9-0.9,1.8-1.9,2.6-2.8
		c0.9,0.9,1.8,1.9,2.6,2.8c1,1.1,2.1,2.2,3.1,3.3c0.3,0.3,0.9,0.3,1.2,0c0.1-0.1,0.2-0.2,0.3-0.2c0.3-0.3,0.3-0.7,0-1
		c-1-1.1-2.1-2.1-3.1-3.2c-1-1-2-1.9-3-2.9c1.5-1.6,2.9-3.1,4.5-4.5c0.5-0.5,1.1-1.1,1.9-1.1c0.6,0,2.3,1.9,3.2,3.1
		C22.8,11.4,23.3,11.9,23.2,11.7z"/>
	<path class="st2" d="M14.8,6.9h-0.3l0.2-0.2c0.1-0.1,0.1-0.2,0-0.2s-0.2-0.1-0.2,0L14,6.9h-0.6l0.4-0.4c0,0,0.1-0.1,0.1-0.2
		s-0.1-0.2-0.1-0.2s0,0-0.1,0h-0.6l0.4-0.4h0.6c0.1,0,0.2-0.1,0.2-0.2s-0.1-0.2-0.2-0.2h-0.3L14,5.1c0.1-0.1,0.1-0.2,0-0.2
		s-0.2-0.1-0.2,0l-0.2,0.2V5c0-0.1-0.1-0.2-0.2-0.2S13.3,4.9,13.3,5v0.6L12.9,6c0-0.2,0-0.3,0-0.5c0-0.1,0-0.1,0-0.2
		c-0.1-0.1-0.2-0.2-0.3-0.1l-0.4,0.4V5.1l0.4-0.4c0.1-0.1,0.1-0.2,0-0.2s-0.2-0.1-0.2,0l-0.2,0.2V4.3c0-0.1-0.1-0.2-0.2-0.2
		s-0.2,0.1-0.2,0.2v0.3l-0.2-0.2c-0.1-0.1-0.2-0.1-0.2,0s-0.1,0.2,0,0.2L11.8,5v0.6l-0.4-0.4c0,0-0.1-0.1-0.2-0.1
		c-0.1,0-0.2,0.1-0.2,0.2V6l-0.4-0.4V5c0-0.1-0.1-0.2-0.2-0.2S10.3,4.9,10.3,5v0.3L10.1,5c0,0-0.1,0-0.2,0s-0.1,0.2,0,0.2l0.2,0.2
		H9.9c-0.1,0-0.2,0.1-0.2,0.2s0.1,0.2,0.2,0.2h0.6l0.4,0.4c0,0-0.5,0-0.6,0s-0.1,0-0.1,0c-0.1,0-0.1,0.1-0.1,0.2s0,0.1,0.1,0.2
		l0.1,0.1c0,0,0.3,0.3,0.3,0.3H10L9.6,6.6c-0.1-0.1-0.2-0.1-0.2,0s-0.1,0.2,0,0.2L9.5,7H9.2C9.1,6.9,9.1,7,9.1,7.1s0.1,0.2,0.2,0.2
		h0.3L9.4,7.4c-0.1,0.1-0.1,0.2,0,0.2l0.1,0.1h0.1L10,7.3h0.6c-0.1,0.1-0.2,0.2-0.3,0.3l-0.1,0.1c0,0.1,0,0.1,0,0.2
		c-0.1,0.1,0,0.1,0,0.1c0.1,0,0.1,0,0.2,0c0.1,0,0.2,0,0.2,0c0.1,0,0.1,0,0.2,0l-0.4,0.4H9.9c-0.1,0-0.2,0.1-0.2,0.2
		s0.1,0.1,0.2,0.1h0.3L9.9,9c0,0,0,0.1,0,0.2L10,9.3c0,0,0.1,0,0.1-0.1L10.4,9v0.3c0,0.1,0.1,0.2,0.2,0.2s0.2-0.1,0.2-0.2V8.6
		l0.4-0.4v0.6c0,0.1,0.1,0.2,0.2,0.2s0.2-0.1,0.2-0.1s0.1-0.1,0.2-0.2l0.1-0.1c0,0,0.1,0,0.1-0.1v0.6l-0.4,0.4
		c-0.1,0.1-0.1,0.2,0,0.2l0.1,0.1c0,0,0.1,0,0.1-0.1L12,9.5v0.3c0,0.1,0.1,0.2,0.2,0.2s0.2-0.1,0.2-0.2V9.6l0.2,0.2l0.1,0.1
		c0,0,0.1,0,0.1-0.1c0.1-0.1,0.1-0.2,0-0.2l-0.4-0.4V8.6c0.1,0.1,0.2,0.2,0.3,0.3c-0.2,0-0.1,0.1,0,0.1c0.1,0,0.2-0.1,0.2-0.2
		c0-0.1,0-0.2,0-0.2c0-0.1,0-0.2,0-0.3l0.4,0.4v0.6c0,0.1,0.1,0.2,0.2,0.2s0.2-0.1,0.2-0.2V8.9l0.2,0.2L14,9.2c0,0,0.1,0,0.1-0.1
		c0.1-0.1,0.1-0.2,0-0.2l-0.2-0.2h0.3c0.1,0,0.2-0.1,0.2-0.2s-0.1-0.2-0.2-0.2h-0.6L13.1,8c0.1,0,0.3,0,0.4,0c0.1,0,0.1,0,0.2,0h0.1
		c0.1-0.1,0.2-0.2,0.1-0.3l-0.4-0.4H14l0.4,0.4l0.1,0.1c0,0,0.1,0,0.1-0.1c0.1-0.1,0.1-0.2,0-0.2l-0.2-0.2h0.3
		c0.1,0,0.2-0.1,0.2-0.2C14.9,7,14.9,6.9,14.8,6.9z M12.1,6.1l0.5-0.5v0.6l-0.3,0.3c-0.1,0-0.1-0.1-0.1-0.1L12.1,6.1L12.1,6.1z
		 M11.4,5.6l0.5,0.5v0.4c-0.1,0-0.1,0-0.1,0.1l-0.3-0.3L11.4,5.6L11.4,5.6z M10.5,6.5h0.6l0.3,0.3c0,0.1-0.1,0.1-0.1,0.2H11
		L10.5,6.5z M11.2,7.7h-0.6L11,7.3h0.4c0,0.1,0,0.1,0.1,0.2L11.2,7.7z M11.9,8.1l-0.5,0.5V7.9l0.3-0.3c0.1,0,0.1,0.1,0.1,0.1
		L11.9,8.1L11.9,8.1z M12,7.4c-0.2,0-0.3-0.1-0.3-0.3s0.1-0.3,0.3-0.3s0.3,0.1,0.3,0.3S12.2,7.4,12,7.4z M12.6,8.6l-0.5-0.5V7.7
		c0.1,0,0.1,0,0.1-0.1l0.3,0.3L12.6,8.6L12.6,8.6z M13.5,7.7h-0.6l-0.3-0.3c0-0.1,0.1-0.1,0.1-0.2H13L13.5,7.7z M13,6.9h-0.4
		c0-0.1,0-0.1-0.1-0.2l0.3-0.3h0.6L13,6.9z"/>
</g>
</svg>
