<?xml version="1.0" encoding="utf-8"?>
<!-- Generator: Adobe Illustrator 27.3.1, SVG Export Plug-In . SVG Version: 6.00 Build 0)  -->
<!DOCTYPE svg PUBLIC "-//W3C//DTD SVG 1.1//EN" "http://www.w3.org/Graphics/SVG/1.1/DTD/svg11.dtd" [
	<!ENTITY ns_extend "http://ns.adobe.com/Extensibility/1.0/">
	<!ENTITY ns_ai "http://ns.adobe.com/AdobeIllustrator/10.0/">
	<!ENTITY ns_graphs "http://ns.adobe.com/Graphs/1.0/">
	<!ENTITY ns_vars "http://ns.adobe.com/Variables/1.0/">
	<!ENTITY ns_imrep "http://ns.adobe.com/ImageReplacement/1.0/">
	<!ENTITY ns_sfw "http://ns.adobe.com/SaveForWeb/1.0/">
	<!ENTITY ns_custom "http://ns.adobe.com/GenericCustomNamespace/1.0/">
	<!ENTITY ns_adobe_xpath "http://ns.adobe.com/XPath/1.0/">
]>
<svg version="1.1" id="Layer_1" xmlns:x="&ns_extend;" xmlns:i="&ns_ai;" xmlns:graph="&ns_graphs;"
	 xmlns="http://www.w3.org/2000/svg" xmlns:xlink="http://www.w3.org/1999/xlink" x="0px" y="0px" width="150px" height="150px"
	 viewBox="0 0 150 150" style="enable-background:new 0 0 150 150;" xml:space="preserve">
<style type="text/css">
	.st0{opacity:0.57;}
	.st1{fill:url(#SVGID_1_);}
	.st2{fill:url(#SVGID_00000057143847128158914910000005115983869881383851_);}
	.st3{fill:#FFFFFF;}
	.st4{fill:none;}
</style>
<metadata>
	<sfw  xmlns="&ns_sfw;">
		<slices></slices>
		<sliceSourceBounds  bottomLeftOrigin="true" height="150" width="150" x="-63" y="-63"></sliceSourceBounds>
	</sfw>
</metadata>
<g>
	<g class="st0">
		
			<linearGradient id="SVGID_1_" gradientUnits="userSpaceOnUse" x1="75.3125" y1="-1408.2205" x2="75.3125" y2="-1501.7782" gradientTransform="matrix(1 0 0 -1 0 -1394)">
			<stop  offset="1.040000e-02" style="stop-color:#FFFFFF;stop-opacity:0"/>
			<stop  offset="0.513" style="stop-color:#FFFFFF"/>
		</linearGradient>
		<path class="st1" d="M115.6,15l-15,25.6c5.6,6.2,9.4,14.4,9.4,23.1c0,19.4-15.6,35-35,35s-35-15.6-35-35c0-8.7,3.8-17.5,8.8-23.1
			L34.4,15L6.2,31.2l54.4,94.4c3.1,6.2,9.4,10,16.2,9.4c8.1-0.6,11.9-6.9,15.6-13.1c1.9-3.1,3.8-6.9,5.6-10
			c6.2-10.6,12.5-21.2,18.1-31.9c6.2-10.6,12.5-21.9,18.7-32.5c3.1-5,6.2-10.6,9.4-16.2L115.6,15z"/>
		
			<linearGradient id="SVGID_00000089559287844754595580000012439168744124932231_" gradientUnits="userSpaceOnUse" x1="75" y1="-1409.1367" x2="75" y2="-1525.3965" gradientTransform="matrix(1 0 0 -1 0 -1394)">
			<stop  offset="1.040000e-02" style="stop-color:#FFFFFF;stop-opacity:0"/>
			<stop  offset="0.513" style="stop-color:#FFFFFF"/>
		</linearGradient>
		<path style="fill:url(#SVGID_00000089559287844754595580000012439168744124932231_);" d="M75,40.6c-13.1,0-23.8,10.6-23.8,23.8
			S61.9,88.1,75,88.1s23.8-10.6,23.8-23.8S88.1,40.6,75,40.6z"/>
	</g>
	<g>
		<g>
			<g>
				<path class="st3" d="M75,138.1c-0.6,0-1.9,0-2.5,0c-5.6-0.6-11.2-4.4-13.7-9.4c0,0-0.6-0.6-0.6-1.2L3.8,33.1
					c-1.3-1.9-0.6-3.8,0.6-4.4l28.1-16.2c0.6-0.6,1.9-0.6,2.5,0c0.6,0,1.2,0.6,1.9,1.2l15,25.6c0.6,1.2,0.6,2.5-0.6,3.8
					c-5,5.6-8.1,13.1-8.1,21.2c0,17.5,14.4,31.9,31.9,31.9s31.9-14.4,31.9-31.9c0-8.1-3.1-15.6-8.1-21.2c-0.6-1.2-1.2-2.5-0.6-3.8
					l15-25.6c0.6-0.6,1.2-1.2,1.9-1.2c0.6,0,1.9,0,2.5,0.6l28.1,16.2c1.2,0.6,1.9,2.5,1.2,4.4l-54.4,94.4c-0.6,0.6-0.6,1.2-0.6,1.2
					C88.1,134.4,81.9,138.1,75,138.1z M80.6,130.6c3.8-1.9,6.2-6.2,8.7-10.6c1.9-3.1,3.8-6.9,6.2-10.6c6.2-10.6,12.5-21.2,18.1-31.9
					c6.2-10.6,12.5-21.2,18.1-31.9c2.5-4.4,5.6-9.4,8.1-13.8l-22.5-13.1L105,40c5.6,6.9,8.1,15,8.1,23.8c0,21.2-16.9,38.1-38.1,38.1
					S37.5,85.6,37.5,64.4c0-8.7,3.1-16.9,8.1-23.8L33.1,19.4L10.6,32.5c2.5,5,5.6,10,8.1,15C25,58.1,31.2,69.4,37.5,80
					s11.9,21.2,18.1,31.2c1.9,3.1,3.8,6.2,5,8.8c3.1,5.6,6.2,11.2,13.8,11.2C76.9,131.9,78.8,131.2,80.6,130.6z"/>
			</g>
		</g>
		<g>
			<path class="st3" d="M75,91.2c-14.4,0-26.2-11.9-26.2-26.2S60.6,38.1,75,38.1s26.9,11.9,26.9,26.2S90,91.2,75,91.2z M75,43.8
				c-11.2,0-20.6,9.4-20.6,20.6S63.8,85,75,85s20.6-9.4,20.6-20.6S86.2,43.8,75,43.8z"/>
		</g>
	</g>
</g>
<path id="Rectangle_4413" class="st4" d="M0,0h150v150H0V0z"/>
</svg>
