<?xml version="1.0" encoding="utf-8"?>
<!-- Generator: Adobe Illustrator 27.3.1, SVG Export Plug-In . SVG Version: 6.00 Build 0)  -->
<!DOCTYPE svg PUBLIC "-//W3C//DTD SVG 1.1//EN" "http://www.w3.org/Graphics/SVG/1.1/DTD/svg11.dtd" [
	<!ENTITY ns_extend "http://ns.adobe.com/Extensibility/1.0/">
	<!ENTITY ns_ai "http://ns.adobe.com/AdobeIllustrator/10.0/">
	<!ENTITY ns_graphs "http://ns.adobe.com/Graphs/1.0/">
	<!ENTITY ns_vars "http://ns.adobe.com/Variables/1.0/">
	<!ENTITY ns_imrep "http://ns.adobe.com/ImageReplacement/1.0/">
	<!ENTITY ns_sfw "http://ns.adobe.com/SaveForWeb/1.0/">
	<!ENTITY ns_custom "http://ns.adobe.com/GenericCustomNamespace/1.0/">
	<!ENTITY ns_adobe_xpath "http://ns.adobe.com/XPath/1.0/">
]>
<svg version="1.1" id="ic-transaction-staked" xmlns:x="&ns_extend;" xmlns:i="&ns_ai;" xmlns:graph="&ns_graphs;"
	 xmlns="http://www.w3.org/2000/svg" xmlns:xlink="http://www.w3.org/1999/xlink" x="0px" y="0px" width="150px" height="150px"
	 viewBox="0 0 150 150" style="enable-background:new 0 0 150 150;" xml:space="preserve">
<style type="text/css">
	.st0{opacity:0.57;}
	.st1{fill:url(#SVGID_1_);}
	.st2{fill:url(#SVGID_00000177461635332695060750000015970714545758637486_);}
	.st3{fill:url(#SVGID_00000070107136305371486460000015985088033902724520_);}
	.st4{fill:url(#SVGID_00000181790004969313266260000010604388278212079248_);}
	.st5{fill:#FFFFFF;}
</style>
<metadata>
	<sfw  xmlns="&ns_sfw;">
		<slices></slices>
		<sliceSourceBounds  bottomLeftOrigin="true" height="136.9" width="125" x="-50.5" y="-56.5"></sliceSourceBounds>
	</sfw>
</metadata>
<g>
	<g>
		<g class="st0">
			
				<linearGradient id="SVGID_1_" gradientUnits="userSpaceOnUse" x1="-383.0819" y1="2136.6238" x2="-383.0819" y2="2088.7983" gradientTransform="matrix(6.123234e-17 1 1 -6.123234e-17 -2001.0745 455.6429)">
				<stop  offset="1.040000e-02" style="stop-color:#FFFFFF;stop-opacity:0"/>
				<stop  offset="0.513" style="stop-color:#FFFFFF"/>
			</linearGradient>
			<path class="st1" d="M135.6,92.2l-12.5-6.9c-3.1,2.5-6.9,4.4-11.2,4.4c-9.4,0-16.9-7.5-16.9-16.9S103.1,56,111.9,56
				c4.4,0,8.1,1.9,11.2,4.4l12.5-6.9l-7.5-13.7L82.5,66c-3.1,1.2-5,4.4-4.4,7.5c0.6,3.8,3.1,5.6,6.2,7.5c1.9,0.6,3.1,1.9,5,2.5
				c5,3.1,10,5.6,15,8.7c5,3.1,10.6,6.2,15.6,8.8c2.5,1.2,5,3.1,7.5,4.4L135.6,92.2z"/>
			
				<linearGradient id="SVGID_00000018226582840100653330000009175703250241094333_" gradientUnits="userSpaceOnUse" x1="-426.4866" y1="799.103" x2="-426.4866" y2="759.5106" gradientTransform="matrix(6.123234e-17 1 1 -6.123234e-17 -662.1805 499.3601)">
				<stop  offset="1.040000e-02" style="stop-color:#FFFFFF;stop-opacity:0"/>
				<stop  offset="0.513" style="stop-color:#FFFFFF"/>
			</linearGradient>
			<path style="fill:url(#SVGID_00000018226582840100653330000009175703250241094333_);" d="M123.7,72.9c0-6.2-5-11.3-11.2-11.3
				s-11.2,5-11.2,11.3s5,11.2,11.2,11.2S123.7,79.1,123.7,72.9z"/>
		</g>
		<g class="st0">
			
				<linearGradient id="SVGID_00000038378818688366093670000015315617773023414656_" gradientUnits="userSpaceOnUse" x1="-382.7694" y1="-2864.2893" x2="-382.7694" y2="-2912.1147" gradientTransform="matrix(-4.489665e-11 1 -1 -4.489665e-11 -2849.8391 455.6429)">
				<stop  offset="1.040000e-02" style="stop-color:#FFFFFF;stop-opacity:0"/>
				<stop  offset="0.513" style="stop-color:#FFFFFF"/>
			</linearGradient>
			<path style="fill:url(#SVGID_00000038378818688366093670000015315617773023414656_);" d="M21.9,106c2.5-1.3,5-3.1,7.5-4.4
				c5-3.1,10.6-6.2,15.6-8.8c5-3.1,10-5.6,15-8.7c1.9-0.6,3.1-1.9,5-2.5c3.1-1.9,5.6-3.8,6.2-7.5c0.6-3.1-1.9-6.2-4.4-7.5l-45-26.9
				l-8.1,13.1l12.5,6.9c3.1-2.5,7.5-3.8,11.2-3.8c9.4,0,16.9,7.5,16.9,16.9s-7.5,16.9-16.9,16.9c-4.4,0-8.1-1.9-11.2-4.4l-12.5,6.9
				L21.9,106z"/>
			
				<linearGradient id="SVGID_00000074441437600670829640000004111872985742990217_" gradientUnits="userSpaceOnUse" x1="-426.4866" y1="-4201.8096" x2="-426.4866" y2="-4241.4033" gradientTransform="matrix(-4.489665e-11 1 -1 -4.489665e-11 -4188.7329 499.3601)">
				<stop  offset="1.040000e-02" style="stop-color:#FFFFFF;stop-opacity:0"/>
				<stop  offset="0.513" style="stop-color:#FFFFFF"/>
			</linearGradient>
			<path style="fill:url(#SVGID_00000074441437600670829640000004111872985742990217_);" d="M37.5,84.1c6.2,0,11.2-5,11.2-11.2
				s-5-11.3-11.2-11.3s-11.2,5-11.2,11.3S31.2,84.1,37.5,84.1z"/>
		</g>
	</g>
	<g>
		<path class="st5" d="M124.4,84.1c-0.6,0-1.3,0-1.9,0c-3.1,2.5-6.2,3.8-10,3.8c-8.8,0-15.6-6.9-15.6-15.6s6.9-15.6,15.6-15.6
			c3.8,0,7.5,1.2,10,3.8c0.6,0.6,1.3,0.6,1.9,0l12.5-6.9c0.6,0,0.6-0.6,0.6-0.6c0-0.6,0-0.6,0-1.2L130,37.9
			c-0.6-0.6-1.3-0.6-1.9-0.6l-19.4,11.2C101.2,37.9,89.4,31,75.6,31S50,37.9,42.5,48.5l-20-10.6c-0.6-0.6-1.9,0-1.9,0.6l-8.1,13.8
			c0,0.6,0,0.6,0,1.2c0,0.6,0.6,0.6,0.6,0.6l12.5,7.5c0.6,0,1.2,0,1.9,0c3.1-2.5,6.2-3.8,10-3.8c8.8,0,15.6,6.9,15.6,15.6
			s-6.9,15.6-15.6,15.6c-3.8,0-7.5-1.2-10-3.8c-0.6-0.6-1.2-0.6-1.9,0l-12.5,6.9c-0.6,0-0.6,0.6-0.6,0.6s0,0.6,0,1.2l7.5,13.8
			c0.6,0.6,1.2,1.3,1.9,0.6l19.4-11.2c7.5,10.6,19.4,17.5,33.1,17.5s25.6-6.9,33.1-17.5l19.4,11.2c0.6,0.6,1.9,0,1.9-0.6l7.5-13.8
			c0-0.6,0-0.6,0-1.2s-0.6-0.6-0.6-0.6L124.4,84.1z M22.5,104.1l-6.2-11.2l10-6.2c3.1,2.5,7.5,4.4,11.2,4.4c10,0,18.1-8.1,18.1-18.1
			c0.6-10-7.5-18.8-18.1-18.8c-3.8,0-8.1,1.9-11.2,4.4l-10-6.2L22.5,41c2.5,1.9,5,3.1,7.5,4.4c5,3.1,10.6,6.2,15.6,8.7
			c5,3.1,10,5.6,15,8.7c1.2,0.6,3.1,1.9,4.4,2.5c2.5,1.2,5.6,3.1,5.6,6.9c0,1.2,0,1.9-0.6,2.5c-0.6,1.9-3.1,3.1-5,4.4
			c-1.9,1.2-3.1,1.9-5,3.1c-5,3.1-10,5.6-15.6,8.7c-5,3.1-10,5.6-15.6,8.8C26.9,101.6,24.4,102.9,22.5,104.1z M75,106
			c-11.2,0-20.6-5.6-26.9-13.8L67.5,81c0.6,0,0.6,0,0.6-0.6c3.1-1.9,4.4-5,4.4-8.1c0-0.6,0-0.6,0-1.2c-0.6-3.1-1.9-5-4.4-6.9h-0.6
			L48.1,52.9c6.2-8.1,15.6-13.7,26.9-13.7s20.6,5.6,26.9,13.7l-20,11.3h-0.6c-2.5,1.2-4.4,3.8-4.4,6.9c0,0.6,0,0.6,0,1.2
			c0,3.1,1.9,6.2,4.4,8.1c0,0,0.6,0,0.6,0.6l20,11.3C95.6,100.4,86.2,106,75,106z M127.5,104.1c-1.9-1.2-4.4-2.5-6.9-3.8
			c-5-3.1-10-5.6-15.6-8.8c-5-3.1-10-6.2-15.6-8.7c-1.9-1.2-3.1-1.9-5-3.1c-1.9-1.2-4.4-2.5-5-4.4c-0.6-0.6-0.6-1.9-0.6-2.5
			c0-3.8,3.1-5,5.6-6.9c1.2-0.6,3.1-1.9,4.4-2.5c5-3.1,10-5.6,15-8.7c5-3.1,10.6-6.2,15.6-8.8c2.5-1.2,5-3.1,7.5-4.4l6.3,11.2
			l-10.6,6.2c-1.9-3.1-6.2-5-10-5c-10,0-18.1,8.1-18.1,18.1s8.1,18.1,18.1,18.1c4.4,0,8.1-1.2,11.2-4.4l10.6,6.2L127.5,104.1z"/>
		<path class="st5" d="M112.5,59.7c-6.9,0-13.1,5.6-13.1,13.1c0,6.9,5.6,12.5,13.1,12.5c6.9,0,12.5-5.6,12.5-12.5
			C125,65.4,119.4,59.7,112.5,59.7z M112.5,82.9c-5.6,0-10-4.4-10-10s4.4-10,10-10s10,4.4,10,10C121.9,78.5,117.5,82.9,112.5,82.9z"
			/>
		<path class="st5" d="M37.5,85.4c6.9,0,12.5-5.6,12.5-12.5c0-6.9-5.6-13.1-12.5-13.1S25,65.4,25,72.9C25,79.7,30.6,85.4,37.5,85.4z
			 M37.5,62.9c5.6,0,10,4.4,10,10s-4.4,10-10,10s-10-4.4-10-10C28.1,67.2,32.5,62.9,37.5,62.9z"/>
		<path class="st5" d="M75,18.5c16.9,0,31.9,7.5,42.5,19.4l11.2-6.2c-12.5-15.6-31.9-25-53.1-25C53.1,6,34.4,16.6,21.9,32.2
			l10.6,6.2C42.5,26.6,58.1,18.5,75,18.5z"/>
		<path class="st5" d="M75,131c-18.1,0-34.4-8.7-45-22.5l-10.6,6.2c12.5,17.5,32.5,28.8,55.6,28.8c22.5,0,42.5-11.2,55-27.5
			l-10.6-6.2C109.4,122.2,93.8,131,75,131z"/>
	</g>
</g>
</svg>
