<?xml version="1.0" encoding="utf-8"?>
<!-- Generator: Adobe Illustrator 27.3.1, SVG Export Plug-In . SVG Version: 6.00 Build 0)  -->
<!DOCTYPE svg PUBLIC "-//W3C//DTD SVG 1.1//EN" "http://www.w3.org/Graphics/SVG/1.1/DTD/svg11.dtd" [
	<!ENTITY ns_extend "http://ns.adobe.com/Extensibility/1.0/">
	<!ENTITY ns_ai "http://ns.adobe.com/AdobeIllustrator/10.0/">
	<!ENTITY ns_graphs "http://ns.adobe.com/Graphs/1.0/">
	<!ENTITY ns_vars "http://ns.adobe.com/Variables/1.0/">
	<!ENTITY ns_imrep "http://ns.adobe.com/ImageReplacement/1.0/">
	<!ENTITY ns_sfw "http://ns.adobe.com/SaveForWeb/1.0/">
	<!ENTITY ns_custom "http://ns.adobe.com/GenericCustomNamespace/1.0/">
	<!ENTITY ns_adobe_xpath "http://ns.adobe.com/XPath/1.0/">
]>
<svg version="1.1" id="ic-transaction-staked" xmlns:x="&ns_extend;" xmlns:i="&ns_ai;" xmlns:graph="&ns_graphs;"
	 xmlns="http://www.w3.org/2000/svg" xmlns:xlink="http://www.w3.org/1999/xlink" x="0px" y="0px" width="24px" height="24px"
	 viewBox="0 0 24 24" style="enable-background:new 0 0 24 24;" xml:space="preserve">
<style type="text/css">
	.st0{opacity:0.57;}
	.st1{fill:url(#SVGID_1_);}
	.st2{fill:url(#SVGID_00000097500158275885946710000005876028046167778709_);}
	.st3{fill:url(#SVGID_00000131334340372928793220000011056923354757162410_);}
	.st4{fill:url(#SVGID_00000140720156904994290550000000499994689497151164_);}
	.st5{fill:#FFFFFF;}
</style>
<metadata>
	<sfw  xmlns="&ns_sfw;">
		<slices></slices>
		<sliceSourceBounds  bottomLeftOrigin="true" height="21.9" width="20" x="2" y="1"></sliceSourceBounds>
	</sfw>
</metadata>
<g>
	<g>
		<g class="st0">
			
				<linearGradient id="SVGID_1_" gradientUnits="userSpaceOnUse" x1="-23.9713" y1="-522.7624" x2="-23.9713" y2="-515.1103" gradientTransform="matrix(6.123234e-17 1 -1 6.123234e-17 -501.0745 35.6429)">
				<stop  offset="1.040000e-02" style="stop-color:#FFFFFF;stop-opacity:0"/>
				<stop  offset="0.513" style="stop-color:#FFFFFF"/>
			</linearGradient>
			<path class="st1" d="M21.7,14.8l-2-1.1c-0.5,0.4-1.1,0.7-1.8,0.7c-1.5,0-2.7-1.2-2.7-2.7S16.5,9,17.9,9c0.7,0,1.3,0.3,1.8,0.7
				l2-1.1l-1.2-2.2l-7.3,4.2c-0.5,0.2-0.8,0.7-0.7,1.2c0.1,0.6,0.5,0.9,1,1.2c0.3,0.1,0.5,0.3,0.8,0.4c0.8,0.5,1.6,0.9,2.4,1.4
				c0.8,0.5,1.7,1,2.5,1.4c0.4,0.2,0.8,0.5,1.2,0.7L21.7,14.8z"/>
			
				<linearGradient id="SVGID_00000096757630025509409940000004862637873043900858_" gradientUnits="userSpaceOnUse" x1="-67.6785" y1="815.9119" x2="-67.6785" y2="822.2467" gradientTransform="matrix(6.123234e-17 1 -1 6.123234e-17 837.8195 79.3601)">
				<stop  offset="1.040000e-02" style="stop-color:#FFFFFF;stop-opacity:0"/>
				<stop  offset="0.513" style="stop-color:#FFFFFF"/>
			</linearGradient>
			<path style="fill:url(#SVGID_00000096757630025509409940000004862637873043900858_);" d="M19.8,11.7c0-1-0.8-1.8-1.8-1.8
				s-1.8,0.8-1.8,1.8s0.8,1.8,1.8,1.8S19.8,12.7,19.8,11.7z"/>
		</g>
		<g class="st0">
			
				<linearGradient id="SVGID_00000058576158288146719870000013900347703295320998_" gradientUnits="userSpaceOnUse" x1="-23.9663" y1="2584.1511" x2="-23.9663" y2="2591.8032" gradientTransform="matrix(-4.489665e-11 1 1 4.489665e-11 -2581.8391 35.6429)">
				<stop  offset="1.040000e-02" style="stop-color:#FFFFFF;stop-opacity:0"/>
				<stop  offset="0.513" style="stop-color:#FFFFFF"/>
			</linearGradient>
			<path style="fill:url(#SVGID_00000058576158288146719870000013900347703295320998_);" d="M3.5,17c0.4-0.2,0.8-0.5,1.2-0.7
				c0.8-0.5,1.7-1,2.5-1.4c0.8-0.5,1.6-0.9,2.4-1.4c0.3-0.1,0.5-0.3,0.8-0.4c0.5-0.3,0.9-0.6,1-1.2c0.1-0.5-0.3-1-0.7-1.2L3.5,6.4
				L2.2,8.5l2,1.1C4.7,9.2,5.4,9,6,9c1.5,0,2.7,1.2,2.7,2.7S7.5,14.4,6,14.4c-0.7,0-1.3-0.3-1.8-0.7l-2,1.1L3.5,17z"/>
			
				<linearGradient id="SVGID_00000098914524421438702490000004874751441576067475_" gradientUnits="userSpaceOnUse" x1="-67.6885" y1="3922.8252" x2="-67.6885" y2="3929.1602" gradientTransform="matrix(-4.489665e-11 1 1 4.489665e-11 -3920.7329 79.3601)">
				<stop  offset="1.040000e-02" style="stop-color:#FFFFFF;stop-opacity:0"/>
				<stop  offset="0.513" style="stop-color:#FFFFFF"/>
			</linearGradient>
			<path style="fill:url(#SVGID_00000098914524421438702490000004874751441576067475_);" d="M6,13.5c1,0,1.8-0.8,1.8-1.8
				c0-1-0.8-1.8-1.8-1.8s-1.8,0.8-1.8,1.8S5,13.5,6,13.5z"/>
		</g>
	</g>
	<g>
		<path class="st5" d="M19.9,13.5c-0.1,0-0.2,0-0.3,0c-0.5,0.4-1,0.6-1.6,0.6c-1.4,0-2.5-1.1-2.5-2.5c0-1.4,1.1-2.5,2.5-2.5
			c0.6,0,1.2,0.2,1.6,0.6c0.1,0.1,0.2,0.1,0.3,0l2-1.1c0.1,0,0.1-0.1,0.1-0.1c0-0.1,0-0.1,0-0.2l-1.2-2.2c-0.1-0.1-0.2-0.1-0.3-0.1
			l-3.1,1.8c-1.2-1.7-3.1-2.8-5.3-2.8c-2.2,0-4.1,1.1-5.3,2.8L3.6,6.1c-0.1-0.1-0.3,0-0.3,0.1L2,8.4c0,0.1,0,0.1,0,0.2
			c0,0.1,0.1,0.1,0.1,0.1l2,1.2c0.1,0,0.2,0,0.3,0c0.5-0.4,1-0.6,1.6-0.6c1.4,0,2.5,1.1,2.5,2.5c0,1.4-1.1,2.5-2.5,2.5
			c-0.6,0-1.2-0.2-1.6-0.6c-0.1-0.1-0.2-0.1-0.3,0l-2,1.1c-0.1,0-0.1,0.1-0.1,0.1c0,0,0,0.1,0,0.2l1.2,2.2c0.1,0.1,0.2,0.2,0.3,0.1
			l3.1-1.8c1.2,1.7,3.1,2.8,5.3,2.8c2.2,0,4.1-1.1,5.3-2.8l3.1,1.8c0.1,0.1,0.3,0,0.3-0.1l1.2-2.2c0-0.1,0-0.1,0-0.2
			c0-0.1-0.1-0.1-0.1-0.1L19.9,13.5z M3.6,16.7l-1-1.8l1.6-1c0.5,0.4,1.2,0.7,1.8,0.7c1.6,0,2.9-1.3,2.9-2.9C9,10.1,7.7,8.7,6,8.7
			C5.4,8.7,4.7,9,4.2,9.4l-1.6-1l1-1.8C4,6.9,4.4,7.1,4.8,7.3c0.8,0.5,1.7,1,2.5,1.4c0.8,0.5,1.6,0.9,2.4,1.4
			c0.2,0.1,0.5,0.3,0.7,0.4c0.4,0.2,0.9,0.5,0.9,1.1c0,0.2,0,0.3-0.1,0.4c-0.1,0.3-0.5,0.5-0.8,0.7c-0.3,0.2-0.5,0.3-0.8,0.5
			c-0.8,0.5-1.6,0.9-2.5,1.4c-0.8,0.5-1.6,0.9-2.5,1.4C4.3,16.3,3.9,16.5,3.6,16.7z M12,17c-1.8,0-3.3-0.9-4.3-2.2l3.1-1.8
			c0.1,0,0.1,0,0.1-0.1c0.5-0.3,0.7-0.8,0.7-1.3c0-0.1,0-0.1,0-0.2c-0.1-0.5-0.3-0.8-0.7-1.1c0,0-0.1,0-0.1,0L7.7,8.5
			c1-1.3,2.5-2.2,4.3-2.2c1.8,0,3.3,0.9,4.3,2.2l-3.2,1.8c0,0-0.1,0-0.1,0c-0.4,0.2-0.7,0.6-0.7,1.1c0,0.1,0,0.1,0,0.2
			c0,0.5,0.3,1,0.7,1.3c0,0,0.1,0,0.1,0.1l3.2,1.8C15.3,16.1,13.8,17,12,17z M20.4,16.7c-0.3-0.2-0.7-0.4-1.1-0.6
			c-0.8-0.5-1.6-0.9-2.5-1.4c-0.8-0.5-1.6-1-2.5-1.4c-0.3-0.2-0.5-0.3-0.8-0.5c-0.3-0.2-0.7-0.4-0.8-0.7c-0.1-0.1-0.1-0.3-0.1-0.4
			c0-0.6,0.5-0.8,0.9-1.1c0.2-0.1,0.5-0.3,0.7-0.4c0.8-0.5,1.6-0.9,2.4-1.4c0.8-0.5,1.7-1,2.5-1.4c0.4-0.2,0.8-0.5,1.2-0.7l1,1.8
			l-1.7,1C19.3,9,18.6,8.7,18,8.7c-1.6,0-2.9,1.3-2.9,2.9c0,1.6,1.3,2.9,2.9,2.9c0.7,0,1.3-0.2,1.8-0.7l1.7,1L20.4,16.7z"/>
		<path class="st5" d="M18,9.6c-1.1,0-2.1,0.9-2.1,2.1c0,1.1,0.9,2,2.1,2c1.1,0,2-0.9,2-2C20,10.5,19.1,9.6,18,9.6z M18,13.3
			c-0.9,0-1.6-0.7-1.6-1.6c0-0.9,0.7-1.6,1.6-1.6c0.9,0,1.6,0.7,1.6,1.6C19.5,12.6,18.8,13.3,18,13.3z"/>
		<path class="st5" d="M6,13.7c1.1,0,2-0.9,2-2c0-1.1-0.9-2.1-2-2.1s-2,0.9-2,2.1C4,12.8,4.9,13.7,6,13.7z M6,10.1
			c0.9,0,1.6,0.7,1.6,1.6c0,0.9-0.7,1.6-1.6,1.6c-0.9,0-1.6-0.7-1.6-1.6C4.5,10.8,5.2,10.1,6,10.1z"/>
		<path class="st5" d="M12,3c2.7,0,5.1,1.2,6.8,3.1l1.8-1c-2-2.5-5.1-4-8.5-4C8.5,1,5.5,2.7,3.5,5.2l1.7,1C6.8,4.3,9.3,3,12,3z"/>
		<path class="st5" d="M12,21c-2.9,0-5.5-1.4-7.2-3.6l-1.7,1c2,2.8,5.2,4.6,8.9,4.6c3.6,0,6.8-1.8,8.8-4.4l-1.7-1
			C17.5,19.6,15,21,12,21z"/>
	</g>
</g>
</svg>
