<?xml version="1.0" encoding="utf-8"?>
<!-- Generator: Adobe Illustrator 26.5.3, SVG Export Plug-In . SVG Version: 6.00 Build 0)  -->
<!DOCTYPE svg PUBLIC "-//W3C//DTD SVG 1.1//EN" "http://www.w3.org/Graphics/SVG/1.1/DTD/svg11.dtd" [
	<!ENTITY ns_extend "http://ns.adobe.com/Extensibility/1.0/">
	<!ENTITY ns_ai "http://ns.adobe.com/AdobeIllustrator/10.0/">
	<!ENTITY ns_graphs "http://ns.adobe.com/Graphs/1.0/">
	<!ENTITY ns_vars "http://ns.adobe.com/Variables/1.0/">
	<!ENTITY ns_imrep "http://ns.adobe.com/ImageReplacement/1.0/">
	<!ENTITY ns_sfw "http://ns.adobe.com/SaveForWeb/1.0/">
	<!ENTITY ns_custom "http://ns.adobe.com/GenericCustomNamespace/1.0/">
	<!ENTITY ns_adobe_xpath "http://ns.adobe.com/XPath/1.0/">
]>
<svg version="1.1" id="ic-transaction-staked" xmlns:x="&ns_extend;" xmlns:i="&ns_ai;" xmlns:graph="&ns_graphs;"
	 xmlns="http://www.w3.org/2000/svg" xmlns:xlink="http://www.w3.org/1999/xlink" x="0px" y="0px" width="24px" height="24px"
	 viewBox="0 0 24 24" style="enable-background:new 0 0 24 24;" xml:space="preserve">
<style type="text/css">
	.st0{opacity:0.33;}
	.st1{opacity:0.57;}
	.st2{fill:#FFFFFF;}
</style>
<metadata>
	<sfw  xmlns="&ns_sfw;">
		<slices></slices>
		<sliceSourceBounds  bottomLeftOrigin="true" height="21.9" width="20" x="2" y="1"></sliceSourceBounds>
	</sfw>
</metadata>
<g class="st0">
	<g>
		<g class="st1">
			<path class="st2" d="M21.7,14.9l-2-1.1c-0.5,0.4-1.1,0.7-1.8,0.7c-1.5,0-2.7-1.2-2.7-2.7s1.2-2.7,2.7-2.7c0.7,0,1.3,0.3,1.8,0.7
				l2-1.1l-1.2-2.2l-7.3,4.2c-0.5,0.2-0.8,0.7-0.7,1.2c0.1,0.6,0.5,0.9,1,1.2c0.3,0.1,0.5,0.3,0.8,0.4c0.8,0.5,1.6,0.9,2.4,1.4
				c0.8,0.5,1.7,1,2.5,1.4c0.4,0.2,0.8,0.5,1.2,0.7L21.7,14.9z"/>
			<path class="st2" d="M19.8,11.8c0-1-0.8-1.8-1.8-1.8s-1.8,0.8-1.8,1.8s0.8,1.8,1.8,1.8S19.8,12.8,19.8,11.8z"/>
		</g>
		<g class="st1">
			<path class="st2" d="M3.5,17.1c0.4-0.2,0.8-0.5,1.2-0.7c0.8-0.5,1.7-1,2.5-1.4c0.8-0.5,1.7-1,2.5-1.4c0.3-0.1,0.5-0.3,0.8-0.4
				c0.5-0.3,0.9-0.6,1-1.2c0.1-0.5-0.3-1-0.7-1.2L3.5,6.5L2.2,8.6l2,1.1C4.7,9.4,5.4,9.1,6,9.1c1.5,0,2.7,1.2,2.7,2.7
				S7.5,14.5,6,14.5c-0.7,0-1.3-0.3-1.8-0.7l-2,1.1L3.5,17.1z"/>
			<path class="st2" d="M6,13.6c1,0,1.8-0.8,1.8-1.8S7,10,6,10s-1.8,0.8-1.8,1.8S5,13.6,6,13.6z"/>
		</g>
	</g>
	<g>
		<path class="st2" d="M19.9,13.6c-0.1,0-0.2,0-0.3,0c-0.5,0.4-1,0.6-1.6,0.6c-1.4,0-2.5-1.1-2.5-2.5s1.1-2.5,2.5-2.5
			c0.6,0,1.2,0.2,1.6,0.6c0.1,0.1,0.2,0.1,0.3,0l2-1.2C22,8.6,22,8.5,22,8.5c0-0.1,0-0.1,0-0.2l-1.2-2.2C20.7,6,20.6,5.9,20.5,6
			l-3.2,2c-1.2-1.7-3.1-2.8-5.3-2.8C9.8,5.3,7.9,6.4,6.7,8L3.6,6.3c-0.1-0.1-0.3,0-0.3,0.1L2,8.6c0,0,0,0.1,0,0.2s0,0.1,0.1,0.1
			l2,1.2c0.1,0,0.2,0,0.3,0c0.5-0.4,1-0.6,1.6-0.6c1.4,0,2.5,1.1,2.5,2.5S7.4,14.5,6,14.5c-0.6,0-1.2-0.2-1.6-0.6
			c-0.1-0.1-0.2-0.1-0.3,0l-2,1.2L2,15.2C2,15,2,15,2,15.1l1.2,2.2c0.1,0.1,0.2,0.2,0.3,0.1l3.1-1.8c1.2,1.7,3.1,2.8,5.3,2.8
			s4.1-1.1,5.3-2.8l3.1,1.8c0.1,0.1,0.3,0,0.3-0.1L22,15c0,0,0-0.1,0-0.2c0-0.1-0.1-0.1-0.1-0.1L19.9,13.6z M3.6,16.8l-1-1.8l1.7-1
			c0.5,0.4,1.2,0.6,1.8,0.6c1.6,0,2.9-1.3,2.9-2.9S7.7,8.9,6.1,8.9c-0.7,0-1.3,0.2-1.8,0.7l-1.7-1l1-1.8C4,7,4.4,7.2,4.8,7.5
			C5.6,8,6.5,8.5,7.3,9s1.6,0.9,2.4,1.4c0.2,0.1,0.5,0.3,0.7,0.4c0.4,0.2,0.9,0.5,0.9,1.1c0,0.2,0,0.3-0.1,0.4
			c-0.2,0.3-0.5,0.5-0.8,0.7c-0.3,0.1-0.5,0.3-0.8,0.5c-0.8,0.5-1.6,1-2.5,1.4c-0.8,0.5-1.6,0.9-2.5,1.4C4.3,16.4,3.9,16.6,3.6,16.8
			z M12,17.1c-1.8,0-3.3-0.9-4.3-2.2l3.1-1.8c0.1,0,0.1-0.1,0.1-0.1c0.4-0.3,0.7-0.8,0.7-1.3c0-0.1,0-0.1,0-0.2
			c-0.1-0.5-0.3-0.9-0.7-1.1h-0.1L7.7,8.6c1-1.3,2.5-2.2,4.3-2.2s3.3,0.9,4.3,2.2l-3.2,1.8H13c-0.4,0.2-0.7,0.6-0.7,1.1
			c0,0.1,0,0.1,0,0.2c0,0.5,0.3,1,0.7,1.3c0,0,0.1,0,0.1,0.1l3.2,1.8C15.3,16.3,13.8,17.1,12,17.1z M20.4,16.8
			c-0.3-0.2-0.7-0.4-1.1-0.6c-0.8-0.5-1.6-0.9-2.5-1.4c-0.8-0.5-1.6-1-2.5-1.4c-0.3-0.1-0.5-0.3-0.8-0.5s-0.6-0.4-0.8-0.7
			c-0.1-0.1-0.1-0.3-0.1-0.4c0-0.6,0.4-0.8,0.9-1.1c0.2-0.1,0.5-0.3,0.7-0.4c0.8-0.5,1.6-0.9,2.4-1.4c0.8-0.5,1.7-1,2.5-1.5
			C19.6,7.3,20,7,20.4,6.8l1,1.8l-1.7,1c-0.5-0.4-1.2-0.7-1.8-0.7c-1.6,0-2.9,1.3-2.9,2.9s1.3,2.9,2.9,2.9c0.7,0,1.3-0.2,1.8-0.6
			l1.7,0.9L20.4,16.8z"/>
		<path class="st2" d="M17.9,9.8c-1.1,0-2,0.9-2,2s0.9,2,2,2s2.1-0.9,2.1-2S19.1,9.8,17.9,9.8z M18,13.4c-0.9,0-1.6-0.7-1.6-1.6
			s0.7-1.6,1.6-1.6s1.6,0.7,1.6,1.6C19.5,12.7,18.8,13.4,18,13.4z"/>
		<path class="st2" d="M6.1,13.8c1.1,0,2-0.9,2-2s-0.9-2-2-2s-2,0.9-2,2S4.9,13.8,6.1,13.8z M6.1,10.2c0.9,0,1.6,0.7,1.6,1.6
			S7,13.4,6.1,13.4s-1.6-0.7-1.6-1.6S5.2,10.2,6.1,10.2z"/>
		<path class="st2" d="M12,3c2.7,0,5.1,1.2,6.8,3.1l1.8-1c-2-2.5-5.1-4-8.5-4C8.5,1,5.4,2.7,3.4,5.2l1.7,1C6.8,4.3,9.2,3,12,3z"/>
		<path class="st2" d="M12,21c-2.9,0-5.5-1.4-7.2-3.6l-1.7,1c2,2.8,5.2,4.6,8.9,4.6c3.6,0,6.8-1.8,8.8-4.4l-1.7-1
			C17.4,19.6,14.9,21,12,21z"/>
	</g>
</g>
</svg>
