<?xml version="1.0" encoding="utf-8"?>
<!-- Generator: Adobe Illustrator 27.3.1, SVG Export Plug-In . SVG Version: 6.00 Build 0)  -->
<!DOCTYPE svg PUBLIC "-//W3C//DTD SVG 1.1//EN" "http://www.w3.org/Graphics/SVG/1.1/DTD/svg11.dtd" [
	<!ENTITY ns_extend "http://ns.adobe.com/Extensibility/1.0/">
	<!ENTITY ns_ai "http://ns.adobe.com/AdobeIllustrator/10.0/">
	<!ENTITY ns_graphs "http://ns.adobe.com/Graphs/1.0/">
	<!ENTITY ns_vars "http://ns.adobe.com/Variables/1.0/">
	<!ENTITY ns_imrep "http://ns.adobe.com/ImageReplacement/1.0/">
	<!ENTITY ns_sfw "http://ns.adobe.com/SaveForWeb/1.0/">
	<!ENTITY ns_custom "http://ns.adobe.com/GenericCustomNamespace/1.0/">
	<!ENTITY ns_adobe_xpath "http://ns.adobe.com/XPath/1.0/">
]>
<svg version="1.1" id="Layer_1" xmlns:x="&ns_extend;" xmlns:i="&ns_ai;" xmlns:graph="&ns_graphs;"
	 xmlns="http://www.w3.org/2000/svg" xmlns:xlink="http://www.w3.org/1999/xlink" x="0px" y="0px" width="150px" height="150px"
	 viewBox="0 0 150 150" style="enable-background:new 0 0 150 150;" xml:space="preserve">
<style type="text/css">
	.st0{opacity:0.33;}
	.st1{fill:#FFFFFF;}
	.st2{fill:none;}
</style>
<metadata>
	<sfw  xmlns="&ns_sfw;">
		<slices></slices>
		<sliceSourceBounds  bottomLeftOrigin="true" height="150" width="150" x="-63" y="-63"></sliceSourceBounds>
	</sfw>
</metadata>
<g id="ic_mint">
	<g class="st0">
		<g>
			<path class="st1" d="M101.3,75c0-14.4-11.9-26.2-26.2-26.2S48.8,60,48.8,75s11.9,26.3,26.2,26.3S101.3,89.4,101.3,75z M61.2,75
				c0-7.5,6.2-13.8,13.8-13.8S88.8,67.5,88.8,75S82.5,88.8,75,88.8S61.2,82.5,61.2,75z"/>
		</g>
		<g>
			<path class="st1" d="M124.4,76.9c-3.8,0-6.9,2.5-7.5,6.2c-0.6,3.1-1.3,5-1.9,7.5c-0.6,1.9-1.9,4.4-3.1,6.2
				c-1.9,3.8-5,7.5-8.1,10.6s-6.9,5.6-11.2,7.5c-1.2,0.6-3.1,1.3-5,1.9c-15,4.4-30.6,0-43.1-10.6l-0.6-0.6l5,1.9
				c3.7,0.6,7.5-1.2,8.1-4.4c0-0.6,0.6-1.3,0.6-1.9c0-2.5-1.2-5-4.4-5.6l-21.3-8.1c-3.1-1.9-6.9,0-8.1,3.1l-7.5,21.2
				c-1.3,3.1,0.6,6.9,3.7,8.1c0.6,0,1.3,0.6,1.9,0.6c2.5,0,5-1.2,5.6-4.4l1.9-3.7c1.9,1.9,3.8,3.1,3.8,3.1
				c12.5,11.9,27.5,18.1,43.1,18.1c5.6,0,11.2-0.6,16.2-2.5c4.4-1.2,8.8-3.1,12.5-5.6c3.8-2.5,7.5-5,10.6-8.1s6.2-6.2,8.8-10.6
				c2.5-3.8,4.4-8.1,5.6-12.5c1.2-3.8,1.9-6.9,1.9-10.6C131.9,80.6,128.8,76.9,124.4,76.9z"/>
			<path class="st1" d="M25.6,73.1c3.7,0,6.9-2.5,7.5-6.2c0.6-3.1,1.2-5,1.9-7.5c0.6-1.9,1.9-4.4,2.5-6.2c1.9-3.8,5-7.5,8.1-10.6
				c3.1-3.1,6.9-5.6,11.3-7.5c1.2-0.6,3.1-1.2,5-1.9c15-4.4,30.6-0.6,43.1,10.6c0,0.6,0.6,0.6,0.6,0.6l-5-1.9
				c-3.1-0.6-6.9,1.2-7.5,4.4c0,0.6-0.6,1.2-0.6,1.9c0,2.5,1.2,5,4.4,5.6l21.3,8.1c3.1,1.2,6.9-0.6,8.1-3.8l7.5-21.2
				c1.2-3.1-0.6-6.9-3.8-8.1c-0.6,0-1.3-0.6-1.9-0.6c-2.5,0-5,1.2-5.6,4.4l-1.9,4.4c-1.9-1.9-3.8-3.1-3.8-3.1
				c-12.5-11.9-27.5-18.1-43.1-18.1c-5.6,0-11.2,0.6-16.2,2.5c-4.4,1.2-8.8,3.1-12.5,5.6c-3.7,1.9-7.5,4.4-10.6,7.5
				s-5.6,6.9-8.1,10.6s-4.4,8.1-5.6,12.5c-1.9,3.1-2.5,6.9-2.5,10.6C18.1,69.4,21.2,73.1,25.6,73.1z"/>
		</g>
	</g>
	<path id="Rectangle_4647" class="st2" d="M0,0h150v150H0V0z"/>
</g>
</svg>
