<?xml version="1.0" encoding="utf-8"?>
<!-- Generator: Adobe Illustrator 27.3.1, SVG Export Plug-In . SVG Version: 6.00 Build 0)  -->
<!DOCTYPE svg PUBLIC "-//W3C//DTD SVG 1.1//EN" "http://www.w3.org/Graphics/SVG/1.1/DTD/svg11.dtd" [
	<!ENTITY ns_extend "http://ns.adobe.com/Extensibility/1.0/">
	<!ENTITY ns_ai "http://ns.adobe.com/AdobeIllustrator/10.0/">
	<!ENTITY ns_graphs "http://ns.adobe.com/Graphs/1.0/">
	<!ENTITY ns_vars "http://ns.adobe.com/Variables/1.0/">
	<!ENTITY ns_imrep "http://ns.adobe.com/ImageReplacement/1.0/">
	<!ENTITY ns_sfw "http://ns.adobe.com/SaveForWeb/1.0/">
	<!ENTITY ns_custom "http://ns.adobe.com/GenericCustomNamespace/1.0/">
	<!ENTITY ns_adobe_xpath "http://ns.adobe.com/XPath/1.0/">
]>
<svg version="1.1" id="Layer_1" xmlns:x="&ns_extend;" xmlns:i="&ns_ai;" xmlns:graph="&ns_graphs;"
	 xmlns="http://www.w3.org/2000/svg" xmlns:xlink="http://www.w3.org/1999/xlink" x="0px" y="0px" width="150px" height="150px"
	 viewBox="0 0 150 150" style="enable-background:new 0 0 150 150;" xml:space="preserve">
<style type="text/css">
	.st0{opacity:0.33;fill-rule:evenodd;clip-rule:evenodd;fill:#FFFFFF;enable-background:new    ;}
	.st1{fill:none;}
</style>
<metadata>
	<sfw  xmlns="&ns_sfw;">
		<slices></slices>
		<sliceSourceBounds  bottomLeftOrigin="true" height="150" width="150" x="-63" y="-63"></sliceSourceBounds>
	</sfw>
</metadata>
<g id="ic-transaction-staked">
	<path class="st0" d="M23.1,37.5c-0.6-0.6-1.2-1.2-1.2-1.9c-1.2-1.2-1.2-3.8,0-5c0.6-0.6,1.9-1.9,2.5-2.5c1.2-1.2,3.8-1.2,5,0
		c0.6,0.6,1.2,1.3,1.9,1.3c5.6-4.4,11.2-7.5,17.5-10.6c2.5-1.2,5-3.1,6.9-4.4c1.2-0.6,3.1-0.6,4.4,0.6c1.2,1.3,1.2,2.5,0,4.4
		c-4.4,6.2-9.4,12.5-13.8,19.4c-0.6,0.6-1.2,1.2-1.9,1.9v0.6c0.6,1.2,1.9,2.5,2.5,3.8c2.5,4.4,6.2,7.5,9.4,11.2
		c5.6,5.6,11.2,11.2,16.2,16.2c1.9,1.9,1.9,1.9,3.8,0c7.5-7.5,15-15,22.5-23.1c0.6-0.6,1.3-1.2,1.3-1.9c1.9-2.5,3.1-4.4,5-6.2
		c-5.6-7.5-10.6-15-16.2-22.5c-1.2-1.3-1.2-3.1,0-4.4c1.2-1.3,2.5-1.3,4.4-0.6c6.9,4.4,13.8,8.1,20.6,12.5c1.2,0.6,2.5,1.9,3.1,2.5
		c0.6,0.6,0.6,0.6,1.2,0c0.6-0.6,1.9-1.9,3.1-1.9c1.3,0,1.9,0,3.1,1.2c0.6,0.6,1.9,1.9,2.5,2.5c1.3,1.2,1.3,3.8,0,5
		c-1.3,1.9-1.3,1.9,0,3.1c3.8,3.8,7.5,6.9,11.2,10.6c1.9,1.9,1.9,3.8,0,5.6c-1.9,2.5-4.4,4.4-6.2,6.9c-1.9,1.9-3.8,1.9-5.6,0
		c-3.8-3.8-7.5-7.5-11.2-11.2l-0.6-0.6c-5,3.8-10,7.5-13.8,12.5C95,68.8,89.4,74.4,83.8,80.6c-0.6,0.6-0.6,0.6-1.2,1.2
		c0.6,0.6,1.2,1.2,2.5,1.9c5,5,10,10,15,15.6c3.1,3.1,5.6,5.6,8.8,8.7c5.6,5.6,10.6,11.2,16.2,16.9c2.5,2.5,1.9,5,0,6.9
		c-0.6,0.6-1.9,1.9-2.5,2.5c-1.9,1.9-5,1.9-6.9,0c-9.4-10-19.4-20-28.8-30c-3.8-4.4-8.1-8.8-11.9-12.5c0,0,0,0-0.6,0
		c-6.9,7.5-13.8,15-21.2,21.9c-6.2,6.9-13.1,13.1-19.4,20c-2.5,2.5-5,2.5-7.5,0c-0.6-0.6-1.9-1.9-2.5-2.5c-2.5-2.5-2.5-5,0-6.9
		c5.6-5.6,11.2-11.2,16.9-17.5c6.9-6.9,13.1-13.8,20-20.6c1.2-1.2,3.1-3.1,4.4-4.4c0,0,0.6-0.6,1.2-0.6c-2.5-2.5-5-5.6-6.9-7.5
		c-5-4.4-10.6-10-15.6-15.6c-1.2-1.2-3.1-2.5-5-3.8c-1.2-1.2-3.1-2.5-4.4-3.7l-0.6,0.6C30,55,26.2,58.7,22.5,61.9
		c-1.9,1.9-4.4,1.9-6.2,0c-1.9-1.9-3.8-3.7-5.6-6.2c-1.9-1.9-1.9-4.4,0-6.2c3.8-3.7,8.1-7.5,11.9-11.2L23.1,37.5z"/>
	<path id="Rectangle_4527" class="st1" d="M0,0h150v150H0V0z"/>
</g>
</svg>
